<svg width="40" height="40" viewBox="0 0 40 40" fill="none" xmlns="http://www.w3.org/2000/svg">
<path d="M36.4258 6.81295L19.3333 3.04355C18.2767 2.81118 17.1895 3.53404 16.9629 4.60759L11.566 30.1896C11.4533 30.7218 11.551 31.2674 11.8394 31.7254C12.1285 32.1834 12.5746 32.4986 13.0951 32.6132L30.1876 36.3826C30.3261 36.4133 30.4682 36.4286 30.6091 36.4286C31.5416 36.4286 32.3613 35.7517 32.558 34.8186L37.9549 9.23657C38.1869 8.13788 37.5009 7.05083 36.4258 6.81295ZM31.3935 21.6171C30.2757 23.0554 28.0102 25.1627 23.5632 27.0351L23.1813 27.1958L22.8982 26.8886C19.6007 23.3074 18.387 20.4332 17.9493 18.6521C17.6261 17.3376 17.8971 15.806 18.6731 14.5553C19.3998 13.3843 20.4498 12.6087 21.63 12.3714C21.9112 12.315 22.1924 12.2862 22.4671 12.2862C24.2468 12.2862 25.3964 13.448 25.9331 14.1574C26.435 13.8864 27.2469 13.551 28.1967 13.551C29.0506 13.551 29.85 13.8183 30.572 14.3438C31.5518 15.0568 32.1958 16.2064 32.3859 17.5798C32.5886 19.0469 32.218 20.5558 31.3935 21.6171Z" fill="white"/>
<path d="M10.8314 32.3894C10.3691 31.6561 10.2132 30.7825 10.3937 29.9302L11.4137 25.094C11.3081 25.1026 11.2038 25.1143 11.0941 25.1143C10.3523 25.1143 9.63811 24.9052 8.9713 24.4926C7.9423 23.8562 7.21552 22.7593 6.92589 21.4043C6.61647 19.9574 6.87611 18.4246 7.61968 17.3039C8.56413 15.8814 10.4692 13.7969 14.2344 11.7252L15.5135 5.66091L7.77739 4.56651C6.67583 4.41078 5.67621 5.2115 5.5275 6.30713L2.01893 32.23C1.86842 33.3434 2.63178 34.3753 3.72135 34.5298L21.0423 36.9804C21.1346 36.9933 21.2264 37 21.3169 37C22.0131 37 22.6338 36.6211 22.9918 36.0491L12.8427 33.8106C12.0079 33.6273 11.2938 33.1221 10.8314 32.3894Z" fill="white"/>
</svg>
