<svg width="40" height="40" viewBox="0 0 40 40" fill="none" xmlns="http://www.w3.org/2000/svg">
<path d="M6.90915 32.1878C6.90915 32.4032 6.99535 32.6098 7.14879 32.7621C7.30223 32.9144 7.51034 33 7.72734 33H32.2732C32.4902 33 32.6983 32.9144 32.8518 32.7621C33.0052 32.6098 33.0914 32.4032 33.0914 32.1878V29.751H6.90915V32.1878Z" fill="white"/>
<path d="M35.546 11.8816C34.8952 11.8823 34.2713 12.1393 33.8111 12.5961C33.351 13.0529 33.0921 13.6723 33.0914 14.3183C33.0953 14.4174 33.1053 14.5161 33.1214 14.6139L25.9929 18.1521L21.3037 11.5016C21.7551 11.2207 22.1022 10.8017 22.2927 10.3078C22.4831 9.81389 22.5065 9.27187 22.3593 8.76359C22.2122 8.2553 21.9024 7.80835 21.4769 7.49021C21.0513 7.17206 20.533 7 20.0003 7C19.4675 7 18.9493 7.17206 18.5237 7.49021C18.0981 7.80835 17.7884 8.2553 17.6412 8.76359C17.494 9.27187 17.5174 9.81389 17.7079 10.3078C17.8983 10.8017 18.2455 11.2207 18.6969 11.5016L14.0076 18.1521L6.87912 14.6139C6.89523 14.5161 6.90526 14.4174 6.90915 14.3183C6.91145 13.8486 6.77692 13.3882 6.52176 12.9926C6.2666 12.5969 5.90168 12.283 5.47094 12.0884C5.04021 11.8939 4.56201 11.8272 4.09394 11.8962C3.62587 11.9652 3.18787 12.1671 2.83268 12.4775C2.47749 12.7879 2.22026 13.1936 2.09195 13.6458C1.96364 14.0979 1.96973 14.5773 2.10948 15.0261C2.24923 15.4749 2.51669 15.8741 2.87964 16.1755C3.2426 16.4769 3.68558 16.6677 4.15526 16.725L6.90915 28.1265H33.0914L35.8453 16.725C36.4652 16.6507 37.033 16.3441 37.4327 15.8679C37.8323 15.3917 38.0336 14.7819 37.9954 14.1633C37.9572 13.5446 37.6823 12.9638 37.227 12.5397C36.7717 12.1156 36.1704 11.8802 35.546 11.8816Z" fill="white"/>
</svg>
