<svg width="40" height="40" viewBox="0 0 40 40" fill="none" xmlns="http://www.w3.org/2000/svg">
<path d="M34.9031 14.2094C34.2479 12.5255 33.3229 10.9797 32.1697 9.62872C29.7832 6.8307 26.451 4.87606 22.6667 4.24011C21.7979 4.09377 20.9104 4 20 4C19.0895 4 18.202 4.09377 17.3333 4.24011C13.5489 4.87606 10.2177 6.83017 7.8302 9.62765C6.67806 10.9792 5.75305 12.5245 5.09795 14.2083C4.39784 16.0063 4 17.9547 4 20C4 21.8797 4.34058 23.6755 4.9364 25.351C5.54261 27.0553 6.41866 28.6292 7.53014 30.0121C9.93333 33.0017 13.3874 35.0969 17.3333 35.7599C18.202 35.9062 19.0895 36 20 36C20.9104 36 21.7979 35.9062 22.6667 35.7599C26.6125 35.0968 30.0667 33.0016 32.4698 30.0125C33.5813 28.6297 34.4573 27.0558 35.0635 25.3516C35.6593 23.6761 36 21.8797 36 20C36 17.9552 35.602 16.0068 34.9031 14.2094ZM33.026 15.2923L30.2281 16.9073C29.698 15.1573 28.7301 13.598 27.4521 12.3521L30.276 10.7218C31.4687 12.0417 32.4083 13.5881 33.026 15.2923ZM28.5552 20C28.5552 24.7172 24.7176 28.5552 20 28.5552C15.2822 28.5552 11.4447 24.7172 11.4447 20C11.4447 15.2829 15.2823 11.4448 20 11.4448C24.7176 11.4448 28.5552 15.2829 28.5552 20ZM20 6.13334C20.9124 6.13334 21.8031 6.22765 22.6667 6.39636V9.66194C21.8125 9.44112 20.9218 9.31145 20 9.31145C19.0781 9.31145 18.1874 9.44119 17.3333 9.66194V6.39636C18.1968 6.22765 19.0874 6.13334 20 6.13334ZM9.7249 10.7214L12.5489 12.3521C11.2709 13.5974 10.3021 15.1568 9.77185 16.9067L6.9739 15.2917C7.59263 13.5875 8.53225 12.0412 9.7249 10.7214ZM6.81249 24.2678L9.65203 22.6287C10.1041 24.4073 10.9989 26.0069 12.2186 27.3053L9.40616 28.9287C8.26146 27.5719 7.37288 25.9943 6.81249 24.2678ZM20 33.8667C19.0874 33.8667 18.1968 33.7724 17.3333 33.6036V30.3381C18.1874 30.5589 19.0781 30.6885 20 30.6885C20.9218 30.6885 21.8125 30.5589 22.6667 30.3381V33.6036C21.8031 33.7724 20.9124 33.8667 20 33.8667ZM30.5926 28.9287L27.7812 27.3053C29.0009 26.0073 29.8958 24.4073 30.3478 22.6287L33.1874 24.2683C32.627 25.9943 31.7385 27.5719 30.5926 28.9287Z" fill="white"/>
<path d="M20.9041 18.8376C19.5437 18.3256 18.9843 17.9896 18.9843 17.4614C18.9843 17.0136 19.3198 16.5657 20.3603 16.5657C20.9603 16.5657 21.4479 16.6652 21.8354 16.786C22.0552 16.8542 22.2937 16.8288 22.4958 16.7162C22.6969 16.6042 22.8427 16.4141 22.9 16.1906L22.9146 16.1355C23.0447 15.6256 22.7385 15.1057 22.228 14.974C21.8364 14.8725 21.3707 14.7985 20.8083 14.7735V14.1728C20.8083 13.7645 20.5057 13.4073 20.0993 13.3692C19.6331 13.3256 19.2406 13.6919 19.2406 14.1496V14.8855C17.5282 15.2213 16.5364 16.3255 16.5364 17.7333C16.5364 19.2854 17.7041 20.0854 19.4166 20.6614C20.6 21.0614 21.1124 21.4453 21.1124 22.053C21.1124 22.6931 20.4885 23.0453 19.576 23.0453C18.9229 23.0453 18.3072 22.9125 17.7729 22.7229C17.55 22.6432 17.303 22.6625 17.0936 22.7739C16.8843 22.8854 16.7311 23.0791 16.6728 23.3094L16.6656 23.3365C16.526 23.8818 16.8405 24.4396 17.3791 24.6021C17.9072 24.7609 18.5281 24.8729 19.1603 24.9011V25.6157C19.1603 26.0486 19.5113 26.3996 19.9442 26.3996C20.3771 26.3996 20.7281 26.0486 20.7281 25.6157V24.7891C22.5677 24.4693 23.576 23.2531 23.576 21.8292C23.576 20.3897 22.8083 19.5095 20.9041 18.8376Z" fill="white"/>
</svg>
