<svg width="40" height="40" viewBox="0 0 40 40" fill="none" xmlns="http://www.w3.org/2000/svg">
<path d="M36.8881 16.0751C36.7502 15.6316 36.4728 15.2444 36.0972 14.9711C35.7215 14.6978 35.2677 14.5529 34.8031 14.5581H25.3297C25.1518 14.5589 24.9784 14.5026 24.835 14.3973C24.6916 14.2921 24.5859 14.1436 24.5334 13.9737L21.5976 4.54628C21.4583 4.09824 21.1793 3.70649 20.8014 3.42828C20.4235 3.15007 19.9665 3 19.4971 3C19.0278 3 18.5707 3.15007 18.1928 3.42828C17.8149 3.70649 17.5359 4.09824 17.3966 4.54628L14.4608 13.9737C14.4083 14.1436 14.3026 14.2921 14.1592 14.3973C14.0158 14.5026 13.8424 14.5589 13.6645 14.5581H4.19112C3.72774 14.558 3.27627 14.7049 2.90162 14.9775C2.52697 15.25 2.24842 15.6343 2.10602 16.0751C1.96362 16.5159 1.96469 16.9905 2.10909 17.4306C2.25349 17.8708 2.53377 18.2538 2.90966 18.5247L10.2679 23.8325C10.4052 23.9322 10.5089 24.0711 10.5655 24.2309C10.6221 24.3908 10.6288 24.564 10.5847 24.7278L7.70254 35.2197C7.58115 35.6628 7.60159 36.1327 7.76102 36.5636C7.92044 36.9945 8.21083 37.3646 8.59143 37.6221C8.97203 37.8795 9.42374 38.0114 9.88314 37.9992C10.3425 37.9869 10.7866 37.8312 11.1529 37.5538L18.9931 31.6096C19.1384 31.5002 19.3153 31.4411 19.4971 31.4411C19.6789 31.4411 19.8558 31.5002 20.0011 31.6096L27.8413 37.5538C28.2077 37.8313 28.6519 37.9871 29.1114 37.9992C29.571 38.0114 30.0228 37.8793 30.4034 37.6216C30.784 37.3639 31.0743 36.9935 31.2335 36.5624C31.3926 36.1313 31.4127 35.6612 31.2908 35.2181L28.4104 24.7293C28.3658 24.5655 28.3722 24.3919 28.4286 24.2317C28.485 24.0716 28.5889 23.9323 28.7263 23.8325L36.0845 18.5247C36.4644 18.2572 36.7478 17.8743 36.8925 17.433C37.0373 16.9917 37.0358 16.5155 36.8881 16.0751Z" fill="white"/>
</svg>
