<svg width="40" height="40" viewBox="0 0 40 40" fill="none" xmlns="http://www.w3.org/2000/svg">
<path d="M4.43588 36.1339C3.72545 36.7403 3.90279 37.1166 4.82686 36.9673C8.12912 36.4336 14.4504 35.2505 17.7588 33.5707C20.5841 32.1363 21.5863 34.0888 20.6341 35.5883C20.2814 36.1437 20.5168 36.4577 21.1536 36.2835C24.7999 35.2865 32.5131 32.3195 34.5987 24.7309C34.6938 24.3846 34.5327 23.9235 34.2446 23.7073L34.1251 23.6177C33.8854 23.902 33.633 24.1771 33.3668 24.4419C32.2034 25.599 30.8483 26.5076 29.3393 27.1424C27.7764 27.7999 26.1168 28.1332 24.4066 28.1332C22.6964 28.1332 21.0368 27.7999 19.4739 27.1424C17.9648 26.5076 16.6098 25.599 15.4464 24.4419C14.283 23.2849 13.3695 21.9372 12.7312 20.4363C12.0702 18.8819 11.735 17.2313 11.735 15.5303C11.735 13.8294 12.0702 12.1788 12.7312 10.6244C13.056 9.8606 13.4525 9.13672 13.9166 8.4572L13.8134 8.37977C13.4953 8.14112 12.9947 8.16461 12.7004 8.43175C11.0225 9.95482 6.09875 15.4614 4.9371 28.4426C4.87988 29.082 5.26877 29.3111 5.80704 28.9569C6.52081 28.4872 7.48683 28.1156 8.2056 28.8367C9.26216 29.8968 7.03723 33.9137 4.43588 36.1339Z" fill="white"/>
<path d="M24.4067 27.0609C27.9581 27.0609 31.136 25.472 33.2626 22.9707C34.97 20.9625 36 18.3663 36 15.5304C36 9.16235 30.8095 4 24.4067 4C20.3959 4 16.861 6.02579 14.7794 9.10458C13.538 10.9408 12.8133 13.1514 12.8133 15.5304C12.8133 21.8985 18.0038 27.0609 24.4067 27.0609ZM34.8565 16.5469C34.8614 16.5514 34.8665 16.5554 34.8716 16.5595C34.7692 17.6084 34.5097 18.6277 34.0959 19.6009C33.9617 19.9163 33.8127 20.2235 33.6496 20.5222C33.6424 20.5227 33.6352 20.5232 33.628 20.5244L29.4199 21.1473L27.4282 18.5659L28.6931 14.6941L31.743 13.6974L34.8565 16.5469ZM24.9458 8.02137L28.6297 5.96952C28.6359 5.96606 28.6418 5.96219 28.6477 5.9583C29.8401 6.48139 30.9143 7.21288 31.8419 8.13544C31.9764 8.26917 32.1064 8.40626 32.2328 8.54603C32.2312 8.55189 32.2295 8.55768 32.2283 8.56369L31.4158 12.6755L28.262 13.7061L24.9457 11.3097L24.9458 8.02137ZM26.6876 19.3675L28.5861 21.8281L26.9466 25.663C26.9438 25.6698 26.9414 25.6765 26.9391 25.6833C26.1165 25.8857 25.2696 25.9884 24.4066 25.9884C23.5436 25.9884 22.6967 25.8857 21.8741 25.6833C21.8718 25.6765 21.8695 25.6697 21.8667 25.663L20.2272 21.8281L22.1257 19.3675H26.6876ZM16.9714 8.13548C17.899 7.21288 18.9732 6.48142 20.1656 5.95833C20.1715 5.96219 20.1774 5.96609 20.1836 5.96956L23.8675 8.02134V11.3097L20.5512 13.7061L17.3975 12.6754L16.585 8.56369C16.5838 8.55772 16.5821 8.55189 16.5806 8.54603C16.7069 8.4063 16.8369 8.26921 16.9714 8.13548ZM15.1637 20.5221C15.0006 20.2235 14.8516 19.9162 14.7175 19.6008C14.3036 18.6276 14.0441 17.6084 13.9417 16.5594C13.9468 16.5553 13.952 16.5514 13.9568 16.5469L17.0703 13.6973L20.1202 14.694L21.385 18.5658L19.3933 21.1472L15.1853 20.5243C15.1781 20.5232 15.1709 20.5226 15.1637 20.5221Z" fill="white"/>
</svg>
