<svg width="40" height="40" viewBox="0 0 40 40" fill="none" xmlns="http://www.w3.org/2000/svg">
<path d="M18.2711 8.75473C18.3388 8.88312 18.4428 8.99109 18.5715 9.06656C18.7003 9.14202 18.8486 9.182 19 9.182C19.1514 9.182 19.2997 9.14202 19.4285 9.06656C19.5572 8.99109 19.6612 8.88312 19.7289 8.75473L22.1735 4.11837C22.2358 4.00057 22.2652 3.86961 22.2591 3.73796C22.2529 3.60631 22.2113 3.47835 22.1382 3.36625C22.0652 3.25416 21.9631 3.16165 21.8417 3.09755C21.7203 3.03344 21.5836 2.99986 21.4446 3H16.5554C16.4164 2.99986 16.2797 3.03344 16.1583 3.09755C16.0369 3.16165 15.9348 3.25416 15.8618 3.36625C15.7887 3.47835 15.7471 3.60631 15.7409 3.73796C15.7348 3.86961 15.7642 4.00057 15.8265 4.11837L18.2711 8.75473Z" fill="white"/>
<path d="M16.2026 15.349L9.23242 8.73935C7.31722 10.7954 6.17975 13.3984 6 16.1364H15.8563C15.9324 15.8599 16.0489 15.5949 16.2026 15.349Z" fill="white"/>
<path d="M16.2026 18.4691C16.0489 18.2233 15.9324 17.9583 15.8563 17.6818H6.00342C6.18134 20.4192 7.31937 23.0215 9.23649 25.075L16.2026 18.4691Z" fill="white"/>
<path d="M10.3888 26.1677C12.5542 27.9857 15.2985 29.0648 18.1851 29.2335V19.8902C17.8936 19.8181 17.6141 19.7075 17.3549 19.5619L10.3888 26.1677Z" fill="white"/>
<path d="M21.7974 18.4691L28.7635 25.075C30.6806 23.0215 31.8187 20.4192 31.9966 17.6818H22.1437C22.0676 17.9583 21.9511 18.2233 21.7974 18.4691Z" fill="white"/>
<path d="M18.1851 13.928V10.5798C17.5912 10.3853 17.1 9.97994 16.8148 9.44895L14.631 5.30783C13.0744 5.82891 11.6361 6.62509 10.3923 7.65421L17.3545 14.2563C17.6139 14.1106 17.8935 14.0001 18.1851 13.928Z" fill="white"/>
<path d="M19.8149 10.5795V13.928C20.1064 14.0001 20.3859 14.1106 20.6451 14.2563L27.6074 7.65421C26.3635 6.62509 24.9252 5.82891 23.3687 5.30783L21.1868 9.44594C20.9015 9.978 20.4097 10.3844 19.8149 10.5795Z" fill="white"/>
<path d="M22.1437 16.1364H32C31.8203 13.3984 30.6828 10.7954 28.7676 8.73935L21.7974 15.349C21.9511 15.5949 22.0676 15.8599 22.1437 16.1364Z" fill="white"/>
<path d="M20.6451 19.5619C20.3859 19.7075 20.1064 19.8181 19.8149 19.8902V29.2335C22.7015 29.0648 25.4458 27.9857 27.6112 26.1677L20.6451 19.5619Z" fill="white"/>
<path d="M19 18.4545C19.9001 18.4545 20.6297 17.7626 20.6297 16.9091C20.6297 16.0556 19.9001 15.3636 19 15.3636C18.0999 15.3636 17.3703 16.0556 17.3703 16.9091C17.3703 17.7626 18.0999 18.4545 19 18.4545Z" fill="white"/>
<path d="M25.802 29.2148C25.7499 29.2408 25.6944 29.2594 25.642 29.2848H25.6511C23.5589 30.199 21.3009 30.7236 19 30.8302C16.6991 30.7236 14.4411 30.199 12.3489 29.2848H12.358C12.3056 29.2594 12.2501 29.2408 12.198 29.2148L9.28367 35.9329C9.2327 36.0503 9.21299 36.1777 9.22627 36.304C9.23955 36.4302 9.28542 36.5515 9.35983 36.6569C9.43423 36.7624 9.53489 36.8489 9.65289 36.9087C9.7709 36.9685 9.90263 36.9999 10.0364 37H27.9635C28.0974 36.9999 28.2291 36.9685 28.3471 36.9087C28.4651 36.8489 28.5658 36.7624 28.6402 36.6569C28.7146 36.5515 28.7604 36.4302 28.7737 36.304C28.787 36.1777 28.7673 36.0503 28.7163 35.9329L25.802 29.2148Z" fill="white"/>
</svg>
