<svg width="40" height="40" viewBox="0 0 40 40" fill="none" xmlns="http://www.w3.org/2000/svg">
<path d="M20 3C10.6112 3 3 10.6112 3 20C3 29.3888 10.6112 37 20 37C29.3888 37 37 29.3888 37 20C37 10.6112 29.3888 3 20 3ZM20 29.2554C14.8889 29.2554 10.7452 25.1117 10.7452 20C10.7452 14.8883 14.8889 10.7446 20 10.7446C25.1111 10.7446 29.2548 14.8883 29.2548 20C29.2548 25.1117 25.1111 29.2554 20 29.2554Z" fill="white"/>
<path d="M22.0054 19.5236V19.4555C23.8194 18.5939 24.4316 17.2563 24.4316 16.0095C24.4316 14.1729 23.0027 12.3821 20.1461 12.3821C17.5617 12.3821 15.5895 13.9687 15.5895 16.304C15.5895 17.5735 16.2923 18.8435 17.9248 19.6144L17.947 19.6824C16.1341 20.4533 15.0229 21.7682 15.0229 23.6269C15.0229 25.7808 16.8822 27.6174 19.9657 27.6174C22.7769 27.6174 24.9761 25.8942 24.9761 23.3325C24.976 21.5412 23.8415 20.249 22.0054 19.5236ZM17.4711 16.1679C17.4711 14.8983 18.3786 13.8104 20.0332 13.8104C21.824 13.8104 22.5268 15.0345 22.5268 16.2132C22.5268 17.5514 21.5516 18.4578 20.2822 18.8888C18.5822 18.435 17.4711 17.6415 17.4711 16.1679ZM20.01 26.1663C18.1284 26.1663 16.9951 24.851 17.0638 23.3551C17.0638 21.949 17.9923 20.8157 19.7156 20.3171C21.7111 20.8838 22.9573 21.7453 22.9573 23.5361C22.9573 25.0551 21.8018 26.1663 20.01 26.1663Z" fill="white"/>
</svg>
