<svg width="40" height="40" viewBox="0 0 40 40" fill="none" xmlns="http://www.w3.org/2000/svg">
<path d="M35.0367 13.132C35.4845 13.132 35.8897 12.9507 36.1832 12.6572C36.4766 12.3638 36.658 11.9586 36.658 11.511C36.658 10.6157 35.9321 9.89034 35.0367 9.89034C34.1413 9.89034 33.4154 10.6161 33.4154 11.511C33.4154 12.4062 34.1412 13.132 35.0367 13.132Z" fill="white"/>
<path d="M11.4784 30.1175C10.6399 30.1175 9.96048 30.7973 9.96048 31.6352C9.96048 32.4732 10.6403 33.153 11.4784 33.153C12.3165 33.153 12.9964 32.4736 12.9964 31.6352C12.9964 30.797 12.3169 30.1175 11.4784 30.1175Z" fill="white"/>
<path d="M34.3121 14.0124V27.0905H35.7613V14.0124C35.5422 14.1228 35.2986 14.1907 35.0367 14.1907C34.7747 14.1907 34.5311 14.1223 34.3121 14.0124Z" fill="white"/>
<path d="M24.0258 30.1175C23.1873 30.1175 22.5078 30.7973 22.5078 31.6352C22.5078 32.4732 23.1873 33.153 24.0258 33.153C24.8643 33.153 25.5437 32.4736 25.5437 31.6352C25.5436 30.797 24.8642 30.1175 24.0258 30.1175Z" fill="white"/>
<path d="M31.4094 3H3.84765C3.37938 3 3 3.37932 3 3.84753V37H32.2575V3.84753C32.2571 3.37932 31.8777 3 31.4094 3ZM22.8083 5.06702C23.5132 5.06702 24.0845 5.63815 24.0845 6.34298C24.0845 7.04782 23.5132 7.61894 22.8083 7.61894C22.1035 7.61894 21.5322 7.04782 21.5322 6.34298C21.5323 5.63815 22.1035 5.06702 22.8083 5.06702ZM17.7521 4.06132C19.012 4.06132 20.0336 5.08277 20.0336 6.34247C20.0336 7.60217 19.012 8.62362 17.7521 8.62362C16.4922 8.62362 15.4706 7.60217 15.4706 6.34247C15.4706 5.08277 16.4922 4.06132 17.7521 4.06132ZM12.6959 5.06702C13.4007 5.06702 13.972 5.63815 13.972 6.34298C13.972 7.04782 13.4007 7.61894 12.6959 7.61894C11.991 7.61894 11.4197 7.04782 11.4197 6.34298C11.4202 5.63815 11.9914 5.06702 12.6959 5.06702ZM11.4784 34.0329C10.1541 34.0329 9.08083 32.9598 9.08083 31.6357C9.08083 30.3116 10.1545 29.2384 11.4784 29.2384C12.8027 29.2384 13.876 30.312 13.876 31.6357C13.876 32.9594 12.8027 34.0329 11.4784 34.0329ZM17.7521 34.0329C16.4278 34.0329 15.3545 32.9598 15.3545 31.6357C15.3545 30.3116 16.4278 29.2384 17.7521 29.2384C19.0764 29.2384 20.1497 30.312 20.1497 31.6357C20.1497 32.9594 19.0764 34.0329 17.7521 34.0329ZM24.0258 34.0329C22.7015 34.0329 21.6282 32.9598 21.6282 31.6357C21.6282 30.3116 22.7015 29.2384 24.0258 29.2384C25.3501 29.2384 26.4234 30.312 26.4234 31.6357C26.4233 32.9594 25.35 34.0329 24.0258 34.0329ZM30.4072 25.9911H5.09702V9.78648H30.4071V25.9911H30.4072Z" fill="white"/>
<path d="M17.7521 30.1175C16.9136 30.1175 16.2342 30.7973 16.2342 31.6352C16.2342 32.4732 16.914 33.153 17.7521 33.153C18.5906 33.153 19.27 32.4736 19.27 31.6352C19.27 30.797 18.5906 30.1175 17.7521 30.1175Z" fill="white"/>
<path d="M12.6963 11.2424H6.13308V24.5128H12.6963V11.2424ZM11.8499 16.7259C11.8491 16.7259 11.8486 16.7259 11.8482 16.7259C11.8482 16.7351 11.8499 16.7426 11.8499 16.7518C11.8499 18.3076 9.52335 18.8757 10.4599 21.0903H7.93841C7.61996 19.1039 10.3912 18.082 10.5782 17.0011C10.3049 17.1075 10.0341 17.2047 9.63116 17.2047C8.80541 17.2047 8.72481 16.8009 7.609 16.7361V17.521H6.97902V15.7502H7.609V15.7598C8.72481 15.8251 8.80541 16.2285 9.63116 16.2285C10.5288 16.2285 10.7684 15.7497 11.85 15.7497V16.7259H11.8499Z" fill="white"/>
<path d="M35.6285 27.9477H33.1955V34.6899H35.6285C37.4908 34.6899 39 33.1806 39 31.319C39.0003 29.4571 37.4908 27.9477 35.6285 27.9477Z" fill="white"/>
<path d="M28.9527 11.2424H22.3895V24.5128H28.9527V11.2424ZM28.1064 16.7259C28.1055 16.7259 28.1051 16.7259 28.1046 16.7259C28.1046 16.7351 28.1064 16.7426 28.1064 16.7518C28.1064 18.3076 25.7798 18.8757 26.7163 21.0903H24.1948C23.8763 19.1039 26.6475 18.082 26.8346 17.0011C26.5612 17.1075 26.2905 17.2047 25.8875 17.2047C25.0618 17.2047 24.9812 16.8009 23.8654 16.7361V17.521H23.2354V15.7502H23.8654V15.7598C24.9812 15.8251 25.0622 16.2285 25.8875 16.2285C26.7851 16.2285 27.0248 15.7497 28.1064 15.7497V16.7259Z" fill="white"/>
<path d="M20.8243 11.2424H14.2611V24.5128H20.8243V11.2424ZM19.9784 16.7259C19.9775 16.7259 19.9771 16.7259 19.9766 16.7259C19.9766 16.7351 19.9784 16.7426 19.9784 16.7518C19.9784 18.3076 17.6518 18.8757 18.5884 21.0903H16.0668C15.7483 19.1039 18.5196 18.082 18.7066 17.0011C18.4333 17.1075 18.1625 17.2047 17.7595 17.2047C16.9342 17.2047 16.8532 16.8009 15.7374 16.7361V17.521H15.1074V15.7502H15.7374V15.7598C16.8532 15.8251 16.9342 16.2285 17.7595 16.2285C18.6572 16.2285 18.8968 15.7497 19.9784 15.7497V16.7259Z" fill="white"/>
</svg>
