<svg width="40" height="40" viewBox="0 0 40 40" fill="none" xmlns="http://www.w3.org/2000/svg">
<path d="M33.3589 12.3573C31.6769 9.74033 29.3126 7.65537 26.5219 6.32745C26.3444 6.24299 26.1804 6.20192 26.0206 6.20192C25.8043 6.20192 25.0988 6.29413 25.0988 7.47947V9.44433C25.0988 10.4404 25.7007 10.8959 25.8852 11.0118C29.4675 13.2622 31.6062 17.1352 31.6062 21.3719C31.6062 28.0991 26.1753 33.5721 19.4999 33.5721C12.8245 33.5721 7.39373 28.0991 7.39373 21.3719C7.39373 17.0689 9.58423 13.1644 13.2534 10.9273C13.745 10.6277 14.0046 10.1053 14.0046 9.41666V7.42412C14.0046 6.54309 13.447 6.23048 12.9695 6.23048C12.7812 6.23048 12.5804 6.2772 12.4045 6.36199C9.63322 7.69765 7.28685 9.78251 5.6191 12.3913C3.90566 15.0715 3 18.1768 3 21.3719C3 30.5406 10.4019 38 19.5 38C28.5981 38 36 30.5406 36 21.3719C36 18.1626 35.0868 15.0453 33.3589 12.3573Z" fill="white"/>
<path d="M18.3985 14.9515H20.7052C21.3109 14.9515 21.8036 14.4549 21.8036 13.8445V3.10696C21.8036 2.49658 21.3109 2 20.7052 2H18.3985C17.7928 2 17.3001 2.49658 17.3001 3.10696V13.8445C17.3001 14.4549 17.7927 14.9515 18.3985 14.9515Z" fill="white"/>
</svg>
