<svg width="175" height="100" viewBox="0 0 175 100" fill="none" xmlns="http://www.w3.org/2000/svg">
<rect width="175" height="100" fill="url(#paint0_linear_175_738)"/>
<path fill-rule="evenodd" clip-rule="evenodd" d="M94.7937 0L92.6937 2.10658L97.8363 8.73923C89.755 13.6523 73.8864 29.2268 75.0619 52.22C76.2373 75.2132 90.7346 85.8745 97.8363 88.3311L92.6937 98.6485L97.0049 100H105.506L108.122 94.2268C115.713 96.192 132.806 98.9433 140.447 94.2268L143.063 100H148.772L154.405 97.1746L152.201 88.3311C159.793 82.4354 174.535 65.6327 172.772 45.5873H157.344V55.1678H161.752C160.527 61.3092 155.287 75.0658 144.12 80.9615C140.936 77.5223 135.304 67.5488 138.243 55.1678H147.058V73.5918L154.405 63.2744V33.059L147.058 27.1633V43.3764H138.243C137.753 37.7502 138.83 25.0095 147.058 19.0567C150.242 20.7763 157.344 27.3107 160.282 39.6916H172.772C171.792 31.8307 166.307 14.6349 152.201 8.73923L157.344 2.10658L154.077 0H143.549L141.916 2.10658C139.859 1.39232 136.831 0.585759 133.277 0H114.791C112.492 0.464922 110.243 1.14892 108.122 2.10658L106.212 0H94.7937ZM111.06 14.6349C114.733 13.161 125.313 11.0975 138.243 14.6349C135.059 18.811 128.692 31.2903 128.692 47.7982C128.692 64.3061 134.08 78.7506 136.773 83.9093C133.1 86.6115 123.256 90.3946 113.264 83.9093C115.713 77.5223 120.611 61.3583 120.611 47.7982C120.611 34.2381 114.244 20.0393 111.06 14.6349ZM100.775 19.0567C103.469 20.5306 109.297 27.458 111.06 43.3764H100.775V27.1633L92.6937 36.0068V61.8005L100.775 73.5918V55.1678H111.06C110.081 61.3092 107.387 75.0658 104.448 80.9615C102.979 80.9615 90.4897 73.5918 87.5511 56.6417C84.6125 39.6916 93.4283 23.4785 100.775 19.0567Z" fill="#00B167"/>
<defs>
<linearGradient id="paint0_linear_175_738" x1="-34.9044" y1="115.625" x2="216.002" y2="8.13269" gradientUnits="userSpaceOnUse">
<stop stop-color="#00A560"/>
<stop offset="1" stop-color="#00EA88"/>
</linearGradient>
</defs>
</svg>
