<svg width="175" height="100" viewBox="0 0 175 100" fill="none" xmlns="http://www.w3.org/2000/svg">
<rect width="175" height="100" fill="url(#paint0_linear_175_764)"/>
<path d="M132.254 0L130.693 7.11457H80.5839C73.8192 7.11457 58.536 15.7398 58.536 30.707C58.536 45.6743 69.56 56.8363 78.0785 56.8363H116.662C119.669 56.8363 121.924 61.1489 121.924 64.1931C121.924 67.2373 118.667 68.7594 114.407 68.7594H60.2898L51.9167 100H71.3824L74.3203 88.0393H124.93C130.693 88.0393 146.978 78.3994 146.978 64.1931C146.978 49.9869 138.209 38.3175 124.93 38.3175H89.6035C85.5948 38.3175 83.0894 34.766 83.0894 30.707C83.0894 26.6481 89.1025 26.1408 95.6166 26.1408H143.972L151.963 0H132.254Z" fill="#005FA8"/>
<defs>
<linearGradient id="paint0_linear_175_764" x1="-34.9044" y1="115.625" x2="216.002" y2="8.13269" gradientUnits="userSpaceOnUse">
<stop stop-color="#004A8C"/>
<stop offset="1" stop-color="#0292D8"/>
</linearGradient>
</defs>
</svg>
