<svg width="168" height="96" viewBox="0 0 168 96" fill="none" xmlns="http://www.w3.org/2000/svg">
<rect width="168" height="96" fill="url(#paint0_linear_175_780)"/>
<path d="M86.0195 65.3069C81.4579 63.7973 80.2597 59.6907 80.2205 57.7287C80.352 68.3944 88.0002 71.0649 91.8196 71.0648C92.1418 73.3041 93.173 77.3987 94.7196 75.8632C96.653 73.9439 106.32 73.9439 108.253 82.581C110.186 91.218 99.553 90.2583 90.8529 87.3793C82.1529 84.5004 71.5196 78.7422 64.7529 58.5891C59.3395 42.4666 63.1418 26.9199 65.7195 21.1619C65.3973 22.1216 64.7529 25.0006 64.7529 28.8393C64.7529 32.6779 67.3306 40.6752 68.6195 44.194C68.2973 42.9144 67.8462 38.0521 68.6195 28.8393C69.3928 19.6264 76.6751 11.5651 80.2195 8.68606L74.4195 28.8393C75.064 27.2398 77.8995 21.5458 84.0862 11.5651C87.5808 5.92756 94.431 2.24962 100.445 0H104.71C101.316 1.9123 97.7424 4.32257 95.6863 5.80709C98.586 3.95643 104.548 1.15408 111.518 0H123.467C123.551 0.0159574 123.635 0.0323066 123.72 0.0490515C132.802 1.85241 139.988 7.04455 143.378 9.49332C145.399 10.954 146.07 11.4386 144.986 9.64579C143.312 6.87536 139.523 2.93858 136.454 0H140.498C144.483 2.22721 149.293 5.89451 153.686 11.5651C163.353 24.0409 165.286 46.1134 160.453 65.3069C155.62 84.5003 125.653 95.0567 132.42 91.218C136.927 88.6609 143.088 81.4905 146.884 76.5769C148.073 75.1845 148.67 74.3068 148.853 73.9439C148.314 74.6933 147.647 75.5895 146.884 76.5769C145.977 77.639 144.726 79.0006 143.053 80.6616C139.186 84.5003 128.553 86.7396 123.72 87.3793C128.875 84.5003 138.413 79.1261 135.32 80.6616C132.226 82.1971 125.009 82.581 121.786 82.581C125.009 80.9815 133 76.0552 139.186 69.1455C146.92 60.5085 147.886 43.2344 147.886 41.315V33.6377L144.986 28.8393H147.886C148.209 27.8796 148.853 25.5764 148.853 24.0409C148.853 23.2485 147.7 23.274 146.209 23.3069C144.089 23.3538 141.288 23.4157 140.153 21.1619C138.22 17.3232 125.653 2.9281 106.32 7.72647C90.8529 11.5652 83.764 26.6001 82.1529 33.6377L83.1195 24.0409C81.8306 26.9199 79.4462 35.3651 80.2195 46.1134C80.9928 56.8618 84.4084 63.3875 86.0195 65.3069Z" fill="#7F2AD5"/>
<path d="M95.6863 24.0409C97.6196 23.0812 101.293 22.5054 100.52 27.8796C99.7463 33.2538 96.9752 39.7155 95.6863 42.2746H100.52C102.131 37.4762 105.546 27.4956 106.32 25.9602C107.286 24.0409 113.086 24.0409 112.12 27.8796C111.817 29.0832 111.133 30.9472 110.338 33.1167C108.597 37.8664 106.32 44.0801 106.32 48.0327V55.7101H108.253V59.5488C108.253 60.3165 106.964 61.1482 106.32 61.4681L93.753 59.5488L95.6863 55.7101L99.553 53.7907L100.52 47.073C97.9419 47.3929 92.2063 48.0327 89.8863 48.0327H85.0529C85.6974 46.7531 87.5663 43.6182 89.8863 41.315C91.9415 39.2746 92.5402 36.2701 93.0587 33.6681C93.2718 32.5986 93.4714 31.5972 93.753 30.7586C94.5263 28.4554 95.3641 25.3205 95.6863 24.0409Z" fill="#7F2AD5"/>
<path d="M116.953 41.315C118.886 41.315 120.82 39.3956 121.786 34.5972C122.753 29.7989 133.386 27.8795 134.353 34.5972C135.32 41.315 134.353 50.9117 131.453 52.8311C129.133 54.3666 125.975 54.7504 124.686 54.7504C126.62 52.1913 130.486 45.9213 130.486 41.315C130.486 35.557 129.52 32.6779 128.553 32.6779C128.41 32.6779 128.288 32.6779 128.174 32.7093C127.523 32.8891 127.156 34.1016 124.686 42.2747C121.786 51.8714 117.92 53.7908 115.02 54.7504C112.12 55.7101 118.886 62.4278 128.553 59.5488C138.22 56.6698 142.086 46.1134 141.12 38.436C140.153 30.7586 133.386 21.1619 124.686 25.9602C117.726 29.7989 116.631 37.7962 116.953 41.315Z" fill="#7F2AD5"/>
<defs>
<linearGradient id="paint0_linear_175_780" x1="209" y1="4.99999" x2="84" y2="96" gradientUnits="userSpaceOnUse">
<stop stop-color="#A95FF2"/>
<stop offset="1" stop-color="#8B29EC"/>
</linearGradient>
</defs>
</svg>
