<svg width="175" height="100" viewBox="0 0 175 100" fill="none" xmlns="http://www.w3.org/2000/svg">
<rect width="175" height="100" fill="url(#paint0_linear_175_756)"/>
<path fill-rule="evenodd" clip-rule="evenodd" d="M75.5154 0C77.4119 3.46734 78.7156 6.69588 79.9229 9.68561C80.7207 11.6614 81.4764 13.5328 82.3333 15.3C85.237 21.2886 85.9629 36.5095 85.9629 43.3714C87.7777 40.8762 95.3999 35.1371 111.37 32.1428C127.341 29.1485 145.852 33.3905 153.111 35.8857L149.481 26.5285L157.199 0H151.787L145.852 15.3L143.569 0H128.228L116.815 15.3C113.435 11.466 108.166 5.25616 104.175 0H88.9426C88.3768 7.5615 87.7777 14.7175 87.7777 11.557C87.7777 9.30377 84.1237 4.75831 79.5653 0H75.5154ZM144.537 100C155.183 92.6053 162.185 80.0602 162.185 65.8286C162.185 54.9919 158.125 45.1331 151.488 37.7814C126.209 29.0701 102.646 36.4711 87.7873 45.0433C84.3206 51.144 82.3333 58.247 82.3333 65.8286C82.3333 80.0602 89.3357 92.6053 99.9814 100H144.537ZM149.481 77.0572C153.111 63.9572 149.481 41.5 127.704 52.7286C120.444 60.2143 120.444 78.9286 125.889 86.4143C131.333 93.9 145.852 90.1572 149.481 77.0572ZM125.889 62.7169V58.7653H132.599V76.908H128.287V62.7169H125.889ZM137.274 59.7843C136.208 60.7453 135.643 62.1122 135.578 63.885H139.624C139.672 63.3217 139.842 62.8495 140.133 62.4684C140.439 62.0873 140.9 61.8968 141.513 61.8968C142.079 61.8968 142.523 62.0625 142.846 62.3939C143.169 62.7252 143.33 63.1892 143.33 63.7856C143.33 64.5312 143.072 65.0531 142.555 65.3514C142.054 65.633 141.392 65.7739 140.569 65.7739H139.793V69.2284H140.569C141.651 69.2284 142.434 69.4107 142.918 69.7752C143.419 70.1231 143.669 70.6947 143.669 71.49C143.669 72.1031 143.492 72.6001 143.137 72.9812C142.797 73.3457 142.313 73.528 141.683 73.528C140.94 73.528 140.375 73.3209 139.987 72.9067C139.6 72.4759 139.398 71.896 139.382 71.1669H135.36C135.425 73.1386 136.03 74.6132 137.177 75.5908C138.34 76.5683 139.89 77.0571 141.828 77.0571C143.04 77.0571 144.081 76.8334 144.953 76.3861C145.842 75.9387 146.512 75.3257 146.964 74.547C147.432 73.7517 147.667 72.8404 147.667 71.8131C147.667 70.6699 147.4 69.7338 146.867 69.0047C146.334 68.2757 145.607 67.7538 144.687 67.439V67.3396C145.398 67.0911 146.019 66.6271 146.552 65.9478C147.085 65.2519 147.352 64.3572 147.352 63.2637C147.352 62.3359 147.126 61.4991 146.673 60.7536C146.237 60.008 145.583 59.4198 144.711 58.989C143.855 58.5582 142.822 58.3428 141.61 58.3428C139.785 58.3428 138.34 58.8233 137.274 59.7843Z" fill="#E18C0E"/>
<defs>
<linearGradient id="paint0_linear_175_756" x1="-34.9044" y1="115.625" x2="216.002" y2="8.13269" gradientUnits="userSpaceOnUse">
<stop stop-color="#DB8607"/>
<stop offset="1" stop-color="#FFAC31"/>
</linearGradient>
</defs>
</svg>
