<svg width="175" height="100" viewBox="0 0 175 100" fill="none" xmlns="http://www.w3.org/2000/svg">
<rect width="175" height="100" fill="url(#paint0_linear_175_549)"/>
<path d="M75.7859 100H70.1907C70.0286 96.5534 69.7122 93.3732 69.4329 91.2677C73.2621 86.267 81.3831 75.3631 83.2332 71.7536C85.0834 68.144 86.5939 63.2209 87.1179 61.2105C83.3617 58.9054 75.5545 53.5364 74.3755 50.5012C70.5639 53.7385 61.1192 60.9506 53.8336 63.9012C44.7265 67.5894 28.8175 71.2096 17.5187 67.3174C8.47958 64.2037 6.23996 61.4099 6.25003 60.4022C13.5282 63.2464 30.9729 67.3008 42.5272 60.7648C48.0708 57.6289 53.9907 50.2653 60.422 42.2655C70.7463 29.4234 82.3885 14.9419 95.9073 13.6798C115.483 11.8523 130.661 28.634 136.893 35.5254C137.646 36.3578 138.268 37.0459 138.752 37.5394C143.242 42.1194 147.043 39.8899 150.089 37.6528C152.525 35.8631 156.168 34.4382 157.684 33.9494C155.17 33.4204 149.853 30.9989 148.698 25.5453C151.704 27.3389 158.017 30.9294 159.226 30.9414C160.738 30.9565 169.799 31.803 173.541 35.6196C173.989 36.0772 174.481 36.5134 175 36.9308V47.7956C174.383 47.8356 173.679 47.894 172.917 47.9573C169.11 48.2733 163.843 48.7105 160.572 47.5836C158.518 51.3423 152.894 59.4493 146.824 61.8073C142.924 63.3221 139.787 68.4377 136.836 73.2501C134.045 77.8019 131.42 82.0823 128.474 82.7877C123.944 83.8721 124.501 82.8967 125.718 80.7636C126.129 80.0424 126.616 79.1889 127.008 78.2379C128.247 75.2269 128.612 68.9318 128.64 66.1606C126.882 65.6392 122.159 64.2818 117.334 63.0242C112.087 61.6567 103.322 68.8347 95.6131 75.1485C94.4608 76.0922 93.332 77.0167 92.2421 77.8904C90.6189 79.1916 89.0535 80.38 87.5785 81.4998C81.437 86.1623 76.8613 89.636 76.1971 95.1146C76.0416 96.3967 75.9091 98.0828 75.7859 100Z" fill="#E79214"/>
<defs>
<linearGradient id="paint0_linear_175_549" x1="-34.9044" y1="115.625" x2="216.002" y2="8.13265" gradientUnits="userSpaceOnUse">
<stop stop-color="#DE8807"/>
<stop offset="1" stop-color="#FBAA30"/>
</linearGradient>
</defs>
</svg>
