<svg width="175" height="100" viewBox="0 0 175 100" fill="none" xmlns="http://www.w3.org/2000/svg">
<rect width="175" height="100" fill="url(#paint0_linear_175_708)"/>
<path fill-rule="evenodd" clip-rule="evenodd" d="M123.831 0C123.76 0.882103 123.821 1.80698 124.05 2.76789C124.406 4.26069 125.059 6.02232 125.778 7.96266C128.672 15.7708 132.638 26.473 122.621 34.1966C110.114 43.8395 109.042 45.268 109.399 51.6966C109.685 56.8395 111.662 61.2205 112.615 62.7681C109.637 60.2681 103.538 52.8395 102.967 43.1252C102.395 33.4108 105.587 26.6965 107.255 24.5537C105.706 25.8632 102.466 29.8394 101.895 35.268C101.18 42.0537 101.895 53.8395 110.471 62.7681C106.659 60.6252 98.0353 53.9109 94.0331 44.1966C89.0302 32.0537 90.1023 9.91077 104.039 0.267887C104.169 0.177805 104.299 0.0885109 104.429 0H123.831ZM111.9 17.0537L108.327 14.1965L109.399 18.1251L105.468 20.6251L109.399 21.3394L110.471 25.9823L112.615 22.4108H116.546L114.402 18.8394L115.116 14.9108L111.9 17.0537Z" fill="#CA1919"/>
<path fill-rule="evenodd" clip-rule="evenodd" d="M175 36.5374C173.88 35.5233 172.685 34.5207 171.413 33.5425C157.98 23.2115 136.55 28.9334 126.5 37.3934C118.461 44.1614 114.688 54.4157 113.806 58.6968C119.704 47.8137 130.719 43.5446 137.404 42.1587C142.751 41.05 147.527 42.9236 149.247 43.999C146.697 43.064 139.326 42.0695 130.242 45.5718C121.158 49.074 115.935 57.1418 114.459 60.7379C115.644 59.3595 119.217 56.1432 124.031 54.305C130.049 52.0074 131.737 52.5929 144.736 61.5632C155.147 68.748 164.139 61.7131 170.699 56.5806C172.278 55.3451 173.717 54.2198 175 53.4296V36.5374ZM157.809 46.1377L159.444 41.8659L156.027 44.0827L152.447 41.1019L152.963 45.0614L148.865 47.4957L152.921 48.4493L154.118 52.1913L156.869 49.0628L160.831 48.5469L157.809 46.1377Z" fill="#CA1919"/>
<path d="M162.138 100C160.924 87.912 152.779 76.1225 144.83 70.6463C136.175 64.684 125.283 63.755 120.919 64.0358C132.979 66.8469 140.008 76.3372 143.111 82.415C145.593 87.2772 145.046 92.376 144.463 94.3175C144.692 91.6125 143.705 84.2444 137.926 76.4127C132.147 68.581 122.982 65.6771 119.121 65.2042C120.765 65.9822 124.812 68.5772 127.857 72.7326C131.664 77.9268 131.545 79.7085 126.321 94.6075C125.646 96.5339 125.318 98.3268 125.272 100H139.654L141.138 99.0348L140.987 94.8726L144.419 98.1804L148.104 96.6371L146.571 100H162.138Z" fill="#CA1919"/>
<path d="M118.178 100C119.341 97.5984 120.214 95.2165 120.754 92.9745C123.214 82.7606 120.17 72.267 118.341 68.297C120.046 80.556 113.708 90.5202 109.147 95.597C107.197 97.7671 104.874 99.1548 102.824 100H118.178Z" fill="#CA1919"/>
<path d="M101.143 100C104.324 98.2894 108.968 94.7468 112.89 88.605C118.128 80.4022 117.549 70.8105 116.604 67.04C116.468 68.8521 115.498 73.5594 112.711 77.8922C109.228 83.3082 107.521 83.8368 91.7319 84.3144C80.9564 84.6404 77.1346 92.6699 74.8547 100H89.5115L89.7349 97.421L92.9185 99.7254L96.7511 98.0898L95.943 100H101.143Z" fill="#CA1919"/>
<path fill-rule="evenodd" clip-rule="evenodd" d="M61.0792 37.1845C54.9443 36.5167 52.3319 30.1524 51.7926 27.0537C50.3935 30.9787 48.4778 42.1002 52.0073 55.1857C56.4192 71.5427 76.93 79.9829 90.0541 79.3478C100.553 78.8398 109.776 72.9738 113.075 70.1043C101.781 75.1823 90.4327 71.9 84.2768 68.95C79.352 66.5899 76.6915 62.2052 75.9769 60.3079C77.437 62.597 82.6942 67.8557 92.0422 70.5774C101.39 73.2991 110.439 70.0503 113.794 68.0857C112.016 68.4635 107.223 68.8549 102.28 67.3981C96.1006 65.5772 95.1139 64.0885 90.2223 49.0773C86.3043 37.0539 74.886 37.1969 66.5553 37.3012C64.4851 37.3271 62.6056 37.3506 61.0792 37.1845ZM66.5746 55.8228L70.4668 53.4173L69.5263 49.6703L72.9893 51.6616L77.0751 50.8415L75.756 54.5423L78.4027 57.7594L73.6668 57.2106L71.6744 60.6716L70.6372 56.1319L66.5746 55.8228Z" fill="#CA1919"/>
<defs>
<linearGradient id="paint0_linear_175_708" x1="-34.9044" y1="115.625" x2="216.002" y2="8.13269" gradientUnits="userSpaceOnUse">
<stop stop-color="#C21617"/>
<stop offset="1" stop-color="#EF2726"/>
</linearGradient>
</defs>
</svg>
