<svg width="26" height="29" viewBox="0 0 26 29" fill="none" xmlns="http://www.w3.org/2000/svg">
<path d="M24.6519 5.98182C25.3309 5.98182 25.8805 5.44091 25.8805 4.77273V1.20909C25.8805 0.540909 25.3309 0 24.6519 0H1.50266C0.85603 0 0.306396 0.540909 0.306396 1.20909V4.77273C0.306396 5.44091 0.85603 5.98182 1.53499 5.98182H5.18843V18.4864C5.18843 19.4727 5.99672 20.2682 6.99899 20.2682H11.9134V22.05C11.9134 23.4818 12.9156 24.6909 14.3382 24.9773V27.4273C14.3382 28.0955 14.8878 28.6364 15.5668 28.6364H24.6843C25.3632 28.6364 25.9128 28.0955 25.9128 27.4273V13.4909C25.9128 12.6955 25.5895 11.9318 25.0076 11.3909L20.9985 7.47727V5.98182H24.6519ZM1.50266 4.77273V1.20909H24.6196V4.77273H20.9985V3.56364H22.2271V2.38636H3.95984V3.59545H5.18843V4.77273H1.50266ZM6.3847 18.4864V3.59545H19.8022V13.7136H19.1233L16.7307 11.3591C16.2458 10.8818 15.4698 10.8818 15.0172 11.3591L14.5969 11.7727C14.0149 12.3455 13.6916 13.0773 13.6916 13.8727C13.6916 14.6682 14.0149 15.4318 14.5969 15.9727L17.3774 18.7409V19.0909H6.96666C6.64335 19.0909 6.3847 18.8045 6.3847 18.4864ZM24.1023 12.2182C24.4579 12.5682 24.6519 13.0136 24.6519 13.4909V27.4273H15.5345V24.9773C15.5345 24.4045 15.1142 23.9273 14.5645 23.8C13.7239 23.6091 13.1096 22.8773 13.1096 22.05V20.2682H17.345C17.345 21.9227 18.703 23.2591 20.3842 23.2591V22.05C19.3819 22.05 18.5736 21.2545 18.5736 20.2682V18.4864C18.5736 18.3273 18.509 18.1682 18.3796 18.0727L15.4052 15.1455C15.1465 14.8909 14.9525 14.5727 14.8878 14.2227C14.7909 13.65 14.9848 13.0455 15.4052 12.6318L15.8255 12.2182L18.412 14.7636C18.5413 14.8909 18.6706 14.9545 18.8323 14.9545H20.3519C20.6752 14.9545 20.9661 14.7 20.9661 14.35V9.16364L24.1023 12.2182Z" fill="white"/>
<path d="M10.8463 7.25454C10.8463 6.55454 11.2666 5.94999 11.7515 5.94999C12.0102 5.94999 12.2042 5.75908 12.2042 5.50454C12.2042 5.24999 12.0102 5.05908 11.7515 5.05908C10.8786 5.05908 10.1673 5.82272 10.0056 6.80908H9.52067C9.26202 6.80908 9.06803 6.99999 9.06803 7.25454C9.06803 7.50908 9.26202 7.69999 9.52067 7.69999H10.0056C10.1673 8.68635 10.8786 9.44999 11.7515 9.44999C12.7215 9.44999 13.5298 8.46363 13.5298 7.25454C13.5298 6.55454 13.9501 5.94999 14.435 5.94999C14.92 5.94999 15.3403 6.55454 15.3403 7.25454C15.3403 7.95454 14.8877 8.5909 14.4027 8.5909C14.1441 8.5909 13.9501 8.78181 13.9501 9.03635C13.9501 9.2909 14.1441 9.48181 14.4027 9.48181C15.2757 9.48181 15.9869 8.71817 16.1486 7.73181H16.6336C16.8922 7.73181 17.0862 7.5409 17.0862 7.28635C17.0862 7.03181 16.8922 6.8409 16.6336 6.8409H16.1486C15.9869 5.85454 15.2757 5.0909 14.4027 5.0909C13.4328 5.0909 12.6245 6.07726 12.6245 7.28635C12.6245 7.98635 12.2042 8.5909 11.7192 8.5909C11.2666 8.5909 10.8463 7.98635 10.8463 7.25454Z" fill="white"/>
</svg>
