<svg width="29" height="28" viewBox="0 0 29 28" fill="none" xmlns="http://www.w3.org/2000/svg">
<path d="M28.5788 13.9961C28.3576 13.4052 27.852 12.9697 27.2517 12.7831C26.6513 12.5965 25.9877 12.6587 25.4505 13.0008L23.9654 13.965C23.9654 11.0103 22.1327 7.83782 19.6364 6.40711C19.7944 6.2516 19.8892 6.06498 19.9524 5.84726C20.2368 4.9764 19.7628 4.07442 18.8781 3.7634C18.8465 3.7634 18.8149 3.7323 18.7833 3.7323L20.2368 1.2441C20.3316 1.08859 20.3316 0.933074 20.2684 0.777562C20.2052 0.622049 20.0788 0.49764 19.9208 0.466537C18.8781 0.155512 17.8037 0 16.7294 0C15.655 0 14.5807 0.155512 13.5695 0.435435C13.4115 0.466537 13.2851 0.590947 13.2219 0.746459C13.1587 0.901972 13.1587 1.08859 13.2535 1.2441L14.6755 3.7634C14.6439 3.7634 14.6123 3.7945 14.5807 3.7945C13.6959 4.07442 13.2219 5.0075 13.5063 5.87837C13.5695 6.09608 13.6959 6.2827 13.8223 6.43821C11.2944 7.86893 9.49333 11.0725 9.49333 13.9961C9.49333 14.0894 9.49333 14.1516 9.49333 14.2449C8.51378 14.5249 7.56582 14.9914 6.80746 15.6756L5.13274 17.1064L4.91155 16.8886C4.69037 16.6709 4.34278 16.6709 4.12159 16.8886L0.456175 20.4965C0.234986 20.7142 0.234986 21.0564 0.456175 21.2741L7.12345 27.8367C7.34463 28.0544 7.69222 28.0544 7.91341 27.8367L11.5788 24.2288C11.8 24.0111 11.8 23.669 11.5788 23.4513L11.4208 23.2958H19.4152C20.1104 23.2958 20.774 23.0469 21.3111 22.5493L28.0416 16.3288C28.7052 15.7379 28.9264 14.8048 28.5788 13.9961ZM14.5491 1.3063C15.2758 1.15079 16.0026 1.08859 16.7294 1.08859C17.4561 1.08859 18.1829 1.15079 18.9097 1.3063L17.6773 3.48348C17.0454 3.39017 16.4134 3.39017 15.813 3.48348L14.5491 1.3063ZM14.9283 4.82088C16.0658 4.44765 17.2981 4.41655 18.5305 4.82088C18.8149 4.91419 18.9729 5.22522 18.8781 5.50514C18.8149 5.72285 18.6253 5.87837 18.3725 5.87837C17.2665 5.53624 16.129 5.53624 15.0547 5.87837C14.8335 5.87837 14.6439 5.72285 14.5491 5.50514C14.4859 5.22522 14.6439 4.91419 14.9283 4.82088ZM15.2442 6.99806C16.1922 6.65593 17.2033 6.65593 18.1829 6.96695C20.774 7.83782 22.8595 11.0103 22.8595 13.9961C22.8595 14.2449 22.8279 14.4938 22.7963 14.7115L20.142 16.4221C19.7312 15.9245 19.0993 15.6134 18.4041 15.6134H16.0026C15.7182 15.6134 15.5918 15.4268 15.4022 15.3024C14.2331 14.4315 12.7796 13.965 11.2944 13.965C11.0732 13.965 10.8205 13.965 10.5993 13.9961V13.965C10.6309 11.0414 12.6848 7.90003 15.2442 6.99806ZM7.53422 26.6859L1.62532 20.8698L4.50077 18.0394L10.4097 23.8245L7.53422 26.6859ZM27.2833 15.5512L20.5528 21.7717C20.2368 22.0517 19.826 22.2072 19.4152 22.2072H10.3149L5.9227 17.8839L7.56582 16.4843C8.60857 15.5823 9.93571 15.0847 11.326 15.0847C12.5584 15.0847 13.7591 15.489 14.7387 16.2044C14.8651 16.2977 15.2758 16.7331 16.0026 16.7331H18.4041C19.0361 16.7331 19.51 17.2308 19.51 17.8217C19.51 18.4127 19.0045 18.9103 18.4041 18.9103H14.5175C14.2015 18.9103 13.9487 19.1591 13.9487 19.4701C13.9487 19.7812 14.2015 20.03 14.5175 20.03H18.4041C19.6364 20.03 20.616 19.0347 20.616 17.8528C20.616 17.7284 20.616 17.604 20.5844 17.4796L26.0509 13.965C26.3037 13.8095 26.6197 13.7784 26.9041 13.8717C27.1885 13.965 27.4412 14.1827 27.536 14.4626C27.7256 14.8048 27.5992 15.2402 27.2833 15.5512Z" fill="white"/>
<path d="M16.7294 14.1827C16.0342 14.1827 15.4338 13.7784 15.4338 13.3119C15.4338 13.063 15.2442 12.8764 14.9915 12.8764C14.7387 12.8764 14.5491 13.063 14.5491 13.3119C14.5491 14.1516 15.3074 14.8359 16.287 14.9914V15.4579C16.287 15.7067 16.4766 15.8934 16.7294 15.8934C16.9822 15.8934 17.1718 15.7067 17.1718 15.4579V14.9914C18.1829 14.8359 18.9097 14.1516 18.9097 13.3119C18.9097 12.3477 17.9301 11.6012 16.7294 11.6012C16.0342 11.6012 15.4338 11.1969 15.4338 10.7304C15.4338 10.2638 16.0342 9.85948 16.7294 9.85948C17.4245 9.85948 18.0249 10.2638 18.0249 10.7304C18.0249 10.9792 18.2145 11.1658 18.4673 11.1658C18.7201 11.1658 18.9097 10.9792 18.9097 10.7304C18.9097 9.89059 18.1513 9.20633 17.1718 9.05082V8.58428C17.1718 8.33546 16.9822 8.14885 16.7294 8.14885C16.4766 8.14885 16.287 8.33546 16.287 8.58428V9.05082C15.2758 9.20633 14.5491 9.89059 14.5491 10.7304C14.5491 11.6945 15.5286 12.441 16.7294 12.441C17.4245 12.441 18.0249 12.8453 18.0249 13.3119C18.0249 13.7784 17.4561 14.1827 16.7294 14.1827Z" fill="white"/>
</svg>
