<svg width="17" height="15" viewBox="0 0 17 15" fill="none" xmlns="http://www.w3.org/2000/svg">
<path d="M6.34637 1.72038L3.72052 4.49993H0.708333C0.316979 4.49993 0 4.83554 0 5.2499V9.74969C0 10.1637 0.316979 10.4997 0.708333 10.4997H3.72052L6.34637 13.2792C6.78997 13.7489 7.55556 13.4189 7.55556 12.7489V2.25066C7.55556 1.58007 6.78937 1.25134 6.34637 1.72038ZM13.2326 0.124201C12.9029 -0.10485 12.4599 -0.00829225 12.2435 0.341379C12.0269 0.690425 12.119 1.15947 12.4487 1.38852C14.4045 2.74752 15.5718 5.0321 15.5718 7.50011C15.5718 9.96811 14.4045 12.2527 12.4487 13.6117C12.119 13.8404 12.0269 14.3098 12.2435 14.6585C12.4513 14.9932 12.8908 15.1135 13.2326 14.8757C15.5913 13.2364 17 10.4787 17 7.49979C17 4.52087 15.5913 1.7635 13.2326 0.124201ZM14.1667 7.49979C14.1667 5.51457 13.2205 3.68935 11.6353 2.61752C11.305 2.39441 10.867 2.49815 10.6578 2.85064C10.4485 3.20312 10.5462 3.66966 10.8765 3.89309C12.0496 4.68649 12.75 6.03455 12.75 7.49979C12.75 8.96504 12.0496 10.3131 10.8765 11.1065C10.5462 11.3296 10.4485 11.7962 10.6578 12.1489C10.8499 12.4727 11.2811 12.6221 11.6353 12.3821C13.2205 11.3102 14.1667 9.48532 14.1667 7.49979ZM9.98248 5.09772C9.64071 4.89991 9.20951 5.03022 9.02003 5.39302C8.83144 5.75581 8.95629 6.21173 9.29894 6.41203C9.67997 6.63358 9.91667 7.05075 9.91667 7.49979C9.91667 7.94915 9.67997 8.366 9.29924 8.58755C8.95658 8.78786 8.83174 9.24377 9.02033 9.60657C9.2101 9.97093 9.6416 10.1003 9.98278 9.90187C10.816 9.41595 11.3336 8.49568 11.3336 7.49948C11.3336 6.50328 10.816 5.58332 9.98248 5.09772Z" fill="#FFC700"/>
</svg>
