<svg width="113" height="102" viewBox="0 0 113 102" fill="none" xmlns="http://www.w3.org/2000/svg">
<path fill-rule="evenodd" clip-rule="evenodd" d="M26.9954 72.2626C21.9578 70.596 20.6345 66.0622 20.5913 63.8961C20.7365 75.6714 29.1828 78.6196 33.4007 78.6195C33.7566 81.0917 34.8953 85.6123 36.6033 83.9171C38.7384 81.7981 49.4138 81.7981 51.5489 91.3337C53.684 100.869 41.941 99.8097 32.3332 96.6312C22.7253 93.4528 10.9824 87.0956 3.50961 64.8459C-2.46861 47.0462 1.73038 29.8823 4.57715 23.5252C4.2213 24.5847 3.50961 27.7633 3.50961 32.0013C3.50961 36.2393 6.35635 45.0685 7.77972 48.9533C7.42387 47.5407 6.92568 42.1725 7.77972 32.0013C8.63375 21.83 16.6759 12.9301 20.5902 9.75155L14.185 32.0013C14.8966 30.2354 18.0281 23.949 24.8604 12.9301C28.7196 6.70607 36.2846 2.64552 42.9257 0.161865H47.6366C43.8886 2.2731 39.9415 4.93412 37.6708 6.57308C40.8732 4.52989 47.4575 1.43599 55.1552 0.161865H68.3499C68.4431 0.179487 68.5363 0.197542 68.6295 0.216035C78.6598 2.207 86.5958 7.93926 90.3387 10.6428C92.5712 12.2554 93.3119 12.7904 92.1154 10.8111C90.2663 7.75247 86.0818 3.40615 82.6921 0.161865H87.1584C91.5591 2.62077 96.8709 6.66958 101.723 12.9301C112.399 26.7037 114.534 51.0724 109.196 72.2626C103.858 93.4527 70.7646 105.107 78.2373 100.869C83.2152 98.0462 90.0189 90.1298 94.2108 84.705C95.5237 83.1678 96.1836 82.1988 96.3855 81.7981C95.7901 82.6254 95.0532 83.6149 94.2108 84.705C93.2094 85.8776 91.828 87.3808 89.9803 89.2147C85.7101 93.4527 73.9672 95.9249 68.6295 96.6312C74.323 93.4527 84.8561 87.5195 81.44 89.2147C78.0238 90.9099 70.0529 91.3337 66.4944 91.3337C70.0529 89.5678 78.8779 84.129 85.7101 76.5006C94.2504 66.965 95.318 47.8939 95.318 45.7749V37.2988L92.1154 32.0013H95.318C95.6738 30.9418 96.3855 28.3989 96.3855 26.7038C96.3855 25.8289 95.1117 25.857 93.4656 25.8934C91.1248 25.9452 88.0312 26.0135 86.7777 23.5252C84.6426 19.2872 70.7646 3.39459 49.4138 8.69213C32.3331 12.9302 24.5045 29.5291 22.7253 37.2988L23.7928 26.7038C22.3694 29.8823 19.7361 39.206 20.5902 51.0724C21.4442 62.9389 25.2162 70.1436 26.9954 72.2626ZM37.6709 26.7037C39.806 25.6442 43.8626 25.0085 43.0086 30.9418C42.1545 36.875 39.0943 44.009 37.6709 46.8343H43.0086C44.7878 41.5368 48.5598 30.5178 49.4138 28.8227C50.4813 26.7037 56.8866 26.7038 55.819 30.9418C55.4843 32.2705 54.7298 34.3284 53.8517 36.7235L53.8516 36.7237C51.929 41.9675 49.4138 48.8276 49.4138 53.1914V61.6674H51.5489V65.9054C51.5489 66.7531 50.1255 67.6713 49.4138 68.0245L35.5358 65.9054L37.6709 61.6674L41.941 59.5484L43.0086 52.1319C40.1618 52.485 33.8277 53.1914 31.2656 53.1914H25.9279C26.6396 51.7787 28.7035 48.3176 31.2656 45.7748C33.5354 43.5222 34.1965 40.2052 34.7691 37.3325C35.0044 36.1517 35.2248 35.0461 35.5358 34.1202C36.3898 31.5775 37.315 28.1164 37.6709 26.7037ZM61.1568 45.7748C63.2919 45.7748 65.4269 43.6558 66.4945 38.3582C67.562 33.0607 79.3049 30.9417 80.3725 38.3582C81.44 45.7748 80.3725 56.3699 77.1699 58.4889C74.6078 60.1842 71.1205 60.608 69.6971 60.608C71.8322 57.7826 76.1023 50.8604 76.1023 45.7748C76.1023 39.4178 75.0348 36.2393 73.9673 36.2393C73.8089 36.2393 73.674 36.2393 73.5486 36.2739C72.8292 36.4725 72.4245 37.8112 69.6971 46.8344C66.4945 57.4294 62.2243 59.5485 59.0217 60.608C55.8191 61.6675 63.2919 69.084 73.9673 65.9055C84.6426 62.727 88.9128 51.0724 87.8452 42.5963C86.7777 34.1203 79.305 23.5252 69.6971 28.8227C62.0108 33.0608 60.8009 41.89 61.1568 45.7748Z" fill="#7F2AD5"/>
</svg>
