<svg width="21" height="16" viewBox="0 0 21 16" fill="none" xmlns="http://www.w3.org/2000/svg">
<path d="M20.7094 8.70777L13.709 15.7066C13.084 16.3315 12.0006 15.8941 12.0006 14.9984V10.9991H6.33365C5.77945 10.9991 5.3336 10.5533 5.3336 9.99923V5.99989C5.3336 5.44582 5.77945 5.00006 6.33365 5.00006H12.0006V1.00072C12.0006 0.109201 13.0798 -0.332392 13.709 0.292504L20.7094 7.29134C21.0969 7.68294 21.0969 8.31617 20.7094 8.70777ZM8.0004 15.4983V13.8319C8.0004 13.557 7.77539 13.332 7.50037 13.332H4.0002C3.26266 13.332 2.6668 12.7363 2.6668 11.9989V4.00022C2.6668 3.26284 3.26266 2.66711 4.0002 2.66711H7.50037C7.77539 2.66711 8.0004 2.44215 8.0004 2.16719V0.500803C8.0004 0.225849 7.77539 0.000886047 7.50037 0.000886047H4.0002C1.79176 0.000886047 0 1.79226 0 4.00022V11.9989C0 14.2069 1.79176 15.9982 4.0002 15.9982H7.50037C7.77539 15.9982 8.0004 15.7733 8.0004 15.4983Z" fill="black"/>
</svg>
