<svg width="179" height="92" viewBox="0 0 179 92" fill="none" xmlns="http://www.w3.org/2000/svg">
<path fill-rule="evenodd" clip-rule="evenodd" d="M73.7201 91.6345H67.7883C67.6164 87.9815 67.281 84.6109 66.9848 82.3794C71.0445 77.0793 79.6542 65.5226 81.6156 61.6969C83.5771 57.8713 85.1785 52.6534 85.734 50.5227C81.7518 48.0796 73.4748 42.3892 72.2248 39.1723C68.1839 42.6033 58.1709 50.2473 50.4469 53.3745C40.7918 57.2835 23.9255 61.1205 11.9467 56.9953C2.36375 53.6951 -0.0106429 50.734 3.58053e-05 49.666C7.71611 52.6804 26.2106 56.9776 38.4601 50.0503C44.3373 46.7267 50.6134 38.9222 57.4317 30.4435C68.3773 16.8325 80.72 1.48408 95.0523 0.146455C115.806 -1.79046 131.897 15.996 138.505 23.2999C139.303 24.1821 139.963 24.9114 140.475 25.4345C145.235 30.2887 149.265 27.9256 152.494 25.5546C155.077 23.6578 158.939 22.1475 160.547 21.6295C157.881 21.0688 152.244 18.5024 151.02 12.7222C154.206 14.6233 160.899 18.4287 162.181 18.4415C163.784 18.4575 173.391 19.3546 177.357 23.3997C177.833 23.8847 178.354 24.347 178.904 24.7894V36.3047C178.25 36.3471 177.504 36.409 176.696 36.476C172.66 36.8109 167.076 37.2744 163.608 36.08C161.431 40.0637 155.469 48.656 149.033 51.1552C144.899 52.7607 141.573 58.1826 138.444 63.2831C135.485 68.1073 132.702 72.6441 129.579 73.3916C124.776 74.541 125.366 73.5072 126.657 71.2464C127.093 70.482 127.609 69.5774 128.024 68.5695C129.338 65.3782 129.725 58.7063 129.755 55.7692C127.891 55.2165 122.883 53.7779 117.768 52.445C112.206 50.9956 102.914 58.6034 94.7404 65.2951C93.5188 66.2954 92.3221 67.2752 91.1666 68.2012C89.4457 69.5803 87.7861 70.8398 86.2223 72.0267C79.7113 76.9683 74.8603 80.65 74.1561 86.4565C73.9913 87.8154 73.8507 89.6025 73.7201 91.6345Z" fill="#E79214"/>
</svg>
