<svg width="24" height="24" viewBox="0 0 24 24" fill="none" xmlns="http://www.w3.org/2000/svg">
<path d="M12 12.5238C13.1451 12.5238 14.2644 12.1859 15.2165 11.5528C16.1685 10.9196 16.9106 10.0197 17.3488 8.96689C17.7869 7.91404 17.9016 6.75552 17.6782 5.63782C17.4549 4.52012 16.9034 3.49344 16.0938 2.68763C15.2841 1.88181 14.2525 1.33304 13.1295 1.11072C12.0064 0.888392 10.8424 1.0025 9.78447 1.4386C8.72658 1.87471 7.82238 2.61322 7.18623 3.56076C6.55008 4.5083 6.21054 5.62231 6.21054 6.76191C6.21237 8.2895 6.82291 9.75401 7.90825 10.8342C8.99359 11.9144 10.4651 12.522 12 12.5238ZM6.73685 15.6667H17.2631C18.519 15.668 19.7231 16.1651 20.6111 17.049C21.4991 17.9328 21.9986 19.1311 22 20.381V22.4762C22 22.6151 21.9445 22.7483 21.8458 22.8466C21.7471 22.9448 21.6133 23 21.4737 23C16.0832 23 9.4656 23 2.52633 23C2.38675 23 2.25286 22.9448 2.15415 22.8466C2.05545 22.7483 2 22.6151 2 22.4762V20.381C2.00137 19.1311 2.50089 17.9328 3.38892 17.049C4.27695 16.1651 5.48099 15.668 6.73685 15.6667Z" fill="url(#paint0_linear_297_1188)"/>
<defs>
<linearGradient id="paint0_linear_297_1188" x1="-5.15619" y1="30.2286" x2="13.9018" y2="11.6145" gradientUnits="userSpaceOnUse">
<stop stop-color="#FF2929"/>
<stop offset="0.552578" stop-color="#CC0000"/>
<stop offset="1" stop-color="#FF2929"/>
</linearGradient>
</defs>
</svg>
