<svg width="133" height="106" viewBox="0 0 133 106" fill="none" xmlns="http://www.w3.org/2000/svg">
<path fill-rule="evenodd" clip-rule="evenodd" d="M78.2734 0C78.1987 0.934913 78.2633 1.91516 78.506 2.9336C78.883 4.51577 79.5752 6.38286 80.3377 8.43936C83.4058 16.715 87.6111 28.0579 76.9906 36.2439C63.7309 46.464 62.5943 47.9781 62.9732 54.7916C63.2763 60.2424 65.3726 64.8856 66.3828 66.5259C63.2258 63.8762 56.7601 56.0029 56.1539 45.707C55.5478 35.4111 58.9321 28.2948 60.7001 26.0237C59.0584 27.4116 55.6235 31.6258 55.0174 37.3794C54.2597 44.5714 55.0174 57.0628 64.1097 66.5259C60.0687 64.2547 50.9258 57.1385 46.6827 46.8426C41.3788 33.9727 42.5154 10.5041 57.2905 0.283925C57.4285 0.188449 57.5665 0.0938099 57.7045 0H78.2734ZM132.522 38.7248C131.334 37.65 130.068 36.5874 128.719 35.5506C114.477 24.6011 91.7579 30.6655 81.1037 39.6321C72.5804 46.8053 68.5802 57.6735 67.6455 62.2109C73.8984 50.6762 85.576 46.1515 92.663 44.6827C98.3326 43.5076 103.396 45.4934 105.219 46.6332C102.516 45.6422 94.701 44.5881 85.0702 48.3001C75.4394 52.012 69.9024 60.5628 68.3377 64.3742C69.5938 62.9133 73.382 59.5044 78.486 57.5562C84.8661 55.121 86.6556 55.7416 100.436 65.2489C111.474 72.8638 121.007 65.4078 127.962 59.9679C129.636 58.6585 131.161 57.4659 132.522 56.6284V38.7248ZM118.886 105.987C117.599 93.1752 108.964 80.6799 100.536 74.8758C91.3608 68.5565 79.8131 67.5719 75.1862 67.8695C87.9722 70.8489 95.424 80.9074 98.7136 87.349C101.345 92.5024 100.766 97.9063 100.147 99.9642C100.389 97.0972 99.3431 89.288 93.2164 80.9874C87.0898 72.6868 77.3732 69.6091 73.2807 69.1078C75.0227 69.9325 79.3139 72.6828 82.5424 77.0869C86.5782 82.5921 86.4517 84.4805 80.9136 100.271C80.1976 102.313 79.8503 104.213 79.8011 105.987H95.0484L96.6225 104.964L96.4623 100.552L100.1 104.058L104.007 102.423L102.382 105.987H118.886ZM72.2804 105.987C73.514 103.441 74.4392 100.917 75.0116 98.5407C77.6195 87.7153 74.3924 76.5935 72.4529 72.3858C74.2613 85.3787 67.5417 95.9395 62.7059 101.32C60.6388 103.62 58.1756 105.091 56.0027 105.987H72.2804ZM54.2204 105.987C57.5927 104.174 62.5162 100.419 66.6742 93.9097C72.2277 85.2158 71.6133 75.0498 70.6119 71.0536C70.4672 72.9741 69.4391 77.9633 66.4846 82.5555C62.7915 88.2957 60.9821 88.8559 44.2431 89.3622C32.8192 89.7077 28.7674 98.2179 26.3503 105.987H41.889L42.126 103.253L45.5011 105.696L49.5643 103.962L48.7075 105.987H54.2204ZM65.6251 18.0746L61.8367 15.0464L62.9732 19.2102L58.8059 21.8599L62.9732 22.6169L64.1097 27.5378L66.3828 23.7525H70.5502L68.2771 19.9673L69.0348 15.8035L65.6251 18.0746ZM114.297 48.8999L116.03 44.3723L112.407 46.7218L108.612 43.5626L109.159 47.7592L104.814 50.3392L109.115 51.3499L110.384 55.3159L113.3 52L117.5 51.4533L114.297 48.8999ZM11.7459 39.4107C5.24177 38.7029 2.47223 31.9575 1.90047 28.6733C0.417206 32.8334 -1.61385 44.6207 2.12805 58.4896C6.80543 75.8258 28.5505 84.7713 42.4643 84.0982C53.5953 83.5598 63.3729 77.3426 66.8703 74.3013C54.897 79.6834 42.8657 76.2046 36.3393 73.0779C31.1182 70.5765 28.2976 65.9293 27.54 63.9184C29.088 66.3446 34.6615 71.9181 44.5721 74.8028C54.4826 77.6874 64.0755 74.2441 67.6331 72.1618C65.7476 72.5623 60.6664 72.9771 55.4256 71.4331C48.8747 69.5032 47.8286 67.9253 42.6426 52.0155C38.4889 39.2723 26.3835 39.4238 17.5515 39.5343H17.5514H17.5514C15.3567 39.5618 13.3641 39.5868 11.7459 39.4107ZM17.572 59.1648L21.6984 56.6153L20.7013 52.644L24.3727 54.7544L28.7043 53.8853L27.3058 57.8076L30.1118 61.2173L25.0909 60.6357L22.9787 64.3039L21.879 59.4924L17.572 59.1648Z" fill="#CA1919"/>
</svg>
