<svg width="24" height="24" viewBox="0 0 24 24" fill="none" xmlns="http://www.w3.org/2000/svg">
<path d="M4.94118 23H19.0588C19.8386 22.9991 20.5862 22.6938 21.1375 22.151C21.6889 21.6082 21.9991 20.8723 22 20.1047V10.2609C21.998 9.45217 21.8058 8.65492 21.4384 7.93158C21.0711 7.20824 20.5385 6.57846 19.8826 6.09158L13.7647 1.57509C13.2546 1.20166 12.6357 1 12 1C11.3643 1 10.7454 1.20166 10.2353 1.57509L4.11741 6.09158C3.46146 6.57846 2.92895 7.20824 2.5616 7.93158C2.19424 8.65492 2.00202 9.45217 2 10.2609V20.1047C2.00092 20.8723 2.31108 21.6082 2.86246 22.151C3.41384 22.6938 4.16141 22.9991 4.94118 23ZM14.5885 21.8419H9.41153V17.2095C9.41153 16.5337 9.68424 15.8856 10.1697 15.4077C10.6551 14.9299 11.3135 14.6614 12 14.6614C12.6865 14.6614 13.3449 14.9299 13.8303 15.4077C14.3158 15.8856 14.5885 16.5337 14.5885 17.2095V21.8419ZM3.17647 10.2609C3.17805 9.63184 3.32757 9.01172 3.6133 8.44908C3.89903 7.88645 4.31321 7.39657 4.82341 7.01784L10.9407 2.50134C11.247 2.27735 11.6184 2.1564 12 2.1564C12.3816 2.1564 12.753 2.27735 13.0593 2.50134L19.1766 7.01784C19.6867 7.39662 20.1009 7.8865 20.3866 8.44913C20.6723 9.01175 20.8219 9.63185 20.8235 10.2609V20.1047C20.823 20.5653 20.6369 21.0069 20.3061 21.3325C19.9753 21.6582 19.5267 21.8414 19.0588 21.8419H15.7649V17.2095C15.7649 16.2265 15.3683 15.2839 14.6622 14.5888C13.9562 13.8938 12.9985 13.5033 12 13.5033C11.0015 13.5033 10.0438 13.8938 9.33778 14.5888C8.63172 15.2839 8.23506 16.2265 8.23506 17.2095V21.8419H4.94118C4.4733 21.8414 4.02474 21.6582 3.69391 21.3325C3.36307 21.0069 3.17698 20.5653 3.17647 20.1047V10.2609Z" fill="url(#paint0_linear_297_1190)"/>
<defs>
<linearGradient id="paint0_linear_297_1190" x1="3.71429" y1="30.2286" x2="22.7722" y2="11.6145" gradientUnits="userSpaceOnUse">
<stop stop-color="#FF2929"/>
<stop offset="0.552578" stop-color="#CC0000"/>
<stop offset="1" stop-color="#FF2929"/>
</linearGradient>
</defs>
</svg>
