<svg width="40" height="40" viewBox="0 0 40 40" fill="none" xmlns="http://www.w3.org/2000/svg">
<path d="M17.047 11.7432H22.7062C23.0918 11.7432 23.431 11.9034 23.6931 12.1596C23.9399 12.4159 24.0941 12.7843 24.0941 13.1847V33.5585C24.0941 33.9589 23.9399 34.3113 23.6931 34.5836C23.4464 34.8398 23.0918 35 22.7062 35H17.047V33.7987H22.7062C22.7679 33.7987 22.8296 33.7667 22.8759 33.7346C22.9221 33.6866 22.9375 33.6385 22.9375 33.5585V13.1847C22.9375 13.1207 22.9067 13.0566 22.8759 13.0085C22.8296 12.9605 22.7833 12.9445 22.7062 12.9445H17.047V11.7432ZM11.3878 11.7432H17.047V12.9445H11.3878C11.3261 12.9445 11.2645 12.9765 11.2182 13.0085C11.1719 13.0566 11.1565 13.1046 11.1565 13.1847V33.5585C11.1565 33.6225 11.1874 33.6866 11.2182 33.7346C11.2645 33.7827 11.3107 33.7987 11.3878 33.7987H17.047V35H11.3878C11.0023 35 10.6631 34.8398 10.4009 34.5836C10.1542 34.3113 10 33.9589 10 33.5585V13.1847C10 12.7843 10.1542 12.4319 10.4009 12.1596C10.6631 11.9034 11.0023 11.7432 11.3878 11.7432Z" fill="#DADADA"/>
<path d="M17.0625 20.1041C17.155 19.992 17.2629 19.8799 17.3709 19.7998C17.7409 19.4955 18.1573 19.3513 18.7124 19.3513C19.3292 19.3513 19.8843 19.6076 20.2853 20.024C20.6862 20.4405 20.9329 21.0171 20.9329 21.6578C20.9329 23.6279 19.1904 25.4218 17.4634 27.2317C17.3554 27.3438 17.2012 27.4079 17.0625 27.4079V25.9664C18.4811 24.4768 19.7918 23.0032 19.7918 21.6578C19.7918 21.3534 19.6685 21.0651 19.4834 20.8729C19.283 20.6647 19.0208 20.5526 18.7278 20.5526C18.4503 20.5526 18.2498 20.6167 18.111 20.7448C17.926 20.905 17.7718 21.1612 17.6022 21.5136C17.5559 21.6257 17.4634 21.7218 17.34 21.7859C17.2629 21.834 17.1704 21.85 17.0779 21.85L17.0625 20.1041ZM17.047 27.4079C16.8928 27.4079 16.754 27.3438 16.6461 27.2317C14.9036 25.4218 13.1766 23.6279 13.1766 21.6578C13.1766 21.0171 13.4233 20.4405 13.8242 20.024C14.2251 19.6076 14.7803 19.3513 15.3971 19.3513C16.1527 19.3513 16.6461 19.6076 17.047 20.1041V21.8179C16.8311 21.8179 16.6307 21.6898 16.5382 21.4816C16.2298 20.8409 15.9368 20.5206 15.3971 20.5206C15.1041 20.5206 14.8265 20.6487 14.6415 20.8409C14.441 21.0491 14.3331 21.3214 14.3331 21.6257C14.3331 22.9712 15.6438 24.4447 17.0625 25.9343V27.4079H17.047Z" fill="#DADADA"/>
<path d="M15.4742 17.2371L14.3177 14.0817H13.8242V14.8986L14.2097 16.0838H13.8242V16.7886H14.4256L14.5798 17.2371H15.4742ZM13.8242 14.0817H13.3308L12.1897 17.2371H13.084L13.2382 16.7886H13.8396V16.0838H13.4541L13.8396 14.8986V14.0817H13.8242Z" fill="#DADADA"/>
<path d="M20.347 32.7096H20.8404L21.9815 29.5542H21.1025L20.9483 30.0027H20.347V30.7074H20.7325L20.347 31.8927V32.7096ZM18.7124 29.5542L19.8535 32.7096H20.347V31.8927L19.9614 30.7074H20.347V30.0027H19.7456L19.5914 29.5542H18.7124Z" fill="#DADADA"/>
<path d="M19.0208 9.5008H24.68C25.0655 9.5008 25.4048 9.66097 25.6669 9.91724C25.9136 10.1735 26.0678 10.5419 26.0678 10.9423V31.3161C26.0678 31.7165 25.9136 32.0689 25.6669 32.3412C25.4202 32.5974 25.0655 32.7576 24.68 32.7576H23.5235C23.1997 32.7576 22.953 32.4853 22.953 32.165V13.1847C22.953 13.1207 22.9221 13.0566 22.8913 13.0085C22.845 12.9605 22.7988 12.9445 22.7217 12.9445H19.0208V11.7432H22.7217C23.1072 11.7432 23.4464 11.9034 23.7086 12.1596C23.9553 12.4159 24.1095 12.7843 24.1095 13.1847V31.5563H24.6955C24.7571 31.5563 24.8188 31.5243 24.8651 31.4923C24.9113 31.4442 24.9268 31.3962 24.9268 31.3161V10.9423C24.9268 10.8783 24.8959 10.8142 24.8651 10.7662C24.8188 10.7181 24.7726 10.7021 24.6955 10.7021H19.0208V9.5008ZM13.3616 9.5008H19.0208V10.7021H13.3616C13.2999 10.7021 13.2382 10.7341 13.192 10.7662C13.1457 10.8142 13.1303 10.8623 13.1303 10.9423V11.7432H19.0208V12.9445H12.5443C12.2205 12.9445 11.9738 12.6722 11.9738 12.3518V10.9423C11.9738 10.5419 12.128 10.1895 12.3747 9.91724C12.6214 9.66097 12.9761 9.5008 13.3616 9.5008Z" fill="#DADADA"/>
<path d="M20.9946 7.24239H26.6538C27.0393 7.24239 27.3786 7.40256 27.6407 7.65884C27.8874 7.91511 28.0416 8.2835 28.0416 8.68393V29.0577C28.0416 29.4581 27.8874 29.8105 27.6407 30.0828C27.394 30.339 27.0393 30.4992 26.6538 30.4992H25.4973C25.1735 30.4992 24.9268 30.2269 24.9268 29.9066V10.9423C24.9268 10.8783 24.8959 10.8142 24.8651 10.7662C24.8188 10.7181 24.7726 10.7021 24.6955 10.7021H20.9946V9.5008H24.6955C25.081 9.5008 25.4202 9.66097 25.6823 9.91724C25.9291 10.1735 26.0833 10.5419 26.0833 10.9423V29.3139H26.6692C26.7309 29.3139 26.7926 29.2819 26.8389 29.2499C26.8851 29.2018 26.9005 29.1538 26.9005 29.0737V8.68393C26.9005 8.61986 26.8697 8.55579 26.8389 8.50774C26.7926 8.45969 26.7463 8.44367 26.6692 8.44367H20.9946V7.24239ZM15.32 7.24239H20.9792V8.44367H15.32C15.2583 8.44367 15.1966 8.47571 15.1503 8.50774C15.1195 8.55579 15.0887 8.61986 15.0887 8.68393V9.48478H20.9792V10.6861H14.5027C14.1789 10.6861 13.9322 10.4138 13.9322 10.0934V8.68393C13.9322 8.2835 14.0864 7.93113 14.3331 7.65884C14.5952 7.40256 14.9345 7.24239 15.32 7.24239Z" fill="#DADADA"/>
<path d="M22.953 5H28.6122C28.9977 5 29.3369 5.16017 29.5991 5.41644C29.8458 5.67272 30 6.04111 30 6.44154V26.8153C30 27.2157 29.8458 27.5681 29.5991 27.8404C29.3524 28.0966 28.9977 28.2568 28.6122 28.2568H27.4557C27.1318 28.2568 26.8851 27.9845 26.8851 27.6642V8.68393C26.8851 8.61986 26.8543 8.55579 26.8234 8.50774C26.7772 8.45969 26.7309 8.44367 26.6538 8.44367H22.953V7.24239H26.6538C27.0393 7.24239 27.3786 7.40256 27.6407 7.65884C27.8874 7.91511 28.0416 8.2835 28.0416 8.68393V27.0555H28.6276C28.6893 27.0555 28.751 27.0235 28.7972 26.9915C28.8435 26.9434 28.8589 26.8954 28.8589 26.8153V6.44154C28.8589 6.37747 28.8281 6.3134 28.7972 6.26535C28.751 6.2173 28.7047 6.20128 28.6276 6.20128H22.953V5ZM17.2938 5H22.953V6.20128H17.2938C17.2321 6.20128 17.1704 6.23332 17.1241 6.26535C17.0933 6.3134 17.0625 6.37747 17.0625 6.44154V7.24239H22.953V8.44367H16.4765C16.1527 8.44367 15.9059 8.17138 15.9059 7.85104V6.44154C15.9059 6.04111 16.0601 5.68873 16.3069 5.41644C16.569 5.16017 16.9083 5 17.2938 5Z" fill="#DADADA"/>
</svg>
