<svg width="24" height="24" viewBox="0 0 24 24" fill="none" xmlns="http://www.w3.org/2000/svg">
<path d="M11.9994 1.50001L12.0002 1.50001C13.6181 1.49945 15.2141 1.87287 16.6637 2.59112C18.1134 3.30936 19.3774 4.35299 20.357 5.6405C21.3366 6.92801 22.0053 8.42455 22.311 10.0132C22.6166 11.6019 22.5509 13.2398 22.1189 14.7989C21.6869 16.3579 20.9004 17.7961 19.8207 19.0009C18.7411 20.2058 17.3975 21.1447 15.895 21.7445C14.3924 22.3443 12.7716 22.5886 11.159 22.4583C9.54647 22.3281 7.98584 21.8269 6.59901 20.9938L6.40175 20.8753L6.18344 20.9481L1.5316 22.4985L1.52975 22.4992C1.52809 22.4997 1.52636 22.5 1.52462 22.5H1.52418C1.52035 22.5 1.51658 22.4991 1.51317 22.4973C1.50976 22.4956 1.50681 22.4931 1.50457 22.49C1.50233 22.4869 1.50086 22.4833 1.50028 22.4795C1.4997 22.4757 1.50003 22.4718 1.50124 22.4682L3.05205 17.8167L3.12499 17.5979L3.00592 17.4004C2.04629 15.8087 1.52697 13.9904 1.50116 12.1319C1.47535 10.2734 1.94397 8.44146 2.85903 6.82365C3.77409 5.20584 5.10271 3.86031 6.70881 2.92487C8.31492 1.98943 10.1408 1.49769 11.9994 1.50001ZM6.40738 20.8242H6.40796C6.41251 20.8242 6.41696 20.8255 6.4208 20.8279C8.08873 21.8876 10.0236 22.451 11.9997 22.4524C14.3168 22.454 16.5687 21.6851 18.401 20.2667C20.2333 18.8483 21.5419 16.8609 22.1209 14.6173C22.7 12.3736 22.5165 10.0012 21.5995 7.87321C20.6825 5.74525 19.084 3.98261 17.0555 2.86268C15.027 1.74276 12.6837 1.32912 10.3943 1.68687C8.10499 2.04463 5.99959 3.15346 4.40947 4.83886C2.81935 6.52427 1.83477 8.69057 1.61068 10.9969C1.3866 13.3031 1.93573 15.6185 3.17165 17.5784L3.59418 17.312L3.17125 17.5778C3.17339 17.5812 3.17475 17.5851 3.17524 17.5891C3.17572 17.593 3.17534 17.5969 3.17414 17.6007C3.17412 17.6008 3.17409 17.6009 3.17406 17.6009L1.87725 21.4898L1.56089 22.4386L2.50967 22.1224L6.4004 20.8256L6.40226 20.825C6.4039 20.8245 6.40563 20.8242 6.40738 20.8242Z" stroke="url(#paint0_linear_297_1201)"/>
<defs>
<linearGradient id="paint0_linear_297_1201" x1="2.88571" y1="30.2286" x2="21.9" y2="9.8" gradientUnits="userSpaceOnUse">
<stop stop-color="#FF2929"/>
<stop offset="0.552578" stop-color="#CC0000"/>
<stop offset="1" stop-color="#FF2929"/>
</linearGradient>
</defs>
</svg>
