<svg width="24" height="24" viewBox="0 0 24 24" fill="none" xmlns="http://www.w3.org/2000/svg">
<path d="M22.9297 9.21862C22.843 8.93985 22.6686 8.69648 22.4325 8.52469C22.1964 8.35289 21.9111 8.26185 21.6191 8.26508H15.6644C15.5526 8.2656 15.4436 8.23018 15.3534 8.16404C15.2633 8.0979 15.1969 8.00456 15.1639 7.89778L13.3185 1.97195C13.231 1.69032 13.0556 1.44408 12.818 1.2692C12.5805 1.09433 12.2932 1 11.9982 1C11.7032 1 11.4159 1.09433 11.1783 1.2692C10.9408 1.44408 10.7654 1.69032 10.6779 1.97195L8.83249 7.89778C8.7995 8.00456 8.73304 8.0979 8.64292 8.16404C8.5528 8.23018 8.44379 8.2656 8.332 8.26508H2.37727C2.08601 8.26505 1.80223 8.35734 1.56673 8.52868C1.33124 8.70002 1.15615 8.94159 1.06664 9.21866C0.977131 9.49572 0.977807 9.79403 1.06857 10.0707C1.15934 10.3473 1.33552 10.5881 1.57178 10.7584L6.19698 14.0947C6.28325 14.1574 6.34847 14.2447 6.38403 14.3452C6.41958 14.4456 6.4238 14.5545 6.39611 14.6574L4.58446 21.2524C4.50815 21.5309 4.521 21.8263 4.62121 22.0971C4.72142 22.3679 4.90395 22.6006 5.14319 22.7624C5.38242 22.9243 5.66635 23.0072 5.95511 22.9995C6.24388 22.9918 6.52299 22.8939 6.75326 22.7195L11.6814 18.9831C11.7727 18.9144 11.8839 18.8773 11.9982 18.8773C12.1125 18.8773 12.2237 18.9144 12.315 18.9831L17.2431 22.7195C17.4734 22.894 17.7526 22.9919 18.0415 22.9995C18.3303 23.0072 18.6143 22.9242 18.8536 22.7622C19.0928 22.6002 19.2753 22.3673 19.3753 22.0964C19.4754 21.8254 19.488 21.5299 19.4114 21.2514L17.6008 14.6584C17.5728 14.5554 17.5768 14.4464 17.6123 14.3457C17.6477 14.245 17.713 14.1575 17.7994 14.0947L22.4246 10.7584C22.6633 10.5902 22.8415 10.3496 22.9325 10.0722C23.0235 9.79478 23.0225 9.49543 22.9297 9.21862Z" fill="url(#paint0_linear_297_1186)"/>
<defs>
<linearGradient id="paint0_linear_297_1186" x1="2.88571" y1="30.2286" x2="21.9" y2="9.8" gradientUnits="userSpaceOnUse">
<stop stop-color="#FF2929"/>
<stop offset="0.552578" stop-color="#CC0000"/>
<stop offset="1" stop-color="#FF2929"/>
</linearGradient>
</defs>
</svg>
