<svg width="21" height="19" viewBox="0 0 21 19" fill="none" xmlns="http://www.w3.org/2000/svg">
<path d="M21 4.07144V4.75001C21 4.83999 20.9631 4.92629 20.8975 4.98992C20.8319 5.05355 20.7428 5.08929 20.65 5.08929H19.6V5.59822C19.6 5.87928 19.3649 6.10715 19.075 6.10715H1.925C1.63507 6.10715 1.4 5.87928 1.4 5.59822V5.08929H0.35C0.257174 5.08929 0.16815 5.05355 0.102513 4.98992C0.0368749 4.92629 0 4.83999 0 4.75001V4.07144C5.00563e-07 4.00431 0.0205397 3.9387 0.0590188 3.88289C0.0974979 3.82709 0.152188 3.7836 0.216169 3.75794L10.3662 0.0257972C10.4519 -0.00859907 10.5481 -0.00859907 10.6338 0.0257972L20.7838 3.75794C20.8478 3.7836 20.9025 3.82709 20.941 3.88289C20.9795 3.9387 21 4.00431 21 4.07144ZM19.95 16.9643H1.05C0.470094 16.9643 0 17.42 0 17.9821V18.6607C0 18.7507 0.0368749 18.837 0.102513 18.9006C0.16815 18.9643 0.257174 19 0.35 19H20.65C20.7428 19 20.8319 18.9643 20.8975 18.9006C20.9631 18.837 21 18.7507 21 18.6607V17.9821C21 17.42 20.5299 16.9643 19.95 16.9643ZM3.5 6.78572V14.9286H1.925C1.63507 14.9286 1.4 15.1564 1.4 15.4375V16.2857H19.6V15.4375C19.6 15.1564 19.3649 14.9286 19.075 14.9286H17.5V6.78572H14.7V14.9286H11.9V6.78572H9.1V14.9286H6.3V6.78572H3.5Z" fill="black"/>
</svg>
