<svg width="22" height="23" viewBox="0 0 22 23" fill="none" xmlns="http://www.w3.org/2000/svg">
<path d="M20.2393 6.61717C19.1179 4.94521 17.5418 3.61315 15.6813 2.76476C15.563 2.7108 15.4536 2.68456 15.3471 2.68456C15.2029 2.68456 14.7325 2.74347 14.7325 3.50077V4.7561C14.7325 5.39246 15.1338 5.68349 15.2568 5.75753C17.645 7.19532 19.0708 9.6697 19.0708 12.3765C19.0708 16.6744 15.4502 20.1711 10.9999 20.1711C6.54966 20.1711 2.92915 16.6744 2.92915 12.3765C2.92915 9.62733 4.38948 7.1328 6.83562 5.70357C7.16332 5.51212 7.33643 5.17838 7.33643 4.73842V3.46541C7.33643 2.90253 6.96465 2.70281 6.64632 2.70281C6.52081 2.70281 6.38695 2.73265 6.26964 2.78683C4.42214 3.64017 2.8579 4.97216 1.74607 6.63888C0.603772 8.35122 0 10.3352 0 12.3765C0 18.2343 4.9346 23 11 23C17.0654 23 22 18.2343 22 12.3765C22 10.3261 21.3912 8.33452 20.2393 6.61717Z" fill="#DADADA"/>
<path d="M10.2657 8.27455H11.8035C12.2072 8.27455 12.5358 7.95729 12.5358 7.56732V0.707227C12.5358 0.317262 12.2072 0 11.8035 0H10.2657C9.86188 0 9.53337 0.317262 9.53337 0.707227V7.56732C9.53337 7.95729 9.8618 8.27455 10.2657 8.27455Z" fill="#DADADA"/>
</svg>
