<svg width="110" height="106" viewBox="0 0 110 106" fill="none" xmlns="http://www.w3.org/2000/svg">
<path fill-rule="evenodd" clip-rule="evenodd" d="M87.5367 0L85.8123 7.85469H30.4746C23.004 7.85469 6.12601 17.3772 6.12601 33.9015C6.12601 50.4258 18.3003 62.749 27.7077 62.749H70.3177C73.638 62.749 76.1282 67.5102 76.1282 70.8711C76.1282 74.232 72.5313 75.9124 67.8275 75.9124H8.06283L0 105.987H21.398L23.5574 97.1979H79.4485C85.8123 97.1979 103.797 86.5552 103.797 70.8711C103.797 55.187 94.1129 42.3037 79.4485 42.3037H40.4354C36.0084 42.3037 33.2415 38.3826 33.2415 33.9015C33.2415 29.4203 39.882 28.8602 47.0759 28.8602H100.477L109.302 0H87.5367Z" fill="#00579A"/>
</svg>
