<svg width="40" height="40" viewBox="0 0 40 40" fill="none" xmlns="http://www.w3.org/2000/svg">
<path d="M33.5805 18.1593C33.5724 18.1358 33.5643 18.1279 33.5643 18.1201C33.5563 18.0418 33.5482 17.9634 33.5482 17.8851C33.355 14.8616 32.244 12.1984 30.191 9.91123C30.0461 9.75457 29.9012 9.63708 30.022 9.36292C30.1508 9.07311 29.7966 8.79112 29.4826 8.86945C29.4101 8.89295 29.3377 8.93211 29.2733 8.96345C29.241 8.94778 29.2249 8.93995 29.2088 8.92428C26.7775 6.7859 23.9436 5.61097 20.6669 5.43864C20.5783 5.43081 20.5059 5.31332 20.4173 5.25065C20.2885 5.15666 20.1516 5.00783 20.0148 5C19.8779 5 19.6686 5.11749 19.6122 5.23499C19.5317 5.42298 19.419 5.43864 19.2419 5.44648C17.2694 5.55614 15.4016 6.05744 13.6466 6.96606C12.5919 7.50653 11.6419 8.18016 10.7563 8.97128C10.5389 8.84595 10.2974 8.77546 10.1203 8.97911C10.0237 9.08877 9.95928 9.30026 10.0076 9.41775C10.08 9.60574 10.0156 9.69974 9.90292 9.81723C8.60674 11.2193 7.67284 12.8172 7.07708 14.6031C6.69869 15.7546 6.50547 16.9373 6.40081 18.1123C6.23979 18.2454 6.06267 18.3943 6.01437 18.5666C5.93386 18.8721 6.20759 18.9896 6.44106 19.0836C6.44911 19.1619 6.44911 19.2245 6.45716 19.2794C6.65038 22.3264 7.7614 25.0131 9.82241 27.3159C9.95928 27.4726 10.1122 27.5901 9.99148 27.8642C9.86267 28.154 10.2169 28.436 10.5309 28.3577C10.6033 28.342 10.6758 28.295 10.7402 28.2715C11.2152 28.6475 11.6822 29.0157 12.1572 29.3916C12.1089 29.5091 12.0686 29.6266 12.0203 29.7441C11.5453 30.9269 11.0542 32.1018 10.6033 33.2846C10.3618 33.9112 10.6839 34.5927 11.3038 34.8747C11.3923 34.9138 11.4809 34.953 11.5694 35C17.197 35 22.8165 35 28.444 35C28.5245 34.9608 28.597 34.9217 28.6775 34.8903C29.2169 34.6475 29.4987 34.2245 29.4826 33.6606C29.4745 33.3943 29.3618 33.1279 29.2571 32.8773C28.7902 31.718 28.3152 30.5587 27.8483 29.3995C28.3233 29.0235 28.7902 28.6554 29.2652 28.2715C29.4665 28.389 29.708 28.4595 29.8851 28.2559C29.9817 28.1462 30.0461 27.9347 29.9978 27.8172C29.9254 27.6292 29.9898 27.5352 30.1025 27.4178C31.4953 25.8982 32.5097 24.1749 33.033 22.201C33.3067 21.1828 33.4436 20.141 33.6529 19.0601C33.7978 19.0209 33.991 18.9112 33.9991 18.6371C34.0152 18.3473 33.8139 18.2298 33.5805 18.1593ZM29.3135 10.2794C31.2216 12.3159 32.3326 14.7285 32.558 17.5405C32.5097 17.4778 32.4694 17.423 32.4211 17.3603C31.8978 16.7258 31.2055 16.4674 30.3923 16.6005C29.5953 16.7337 29.0639 17.2037 28.766 17.9321C28.7258 18.0183 28.6614 18.0966 28.605 18.1749C28.5487 18.0966 28.4601 18.0339 28.4279 17.9478C28.1059 17.1018 27.3249 16.5692 26.4233 16.5692C25.5296 16.577 24.7487 17.1018 24.4508 17.9399C24.3783 18.1358 24.2978 18.1984 24.0885 18.1828C23.8067 18.1593 23.4686 18.2533 23.2673 18.1279C23.0822 18.0104 23.0419 17.6736 22.9292 17.4386C22.8245 17.2193 22.7038 17.0078 22.5991 16.8198C24.8292 14.6423 27.0593 12.4726 29.3135 10.2794ZM29.6919 18.1671C29.8046 17.7598 30.2313 17.4621 30.7305 17.4543C31.2377 17.4465 31.6805 17.7285 31.8254 18.1671C31.1088 18.1671 30.4004 18.1671 29.6919 18.1671ZM31.8173 19.0679C31.7127 19.4595 31.3262 19.7415 30.8593 19.7807C30.336 19.8198 29.9093 19.577 29.6597 19.0679C30.4004 19.0679 31.1088 19.0679 31.8173 19.0679ZM25.5377 18.1749C25.4813 18.1749 25.4249 18.1671 25.3605 18.1671C25.4894 17.752 25.8758 17.4778 26.3588 17.4543C26.8741 17.423 27.3008 17.6815 27.5262 18.1749C26.8419 18.1828 26.1898 18.1828 25.5377 18.1749ZM27.5182 19.0601C27.3088 19.5457 26.8983 19.7963 26.391 19.7885C25.908 19.7728 25.5055 19.4987 25.3605 19.0757C25.4008 19.0679 25.4411 19.0601 25.4733 19.0601C26.1415 19.0601 26.8177 19.0601 27.5182 19.0601ZM20.4576 15.3003C20.4576 12.3943 20.4576 9.48042 20.4576 6.57441C20.4576 6.50392 20.4656 6.44125 20.4737 6.31593C23.6055 6.45692 26.2944 7.56136 28.5728 9.55875C26.3266 11.7441 24.0966 13.9138 21.8906 16.0601C21.48 15.9112 21.0453 15.7546 20.6105 15.5901C20.5461 15.5666 20.4978 15.4804 20.4576 15.4178C20.4495 15.3943 20.4576 15.3394 20.4576 15.3003ZM19.5398 6.35509C19.5478 6.45692 19.5559 6.55875 19.5559 6.66057C19.5559 9.51958 19.5559 12.3786 19.5639 15.2454C19.5639 15.4726 19.5156 15.5744 19.2661 15.6449C18.8635 15.7546 18.4851 15.9426 18.1067 16.0914C15.9008 13.953 13.6788 11.7833 11.4487 9.61358C12.6966 7.98433 17.3258 6.11227 19.5398 6.35509ZM10.7161 10.295C12.9461 12.4648 15.1762 14.6345 17.3983 16.7963C17.2292 17.1723 17.036 17.5796 16.8589 17.9948C16.8025 18.1279 16.73 18.1906 16.5771 18.1828C16.0538 18.1749 15.5305 18.1749 15.0152 18.1828C14.8542 18.1828 14.7978 18.1201 14.7495 17.9791C14.4355 17.1018 13.6627 16.5692 12.7449 16.5692C11.8271 16.5692 11.0783 17.1097 10.7402 17.9869C10.708 18.0653 10.6033 18.1671 10.5389 18.1671C9.57284 18.1828 8.61479 18.1749 7.64869 18.1749C7.56818 18.1749 7.48767 18.1749 7.39106 18.1749C7.41521 15.4961 8.61479 12.3864 10.7161 10.295ZM11.7868 24.9739C12.133 24.6057 12.5678 24.5039 13.0669 24.6527C12.5436 25.1305 12.0203 25.6084 11.5131 26.0705C11.3843 25.7102 11.4648 25.3107 11.7868 24.9739ZM10.4021 23.423C9.73385 23.423 9.19445 22.906 9.19445 22.2559C9.19445 21.6057 9.73385 21.0888 10.4021 21.0888C11.0622 21.0966 11.5855 21.5979 11.5936 22.2402C11.6017 22.8982 11.0703 23.4151 10.4021 23.423ZM13.8076 25.3655C13.7512 25.5222 13.6949 25.671 13.6305 25.8277C13.55 26.0235 13.4694 26.2272 13.3889 26.423C13.1796 26.9243 12.7851 27.0653 12.286 26.846C12.7851 26.3603 13.2923 25.8668 13.8076 25.3655ZM13.5339 22.3107C13.5258 21.4491 14.4758 20.8773 15.2567 21.2611C15.4097 21.3316 15.458 21.4099 15.3855 21.5744C15.1843 22.0366 15.0072 22.5144 14.8059 22.9843C14.5966 23.4621 14.2987 23.517 13.9203 23.1723C13.6707 22.953 13.5419 22.6475 13.5339 22.3107ZM13.8156 19.0757C13.6546 19.5144 13.244 19.7885 12.7449 19.7885C12.2538 19.7885 11.8432 19.53 11.6661 19.0757C12.3987 19.0757 13.1072 19.0757 13.8156 19.0757ZM11.6741 18.1593C11.8432 17.7128 12.2538 17.4465 12.7449 17.4465C13.236 17.4465 13.6466 17.7128 13.8237 18.1593C13.0991 18.1593 12.3906 18.1593 11.6741 18.1593ZM13.7593 20.4543C14.2262 20.1175 14.6288 19.7337 14.7817 19.1619C14.7898 19.1149 14.8783 19.0601 14.9347 19.0601C15.4177 19.0522 15.8927 19.0522 16.4161 19.0522C16.2067 19.5614 16.0135 20.0313 15.8042 20.5405C15.1279 20.1567 14.4436 20.2272 13.7593 20.4543ZM11.2555 24.2376C10.5389 24.9112 10.3699 25.7885 10.7885 26.6736C10.8288 26.7598 10.8288 26.8616 10.7885 26.9634C8.63894 24.7467 7.51987 22.1149 7.35886 19.0522C7.72114 19.0522 8.05928 19.0522 8.39741 19.0522C9.08174 19.0522 9.76606 19.0522 10.4423 19.0522C10.5792 19.0522 10.6678 19.0522 10.7322 19.2167C11.1911 20.4465 12.3423 20.9399 13.5902 20.4856C13.6305 20.47 13.6788 20.47 13.719 20.4621C13.6788 20.5013 13.6466 20.5405 13.6063 20.564C12.5275 21.2846 12.3021 22.5614 13.083 23.5796C13.1152 23.6188 13.1394 23.658 13.1474 23.658C12.6483 23.7206 12.1411 23.7911 11.7144 23.846C12.6161 22.9687 12.769 21.8877 12.0525 20.9791C11.4165 20.1802 10.2411 19.953 9.34741 20.4621C8.42157 20.9869 8.04318 22.0757 8.44572 23.0235C8.90462 24.0966 9.94318 24.4804 11.3843 24.0888C11.3279 24.1671 11.2957 24.2063 11.2555 24.2376ZM11.4004 27.6606C11.4084 27.6292 11.4084 27.6057 11.4165 27.5744C11.497 27.5666 11.5775 27.5274 11.65 27.5509C12.0203 27.6527 12.3906 27.7702 12.7851 27.8877C12.7851 27.8956 12.769 27.9426 12.7529 27.9896C12.6805 28.1619 12.608 28.3342 12.5194 28.5535C12.125 28.2402 11.7627 27.9504 11.4004 27.6606ZM28.4843 33.3551C28.7016 33.8956 28.5326 34.1227 27.9368 34.1305C25.2881 34.1305 22.6313 34.1305 19.9826 34.1305C17.3419 34.1305 14.7012 34.1305 12.0605 34.1305C11.9156 34.1305 11.7466 34.1227 11.6258 34.0522C11.3682 33.9034 11.4004 33.6762 11.505 33.4334C12.6644 30.6057 13.8156 27.7781 14.975 24.9504C15.9411 22.5849 16.9152 20.2193 17.8894 17.8616C18.3644 16.7102 19.572 16.154 20.7313 16.5457C21.4076 16.7728 21.8584 17.2272 22.1241 17.8695C23.7262 21.7624 25.3283 25.6554 26.9305 29.5483C27.4538 30.8172 27.9771 32.0862 28.4843 33.3551ZM24.5957 21.4961C25.3847 21.5117 25.8275 22.4595 25.3686 23.2585C25.3203 23.1802 25.2881 23.141 25.2639 23.094C25.0385 22.5692 24.8211 22.0366 24.5957 21.4961ZM27.5182 28.53C27.4699 28.4439 27.4377 28.3734 27.3894 28.2794C27.5826 28.2245 27.7597 28.1775 27.9368 28.1305C27.9449 28.1462 27.9529 28.1619 27.969 28.1775C27.8241 28.295 27.6792 28.4047 27.5182 28.53ZM27.5423 27.3238C27.1398 27.4804 27.0351 27.4334 26.8741 27.0418C26.6889 26.5875 26.5038 26.141 26.3186 25.6867C26.2864 25.6005 26.2622 25.5144 26.2139 25.3655C26.8338 25.9687 27.3894 26.5091 27.9771 27.0809C27.8483 27.1593 27.7033 27.2611 27.5423 27.3238ZM27.4216 25.1149C27.8563 25.1619 28.2025 25.5065 28.283 25.9452C28.0173 25.6867 27.7114 25.389 27.4216 25.1149ZM29.2088 27.0026C29.2008 26.8773 29.1766 26.7833 29.1927 26.6893C29.4987 25.1619 28.2347 23.9243 26.6648 24.2219C26.4233 24.2689 26.4233 24.2689 26.069 23.8538C26.3588 23.4308 26.5279 22.9608 26.4796 22.436C26.391 21.4256 25.586 20.6266 24.5394 20.5718C24.2737 20.5561 24.1529 20.47 24.0724 20.235C23.9436 19.8512 23.7665 19.4752 23.6055 19.0757C23.686 19.0679 23.7343 19.0679 23.7745 19.0601C24.1529 19.0052 24.3703 19.0992 24.5474 19.4987C24.8936 20.2977 25.6021 20.6893 26.5038 20.658C27.4055 20.6266 28.0254 20.1723 28.3877 19.3734C28.4199 19.3029 28.4279 19.2167 28.4682 19.154C28.4923 19.1149 28.5567 19.0679 28.597 19.0679C28.6372 19.0679 28.7097 19.1227 28.7177 19.1619C28.8707 19.7102 29.241 20.094 29.6919 20.423C29.5872 20.3916 29.4826 20.3681 29.3779 20.329C28.3474 19.9687 27.2122 20.4308 26.7453 21.3943C26.2783 22.3734 26.6648 23.5248 27.6389 24.0496C28.5889 24.5666 29.8046 24.2768 30.4084 23.3995C31.0122 22.5222 30.8271 21.3238 29.9737 20.658C29.9012 20.5953 29.8288 20.5326 29.7563 20.47C30.2796 20.658 30.819 20.7598 31.3745 20.5875C31.8737 20.4308 32.2682 20.1253 32.5741 19.671C32.7512 21.5431 30.7627 25.8982 29.2088 27.0026ZM29.861 22.2324C29.8771 22.8825 29.3457 23.4151 28.6694 23.423C28.0012 23.4308 27.4618 22.9138 27.4538 22.2637C27.4538 21.6214 27.969 21.1044 28.6292 21.0888C29.2974 21.0731 29.8449 21.5822 29.861 22.2324Z" fill="#DADADA"/>
<path d="M24.483 26.141C24.2978 25.7259 23.9597 25.4752 23.5008 25.4125C23.3317 25.389 23.2432 25.3342 23.1788 25.1776C22.4542 23.3917 21.7135 21.6058 20.9728 19.8277C20.9165 19.6867 20.9245 19.5927 21.0292 19.4674C21.4398 18.9817 21.4559 18.3316 21.0775 17.846C20.7072 17.3682 20.0792 17.188 19.5237 17.3917C18.936 17.611 18.5898 18.1749 18.6622 18.7859C18.7347 19.3812 19.2016 19.8512 19.8457 19.9295C20.0148 19.9452 20.0792 20.0078 20.1436 20.1488C20.8762 21.9347 21.6089 23.7206 22.3495 25.4987C22.4139 25.6632 22.3817 25.7572 22.2851 25.8904C22.0033 26.235 21.9228 26.6345 22.0839 27.0496C22.3012 27.6136 22.5267 28.1776 22.7843 28.7337C23.0017 29.2037 23.4122 29.423 23.8309 29.4465C24.8292 29.4543 25.4572 28.6084 25.1512 27.7781C24.958 27.2219 24.7245 26.6815 24.483 26.141ZM20.0067 19.0601C19.7652 19.0601 19.572 18.8721 19.5639 18.6371C19.5559 18.3943 19.7652 18.1828 20.0067 18.1906C20.2402 18.1906 20.4415 18.3864 20.4495 18.6136C20.4576 18.8564 20.2563 19.0601 20.0067 19.0601ZM24.0563 28.53C23.9275 28.5614 23.686 28.4987 23.6457 28.4047C23.38 27.8486 23.1466 27.2768 22.9372 26.6971C22.905 26.6031 23.0339 26.3838 23.1466 26.329C23.2512 26.2742 23.533 26.3133 23.5652 26.3838C23.855 26.9713 24.1127 27.5666 24.3945 28.2089C24.2737 28.3342 24.1771 28.4987 24.0563 28.53Z" fill="#DADADA"/>
<path d="M28.605 16.7964C29.7724 16.7885 30.7063 15.8642 30.6983 14.7363C30.6902 13.6005 29.7402 12.6919 28.5809 12.6997C27.4135 12.7076 26.4796 13.624 26.4877 14.7598C26.5038 15.8956 27.4457 16.8042 28.605 16.7964ZM28.5889 13.577C29.2572 13.577 29.7966 14.094 29.7966 14.7441C29.7966 15.3943 29.2572 15.9191 28.5889 15.9112C27.9207 15.9034 27.3894 15.3786 27.3974 14.7285C27.4055 14.094 27.9288 13.5849 28.5889 13.577Z" fill="#DADADA"/>
</svg>
