<svg width="40" height="40" viewBox="0 0 40 40" fill="none" xmlns="http://www.w3.org/2000/svg">
<path d="M10.8416 14.9132C12.1695 14.9132 13.484 14.9132 14.8119 14.9132C15.3753 14.9132 15.5765 14.7655 15.7509 14.2282C16.5557 11.6357 17.3739 9.0432 18.1787 6.45072C18.4604 5.52387 19.1177 5 20.003 5C20.8748 5 21.5455 5.52387 21.8272 6.41042C22.632 9.0029 23.4368 11.5954 24.255 14.1879C24.4294 14.7655 24.6306 14.8998 25.2208 14.8998C27.8499 14.8998 30.4923 14.8998 33.1214 14.8998C33.8993 14.8998 34.4761 15.2625 34.798 15.9475C35.1334 16.6595 35.0529 17.3445 34.5432 17.9624C34.4225 18.1102 34.2749 18.2176 34.1274 18.3251C32.0885 19.8027 30.0497 21.2803 28.0242 22.7444C27.6218 23.0265 27.5413 23.2683 27.6755 23.725C28.4669 26.6264 29.2449 29.5279 30.0765 32.4159C30.4387 33.6651 29.7143 34.7263 28.7083 34.9412C28.1047 35.0621 27.5682 34.9143 27.0853 34.5516C26.039 33.7591 24.9928 32.9666 23.9465 32.1741C22.8466 31.3413 21.7333 30.495 20.6334 29.6622C20.1237 29.2726 19.8957 29.2726 19.3994 29.6622C17.2532 31.2875 15.107 32.9129 12.9609 34.5382C12.0756 35.2098 11.0293 35.1427 10.3184 34.377C9.87578 33.8935 9.72823 33.3159 9.90261 32.6845C10.3721 30.9249 10.855 29.1652 11.3379 27.4055C11.6732 26.1966 11.9951 24.9742 12.3305 23.7653C12.4646 23.2817 12.3841 23.0534 11.9683 22.7579C9.90261 21.2803 7.85035 19.7893 5.78467 18.2982C5.14082 17.8281 4.88597 17.1833 5.04693 16.4042C5.20789 15.6252 5.70419 15.1416 6.46876 14.9535C6.62972 14.9132 6.80409 14.9132 6.96506 14.9132C8.26616 14.8998 9.55386 14.8998 10.8416 14.9132Z" stroke="#DADADA" stroke-width="1.5"/>
</svg>
