<svg width="24" height="24" viewBox="0 0 24 24" fill="none" xmlns="http://www.w3.org/2000/svg">
<path d="M5.28381 8.26971C6.25763 8.26971 7.22161 8.26971 8.19543 8.26971C8.60856 8.26971 8.75611 8.16135 8.88399 7.76733C9.47418 5.86617 10.0742 3.96502 10.6644 2.06386C10.871 1.38417 11.353 1 12.0022 1C12.6416 1 13.1334 1.38417 13.3399 2.03431C13.9301 3.93546 14.5203 5.83662 15.1204 7.73778C15.2482 8.16135 15.3958 8.25985 15.8286 8.25985C17.7566 8.25985 19.6944 8.25985 21.6223 8.25985C22.1929 8.25985 22.6158 8.52582 22.8519 9.0282C23.0978 9.55028 23.0388 10.0527 22.665 10.5058C22.5765 10.6141 22.4683 10.6929 22.3601 10.7717C20.8649 11.8553 19.3698 12.9389 17.8844 14.0126C17.5893 14.2194 17.5303 14.3967 17.6287 14.7317C18.209 16.8594 18.7796 18.9871 19.3894 21.105C19.655 22.0211 19.1238 22.7993 18.3861 22.9569C17.9435 23.0455 17.55 22.9372 17.1959 22.6712C16.4286 22.09 15.6614 21.5088 14.8941 20.9277C14.0875 20.3169 13.2711 19.6963 12.4645 19.0856C12.0907 18.7999 11.9235 18.7999 11.5595 19.0856C9.98568 20.2775 8.41183 21.4694 6.83798 22.6614C6.18877 23.1539 5.42152 23.1046 4.90018 22.5432C4.57557 22.1885 4.46737 21.765 4.59525 21.302C4.93953 20.0116 5.29364 18.7211 5.64776 17.4307C5.89367 16.5442 6.12975 15.6478 6.37566 14.7612C6.47403 14.4066 6.41501 14.2391 6.11008 14.0224C4.59525 12.9389 3.09025 11.8455 1.57542 10.752C1.10327 10.4073 0.916375 9.93445 1.03441 9.36312C1.15245 8.79178 1.5164 8.43716 2.07709 8.29926C2.19513 8.2697 2.323 8.26971 2.44104 8.26971C3.39519 8.25985 4.3395 8.25985 5.28381 8.26971Z" stroke="url(#paint0_linear_297_1194)"/>
<defs>
<linearGradient id="paint0_linear_297_1194" x1="2.88571" y1="30.2286" x2="21.9" y2="9.8" gradientUnits="userSpaceOnUse">
<stop stop-color="#FF2929"/>
<stop offset="0.552578" stop-color="#CC0000"/>
<stop offset="1" stop-color="#FF2929"/>
</linearGradient>
</defs>
</svg>
