<svg width="19" height="19" viewBox="0 0 19 19" fill="none" xmlns="http://www.w3.org/2000/svg">
<path d="M18.4582 13.4261L14.3018 11.6448C14.1243 11.5691 13.9269 11.5532 13.7395 11.5994C13.5521 11.6455 13.3848 11.7513 13.2627 11.9009L11.4221 14.1497C8.53335 12.7877 6.20858 10.4629 4.84657 7.57419L7.09544 5.73353C7.24524 5.61169 7.35127 5.44436 7.39747 5.25687C7.44368 5.06939 7.42753 4.87195 7.35149 4.69445L5.57021 0.53813C5.48676 0.346794 5.33916 0.190574 5.15286 0.0964089C4.96656 0.00224336 4.75324 -0.0239658 4.54969 0.0223006L0.690246 0.912941C0.493997 0.95826 0.318903 1.06876 0.193542 1.2264C0.0681805 1.38405 -4.52078e-05 1.57953 2.24746e-08 1.78095C2.24746e-08 11.2997 7.71517 19 17.219 19C17.4205 19.0001 17.6161 18.9319 17.7738 18.8066C17.9315 18.6812 18.0421 18.5061 18.0874 18.3098L18.9781 14.4503C19.024 14.2458 18.9973 14.0316 18.9024 13.8447C18.8075 13.6577 18.6504 13.5097 18.4582 13.4261Z" fill="black"/>
</svg>
