<svg width="21" height="15" viewBox="0 0 21 15" fill="none" xmlns="http://www.w3.org/2000/svg">
<path d="M20.6021 4.95312C20.7621 4.83203 21 4.94531 21 5.13672V13.125C21 14.1602 20.1182 15 19.0312 15H1.96875C0.881836 15 0 14.1602 0 13.125V5.14063C0 4.94531 0.233789 4.83594 0.397852 4.95703C1.3166 5.63672 2.53477 6.5 6.71836 9.39453C7.58379 9.99609 9.04395 11.2617 10.5 11.2539C11.9643 11.2656 13.4531 9.97266 14.2857 9.39453C18.4693 6.5 19.6834 5.63281 20.6021 4.95312ZM10.5 10C11.4516 10.0156 12.8215 8.85938 13.5105 8.38281C18.9533 4.62109 19.3676 4.29297 20.6227 3.35547C20.8605 3.17969 21 2.90625 21 2.61719V1.875C21 0.839844 20.1182 0 19.0312 0H1.96875C0.881836 0 0 0.839844 0 1.875V2.61719C0 2.90625 0.139453 3.17578 0.377344 3.35547C1.63242 4.28906 2.04668 4.62109 7.48945 8.38281C8.17852 8.85938 9.54844 10.0156 10.5 10Z" fill="black"/>
</svg>
