<svg width="40" height="40" viewBox="0 0 40 40" fill="none" xmlns="http://www.w3.org/2000/svg">
<path d="M20.3137 5C24.3651 5 28.0407 6.65084 30.7036 9.29872C33.3664 11.9629 35 15.6242 35 19.6941C35 23.7477 33.35 27.4253 30.7036 30.0895C28.0571 32.7537 24.3814 34.3882 20.3137 34.3882V33.1624C24.0384 33.1624 27.4036 31.6586 29.8377 29.2232C32.2718 26.7878 33.7748 23.4208 33.7748 19.6941C33.7748 15.9675 32.2718 12.6004 29.8377 10.165C27.3873 7.72961 24.022 6.22587 20.3137 6.22587V5ZM20.3137 31.6096C23.5973 31.6096 26.5705 30.2693 28.7269 28.1281C30.8833 25.9706 32.2065 22.9958 32.2065 19.7105C32.2065 16.4251 30.8669 13.4503 28.7269 11.2928C26.5705 9.11893 23.5973 7.79499 20.3137 7.79499V9.02086C23.2706 9.02086 25.9334 10.214 27.861 12.1427C29.7887 14.0714 30.9813 16.752 30.9813 19.6941C30.9813 22.6525 29.7887 25.3168 27.861 27.2455C25.9334 29.1742 23.2542 30.3674 20.3137 30.3674V31.6096ZM20.3137 28.8146C22.8295 28.8146 25.1166 27.8012 26.7665 26.1504C28.4165 24.4995 29.4293 22.2276 29.4293 19.6941C29.4293 17.177 28.4165 14.8887 26.7665 13.2379C25.1166 11.587 22.8458 10.5736 20.3137 10.5736V11.7995C22.4864 11.7995 24.4631 12.6821 25.9007 14.1041C27.322 15.5261 28.2041 17.5039 28.2041 19.6941C28.2041 21.868 27.322 23.8457 25.9007 25.2841C24.4794 26.7061 22.5028 27.5887 20.3137 27.5887V28.8146ZM20.3137 26.036C22.0617 26.036 23.6463 25.3331 24.7898 24.1726C25.9334 23.0285 26.6522 21.443 26.6522 19.6941C26.6522 17.9452 25.9497 16.3597 24.7898 15.2156C23.6463 14.0714 22.0617 13.3686 20.3137 13.3686V14.5945C21.7186 14.5945 22.9928 15.1666 23.924 16.0982C24.8552 17.0299 25.4269 18.3048 25.4269 19.7105C25.4269 21.1161 24.8552 22.391 23.924 23.3227C22.9928 24.2544 21.7186 24.8264 20.3137 24.8264V26.036ZM20.3137 23.241C21.2939 23.241 22.176 22.8487 22.8131 22.1949C23.4503 21.5574 23.8587 20.6585 23.8587 19.6941C23.8587 18.7134 23.4666 17.8308 22.8131 17.1933C22.176 16.5559 21.2775 16.1473 20.3137 16.1473V17.3731C20.9508 17.3731 21.5389 17.6346 21.9473 18.0596C22.3721 18.4846 22.6334 19.0567 22.6334 19.6941C22.6334 20.3316 22.3721 20.92 21.9473 21.3286C21.5226 21.7536 20.9508 22.0151 20.3137 22.0151V23.241ZM20.3137 5V6.22587C16.589 6.22587 13.2238 7.72961 10.7896 10.165C8.35554 12.6004 6.83627 15.9838 6.83627 19.6941C6.83627 22.2439 7.53873 24.6303 8.78028 26.6734L7.83278 27.4743C6.42786 25.2187 5.61105 22.5545 5.61105 19.6941C5.61105 15.6406 7.26101 11.9629 9.90749 9.29872C12.5703 6.65084 16.246 5 20.3137 5ZM20.3137 34.3882C17.4548 34.3882 14.8084 33.571 12.554 32.1653L13.3544 31.2173C15.3801 32.4432 17.7652 33.1624 20.33 33.1624V34.3882H20.3137ZM20.3137 7.79499C17.0301 7.79499 14.0569 9.13527 11.9005 11.2765C9.72779 13.434 8.40455 16.4088 8.40455 19.6941C8.40455 21.917 9.00899 23.9928 10.0708 25.7744L11.3941 25.5783C10.2832 23.8948 9.62977 21.868 9.62977 19.6941C9.62977 16.752 10.8223 14.0714 12.75 12.1427C14.6777 10.214 17.3568 9.02086 20.2974 9.02086V7.79499H20.3137ZM20.3137 10.5736C17.7979 10.5736 15.5108 11.587 13.8609 13.2379C12.2109 14.8887 11.1981 17.1606 11.1981 19.6941C11.1981 21.7699 11.8842 23.6823 13.0604 25.2187L13.9425 24.3361C12.995 23.0285 12.4233 21.4267 12.4233 19.6778C12.4233 17.5039 13.3054 15.5261 14.7267 14.0878C16.1479 12.6494 18.1246 11.7832 20.3137 11.7832V10.5736ZM20.3137 13.3686C18.5657 13.3686 16.9811 14.0714 15.8376 15.2156C14.694 16.3597 13.9752 17.9452 13.9752 19.6941C13.9752 21.0017 14.3673 22.2112 15.0534 23.2246L15.9356 22.342C15.4618 21.5738 15.2004 20.6748 15.2004 19.6941C15.2004 18.2884 15.7722 17.0135 16.7034 16.0819C17.6345 15.1502 18.9088 14.5781 20.3137 14.5781V13.3686ZM20.3137 16.1473C19.3335 16.1473 18.4514 16.5395 17.8142 17.1933C17.1771 17.8308 16.7687 18.7298 16.7687 19.6941C16.7687 20.2335 16.8831 20.7238 17.0954 21.1815L17.8959 20.3806C17.9449 20.3316 17.9939 20.2825 18.0593 20.2498C18.0103 20.07 17.9939 19.8903 17.9939 19.6941C17.9939 19.0567 18.2553 18.4682 18.6801 18.0596C19.1048 17.6346 19.6766 17.3731 20.3137 17.3731V16.1473ZM20.3137 22.0151C20.1177 22.0151 19.938 21.9987 19.7583 21.9497C19.7256 21.9987 19.6766 22.0641 19.6276 22.1132L18.8271 22.9141C19.2845 23.1266 19.7909 23.241 20.3137 23.241V22.0151ZM20.3137 24.8101C19.3499 24.8101 18.4514 24.5486 17.6672 24.0746L16.7851 24.9572C17.7979 25.6273 19.0068 26.036 20.3137 26.036V24.8101ZM20.3137 27.5887C18.582 27.5887 16.9648 27.033 15.6579 26.0686L14.7757 26.9513C16.3113 28.1281 18.2226 28.8146 20.2974 28.8146V27.5887H20.3137ZM20.3137 30.3837C18.141 30.3837 16.1153 29.7299 14.4326 28.6185L14.2366 29.9424C16.0173 31.0048 18.092 31.6096 20.3137 31.6096V30.3837Z" fill="#DADADA"/>
<path d="M10.9367 31.2337L12.456 29.4194L12.6357 28.2425L10.9367 29.9424V28.2098L11.7698 27.3762L10.9367 27.507V26.2648L13.2238 25.9215L18.337 20.8056C18.5004 20.6421 18.7291 20.5931 18.9415 20.6421L20.0687 19.5143C20.183 19.3999 20.379 19.3999 20.4934 19.5143C20.6078 19.6287 20.6078 19.8249 20.4934 19.9393L19.3662 21.0671C19.4152 21.2632 19.3662 21.4921 19.2028 21.6555L14.0896 26.7715L13.6485 29.7463C13.6322 29.8607 13.5832 29.9587 13.5178 30.0568L10.953 33.1133V31.2337H10.9367ZM9.46642 32.9989L10.9367 31.25V33.146L9.58077 34.7478C9.48275 34.8786 9.35206 34.9603 9.1887 34.993C8.86198 35.042 8.53525 34.8295 8.48624 34.4863L8.17585 32.6884L8.04516 32.8191C7.80012 33.0643 7.42438 33.0643 7.17934 32.8191C6.9343 32.5739 6.9343 32.198 7.17934 31.9528L7.31003 31.8221L5.51304 31.5115C5.18631 31.4625 4.95761 31.1356 5.00662 30.8087C5.03929 30.6452 5.12097 30.4981 5.25166 30.4164L9.92383 26.4936C10.0219 26.4119 10.1199 26.3792 10.2342 26.3629L10.9203 26.2648V27.507L10.5773 27.556L7.01598 30.5472L8.35555 30.776L10.9367 28.2098V29.9424L9.23771 31.6423L9.46642 32.9989Z" fill="#DADADA"/>
</svg>
