<svg width="24" height="24" viewBox="0 0 24 24" fill="none" xmlns="http://www.w3.org/2000/svg">
<path d="M12 1.54762L11.9995 1.54762C10.6119 1.54913 9.2812 2.09834 8.29935 3.07551C7.31742 4.05277 6.76467 5.37828 6.76316 6.76136V6.76191C6.76316 7.79373 7.0706 8.80218 7.64634 9.65973C8.22206 10.5172 9.04009 11.1852 9.99673 11.5796C10.9533 11.974 12.0058 12.0771 13.0212 11.8761C14.0366 11.6751 14.9696 11.1789 15.7022 10.4498C16.4347 9.72073 16.9339 8.79154 17.1361 7.77961C17.3384 6.76767 17.2346 5.71879 16.8379 4.76571C16.4412 3.81265 15.7697 2.99844 14.9085 2.42578C14.0474 1.85313 13.0352 1.54762 12 1.54762ZM21.4474 20.381V20.3803C21.446 19.2751 21.0042 18.2159 20.2197 17.4351C19.4352 16.6544 18.3721 16.2156 17.2638 16.2143H17.2632H17.2423H17.2214H17.2006H17.1798H17.159H17.1383H17.1175H17.0968H17.0761H17.0554H17.0348H17.0141H16.9935H16.9729H16.9523H16.9318H16.9112H16.8907H16.8702H16.8498H16.8293H16.8089H16.7885H16.7681H16.7477H16.7273H16.707H16.6867H16.6664H16.6461H16.6258H16.6056H16.5853H16.5651H16.5449H16.5248H16.5046H16.4845H16.4643H16.4442H16.4241H16.4041H16.384H16.364H16.344H16.324H16.304H16.284H16.264H16.2441H16.2242H16.2043H16.1844H16.1645H16.1446H16.1248H16.105H16.0852H16.0654H16.0456H16.0258H16.0061H15.9863H15.9666H15.9469H15.9272H15.9075H15.8878H15.8682H15.8485H15.8289H15.8093H15.7897H15.7701H15.7505H15.731H15.7114H15.6919H15.6723H15.6528H15.6333H15.6138H15.5944H15.5749H15.5555H15.536H15.5166H15.4972H15.4778H15.4584H15.439H15.4196H15.4003H15.3809H15.3616H15.3422H15.3229H15.3036H15.2843H15.265H15.2457H15.2265H15.2072H15.188H15.1687H15.1495H15.1303H15.1111H15.0918H15.0727H15.0535H15.0343H15.0151H14.996H14.9768H14.9577H14.9385H14.9194H14.9003H14.8812H14.862H14.8429H14.8239H14.8048H14.7857H14.7666H14.7476H14.7285H14.7094H14.6904H14.6714H14.6523H14.6333H14.6143H14.5953H14.5763H14.5573H14.5383H14.5193H14.5003H14.4813H14.4623H14.4433H14.4244H14.4054H14.3864H14.3675H14.3485H14.3296H14.3106H14.2917H14.2728H14.2538H14.2349H14.216H14.1971H14.1781H14.1592H14.1403H14.1214H14.1025H14.0836H14.0647H14.0458H14.0269H14.008H13.9891H13.9702H13.9513H13.9324H13.9135H13.8946H13.8757H13.8568H13.838H13.8191H13.8002H13.7813H13.7624H13.7435H13.7247H13.7058H13.6869H13.668H13.6491H13.6302H13.6113H13.5925H13.5736H13.5547H13.5358H13.5169H13.498H13.4791H13.4602H13.4413H13.4224H13.4035H13.3846H13.3657H13.3468H13.3279H13.309H13.2901H13.2712H13.2523H13.2333H13.2144H13.1955H13.1765H13.1576H13.1387H13.1197H13.1008H13.0818H13.0629H13.0439H13.0249H13.006H12.987H12.968H12.949H12.93H12.9111H12.8921H12.8731H12.854H12.835H12.816H12.797H12.7779H12.7589H12.7399H12.7208H12.7018H12.6827H12.6636H12.6445H12.6255H12.6064H12.5873H12.5682H12.549H12.5299H12.5108H12.4917H12.4725H12.4534H12.4342H12.415H12.3958H12.3767H12.3575H12.3383H12.319H12.2998H12.2806H12.2614H12.2421H12.2228H12.2036H12.1843H12.165H12.1457H12.1264H12.1071H12.0878H12.0684H12.0491H12.0297H12.0103H11.991H11.9716H11.9522H11.9327H11.9133H11.8939H11.8744H11.855H11.8355H11.816H11.7965H11.777H11.7575H11.7379H11.7184H11.6988H11.6792H11.6596H11.64H11.6204H11.6008H11.5812H11.5615H11.5418H11.5222H11.5025H11.4827H11.463H11.4433H11.4235H11.4038H11.384H11.3642H11.3444H11.3245H11.3047H11.2848H11.265H11.2451H11.2252H11.2052H11.1853H11.1653H11.1454H11.1254H11.1054H11.0854H11.0653H11.0453H11.0252H11.0051H10.985H10.9649H10.9447H10.9246H10.9044H10.8842H10.864H10.8438H10.8235H10.8033H10.783H10.7627H10.7424H10.722H10.7017H10.6813H10.6609H10.6405H10.62H10.5996H10.5791H10.5586H10.5381H10.5176H10.497H10.4764H10.4558H10.4352H10.4146H10.3939H10.3733H10.3526H10.3318H10.3111H10.2903H10.2696H10.2488H10.2279H10.2071H10.1862H10.1653H10.1444H10.1235H10.1025H10.0815H10.0605H10.0395H10.0184H9.99736H9.97626H9.95514H9.934H9.91283H9.89164H9.87042H9.84919H9.82792H9.80664H9.78532H9.76399H9.74263H9.72124H9.69983H9.6784H9.65694H9.63546H9.61395H9.59241H9.57085H9.54926H9.52765H9.50601H9.48435H9.46266H9.44094H9.4192H9.39743H9.37563H9.35381H9.33196H9.31009H9.28818H9.26625H9.24429H9.22231H9.2003H9.17826H9.15619H9.13409H9.11197H9.08981H9.06763H9.04542H9.02318H9.00092H8.97862H8.9563H8.93395H8.91156H8.88915H8.86671H8.84424H8.82174H8.79921H8.77665H8.75406H8.73144H8.70879H8.68611H8.66339H8.64065H8.61788H8.59508H8.57224H8.54938H8.52648H8.50355H8.48059H8.4576H8.43458H8.41152H8.38843H8.36531H8.34216H8.31898H8.29576H8.27252H8.24923H8.22592H8.20257H8.17919H8.15578H8.13233H8.10885H8.08534H8.06179H8.03821H8.0146H7.99095H7.96726H7.94355H7.91979H7.89601H7.87219H7.84833H7.82444H7.80051H7.77655H7.75256H7.72852H7.70446H7.68035H7.65622H7.63204H7.60783H7.58358H7.5593H7.53498H7.51063H7.48623H7.46181H7.43734H7.41284H7.3883H7.36372H7.33911H7.31445H7.28976H7.26504H7.24027H7.21547H7.19063H7.16575H7.14083H7.11588H7.09088H7.06585H7.04078H7.01567H6.99052H6.96533H6.9401H6.91483H6.88952H6.86418H6.83879H6.81336H6.7879H6.76239H6.73684H6.73624C5.62786 16.2156 4.56478 16.6544 3.78031 17.4351C2.99576 18.2159 2.55397 19.2751 2.55263 20.3803V20.381V22.4762C2.55263 22.4817 2.55044 22.4875 2.54577 22.4922C2.54102 22.4969 2.53407 22.5 2.52632 22.5C2.51857 22.5 2.51162 22.4969 2.50686 22.4922C2.50219 22.4875 2.5 22.4817 2.5 22.4762V20.3812C2.50129 19.2646 2.94753 18.1936 3.74161 17.4034C4.53583 16.6129 5.61317 16.1679 6.73738 16.1667H17.2626C18.3868 16.1679 19.4642 16.6129 20.2584 17.4034C21.0525 18.1937 21.4988 19.2648 21.5 20.3815V22.4762C21.5 22.4817 21.4978 22.4875 21.4931 22.4922C21.4884 22.4969 21.4814 22.5 21.4737 22.5C21.4659 22.5 21.459 22.4969 21.4542 22.4922C21.4496 22.4875 21.4474 22.4817 21.4474 22.4762V20.381ZM14.9396 11.1364C14.0698 11.7148 13.0471 12.0237 12.0006 12.0238C10.5973 12.0222 9.25248 11.4666 8.26094 10.4798C7.26958 9.49315 6.71229 8.15598 6.71053 6.7617C6.71057 5.7216 7.02048 4.70466 7.60135 3.83947C8.18228 2.97418 9.00823 2.29942 9.97503 1.90086C10.9418 1.5023 12.0058 1.39798 13.0324 1.6012C14.0589 1.80441 15.0015 2.30595 15.7411 3.04202C16.4806 3.77807 16.984 4.71556 17.1879 5.73581C17.3918 6.75605 17.2872 7.81358 16.8872 8.77477C16.4871 9.73599 15.8095 10.5579 14.9396 11.1364Z" stroke="url(#paint0_linear_297_1197)"/>
<defs>
<linearGradient id="paint0_linear_297_1197" x1="3.71429" y1="30.2286" x2="22.7722" y2="11.6145" gradientUnits="userSpaceOnUse">
<stop stop-color="#FF2929"/>
<stop offset="0.552578" stop-color="#CC0000"/>
<stop offset="1" stop-color="#FF2929"/>
</linearGradient>
</defs>
</svg>
