<svg width="23" height="23" viewBox="0 0 23 23" fill="none" xmlns="http://www.w3.org/2000/svg">
<circle cx="11.5" cy="11.5" r="11.5" fill="#FFC700"/>
<path d="M9 15.6C8.7 15.6 8.5 15.5 8.3 15.3C7.9 14.9 7.9 14.3 8.3 13.9L13.9 8.3C14.3 7.9 14.9 7.9 15.3 8.3C15.7 8.7 15.7 9.3 15.3 9.7L9.7 15.3C9.5 15.5 9.3 15.6 9 15.6Z" fill="black"/>
<path d="M14.6 15.6C14.3 15.6 14.1 15.5 13.9 15.3L8.3 9.7C7.9 9.3 7.9 8.7 8.3 8.3C8.7 7.9 9.3 7.9 9.7 8.3L15.3 13.9C15.7 14.3 15.7 14.9 15.3 15.3C15.1 15.5 14.8 15.6 14.6 15.6Z" fill="black"/>
</svg>
