<svg width="14" height="17" viewBox="0 0 14 17" fill="none" xmlns="http://www.w3.org/2000/svg">
<path d="M10 14.875V16.2031C10 16.6432 9.66422 17 9.25 17H0.75C0.335781 17 0 16.6432 0 16.2031V3.98438C0 3.54427 0.335781 3.1875 0.75 3.1875H3V13.0156C3 14.0409 3.78503 14.875 4.75 14.875H10ZM10 3.45312V0H4.75C4.33578 0 4 0.356768 4 0.796875V13.0156C4 13.4557 4.33578 13.8125 4.75 13.8125H13.25C13.6642 13.8125 14 13.4557 14 13.0156V4.25H10.75C10.3375 4.25 10 3.89141 10 3.45312ZM13.7803 2.42287L11.7197 0.233385C11.579 0.0839516 11.3882 1.10499e-06 11.1893 0H11V3.1875H14V2.98632C14 2.77499 13.921 2.57231 13.7803 2.42287Z" fill="#930D0D"/>
</svg>
