<svg width="24" height="24" viewBox="0 0 24 24" fill="none" xmlns="http://www.w3.org/2000/svg">
<path fill-rule="evenodd" clip-rule="evenodd" d="M19.0588 23H4.94118C4.16141 22.9991 3.41384 22.6938 2.86246 22.151C2.31108 21.6082 2.00092 20.8723 2 20.1047V10.2609C2.00202 9.45217 2.19424 8.65492 2.5616 7.93158C2.92895 7.20824 3.46146 6.57846 4.11741 6.09158L10.2353 1.57509C10.7454 1.20166 11.3643 1 12 1C12.6357 1 13.2546 1.20166 13.7647 1.57509L19.8826 6.09158C20.5385 6.57846 21.071 7.20824 21.4384 7.93158C21.8058 8.65492 21.998 9.45217 22 10.2609V20.1047C21.9991 20.8723 21.6889 21.6082 21.1375 22.151C20.5862 22.6938 19.8386 22.9991 19.0588 23ZM9.41153 21.8419H14.5885V17.2095C14.5885 16.5337 14.3158 15.8856 13.8303 15.4077C13.3449 14.9299 12.6865 14.6614 12 14.6614C11.3135 14.6614 10.6551 14.9299 10.1697 15.4077C9.68424 15.8856 9.41153 16.5337 9.41153 17.2095V21.8419Z" fill="black"/>
<path fill-rule="evenodd" clip-rule="evenodd" d="M19.0588 23H4.94118C4.16141 22.9991 3.41384 22.6938 2.86246 22.151C2.31108 21.6082 2.00092 20.8723 2 20.1047V10.2609C2.00202 9.45217 2.19424 8.65492 2.5616 7.93158C2.92895 7.20824 3.46146 6.57846 4.11741 6.09158L10.2353 1.57509C10.7454 1.20166 11.3643 1 12 1C12.6357 1 13.2546 1.20166 13.7647 1.57509L19.8826 6.09158C20.5385 6.57846 21.071 7.20824 21.4384 7.93158C21.8058 8.65492 21.998 9.45217 22 10.2609V20.1047C21.9991 20.8723 21.6889 21.6082 21.1375 22.151C20.5862 22.6938 19.8386 22.9991 19.0588 23ZM9.41153 21.8419H14.5885V17.2095C14.5885 16.5337 14.3158 15.8856 13.8303 15.4077C13.3449 14.9299 12.6865 14.6614 12 14.6614C11.3135 14.6614 10.6551 14.9299 10.1697 15.4077C9.68424 15.8856 9.41153 16.5337 9.41153 17.2095V21.8419Z" fill="url(#paint0_linear_297_1183)"/>
<defs>
<linearGradient id="paint0_linear_297_1183" x1="3.9621" y1="29.4994" x2="22.2593" y2="11.5564" gradientUnits="userSpaceOnUse">
<stop stop-color="#FF2929"/>
<stop offset="0.552578" stop-color="#CC0000"/>
<stop offset="1" stop-color="#FF2929"/>
</linearGradient>
</defs>
</svg>
