<svg width="84" height="111" viewBox="0 0 84 111" fill="none" xmlns="http://www.w3.org/2000/svg">
<path d="M0.921631 10.1142C7.0569 15.3189 19.3274 26.6651 19.3274 30.4125C19.3274 34.1599 20.35 20.5236 20.8612 13.237C19.8387 9.07323 18.4071 1.37026 20.8612 3.86852C23.9289 6.99135 28.5303 10.1141 28.5303 13.237C28.5303 15.7353 38.7558 27.8103 43.8685 33.5355L59.2067 13.237C59.2067 9.07326 59.8202 0.745789 62.2743 0.745789C65.3419 0.745789 66.8757 10.1141 65.3419 13.237L68.4095 33.5355L77.6124 10.1142C78.1237 8.03229 79.453 3.86852 80.6801 3.86852C82.2139 3.86852 83.7477 2.3072 83.7477 5.43003C83.7477 7.92829 81.7026 10.6347 80.6801 11.6757L71.4772 42.9039L74.5448 50.711C68.4095 48.6291 52.7646 45.0899 39.267 47.5882C25.7695 50.0864 19.3274 54.8748 17.7936 56.9566C17.7936 51.2315 17.1801 38.532 14.726 33.5355C11.6583 27.2898 10.1245 19.4826 0.921631 10.1142Z" fill="#E18C0E"/>
<path fill-rule="evenodd" clip-rule="evenodd" d="M82.2139 75.6936C82.2139 94.6652 67.1062 110.045 48.4699 110.045C29.8337 110.045 14.726 94.6652 14.726 75.6936C14.726 69.368 16.4056 63.4416 19.3355 58.3516C31.8934 51.1994 51.8085 45.0245 73.173 52.2926C78.7825 58.4265 82.2139 66.6521 82.2139 75.6936ZM53.0714 64.7637C71.4772 55.3953 74.5448 74.1322 71.4772 85.0621C68.4095 95.992 56.139 99.1148 51.5376 92.8692C46.9361 86.6235 46.9361 71.0094 53.0714 64.7637Z" fill="#E18C0E"/>
<path d="M51.5376 73.0975V69.8004H57.2089V84.9376H53.5645V73.0975H51.5376Z" fill="#E18C0E"/>
<path d="M59.7268 74.072C59.7814 72.5929 60.2591 71.4524 61.1599 70.6506C62.0608 69.8488 63.2824 69.4479 64.8248 69.4479C65.8485 69.4479 66.7221 69.6277 67.4455 69.9871C68.1826 70.3465 68.7354 70.8372 69.1039 71.4593C69.4861 72.0814 69.6772 72.7795 69.6772 73.5536C69.6772 74.466 69.452 75.2125 69.0016 75.7931C68.5511 76.3599 68.0256 76.747 67.425 76.9543V77.0373C68.2031 77.2999 68.8173 77.7354 69.2677 78.3436C69.7181 78.9519 69.9434 79.7329 69.9434 80.6868C69.9434 81.5439 69.7454 82.3042 69.3496 82.9677C68.9674 83.6175 68.401 84.1289 67.6503 84.5022C66.9132 84.8754 66.0328 85.0621 65.0091 85.0621C63.3712 85.0621 62.0608 84.6543 61.078 83.8386C60.1089 83.023 59.5971 81.7927 59.5425 80.1477H62.9412C62.9548 80.7559 63.1255 81.2397 63.4531 81.5992C63.7806 81.9448 64.2584 82.1176 64.8862 82.1176C65.4186 82.1176 65.8281 81.9655 66.1147 81.6614C66.415 81.3434 66.5651 80.9287 66.5651 80.4172C66.5651 79.7537 66.3536 79.2767 65.9304 78.9864C65.5209 78.6823 64.8589 78.5303 63.9444 78.5303H63.2893V75.648H63.9444C64.6406 75.648 65.2002 75.5305 65.6233 75.2955C66.0601 75.0466 66.2785 74.6112 66.2785 73.9891C66.2785 73.4914 66.142 73.1044 65.869 72.8279C65.596 72.5514 65.2207 72.4132 64.7429 72.4132C64.2242 72.4132 63.8352 72.5721 63.5759 72.8901C63.3302 73.208 63.1869 73.602 63.1459 74.072H59.7268Z" fill="#E18C0E"/>
</svg>
