<svg width="22" height="22" viewBox="0 0 22 22" fill="none" xmlns="http://www.w3.org/2000/svg">
<path d="M12.5757 1.42822L11.4917 0.344238C11.0327 -0.114746 10.2905 -0.114746 9.83643 0.344238L0.344238 9.83154C-0.114746 10.2905 -0.114746 11.0327 0.344238 11.4868L9.83643 20.979C10.2954 21.438 11.0376 21.438 11.4917 20.979L12.5757 19.895C13.0396 19.4312 13.0298 18.6743 12.5562 18.2202L6.67236 12.6147H20.7056C21.355 12.6147 21.8774 12.0923 21.8774 11.4429V9.88037C21.8774 9.23096 21.355 8.7085 20.7056 8.7085H6.67236L12.5562 3.10303C13.0347 2.64893 13.0444 1.89209 12.5757 1.42822Z" fill="#FFC700"/>
</svg>
