<svg width="40" height="40" viewBox="0 0 40 40" fill="none" xmlns="http://www.w3.org/2000/svg">
<path d="M36 20.1929C35.8804 20.7603 35.7906 21.3278 35.6112 21.881C34.9681 23.9238 33.6669 25.4843 31.7526 26.5908C31.1694 26.9313 30.5562 26.832 30.2272 26.3355C29.8981 25.8531 30.0327 25.2573 30.616 24.9169C31.5133 24.3778 32.2611 23.6969 32.8593 22.8457C34.4147 20.6043 34.1754 17.4124 32.2761 15.398C30.9749 14.0077 29.3298 13.27 27.3856 13.2275C26.1443 13.1991 24.9628 13.4828 23.9159 14.1212C24.4842 14.4475 25.0675 14.7454 25.576 15.1001C28.4175 17.1003 29.9281 19.7957 29.9281 23.1436C29.9281 27.8392 26.5182 31.7546 21.8222 32.7334C18.173 33.4995 14.9576 32.6057 12.2357 30.1657C11.4729 29.4848 10.8747 28.7046 10.3662 27.8392C10.2914 27.7115 10.1419 27.5839 9.99234 27.5555C6.95637 26.9029 4.78781 25.229 3.65119 22.491C2.51457 19.7389 2.87351 17.0861 4.66817 14.6603C5.95435 12.9154 7.73405 11.8372 9.91756 11.3833C10.456 11.2698 11.0243 11.2556 11.5776 11.1989C11.772 11.1847 11.8917 11.1279 12.0113 10.9577C13.8808 8.23397 16.5728 6.84373 20.0425 7.01397C23.0186 7.17001 25.3367 8.53188 26.9519 10.9152C27.1164 11.1563 27.2809 11.2414 27.5651 11.2556C30.7656 11.4117 33.1884 12.8161 34.8335 15.4122C35.4466 16.3768 35.7906 17.455 35.9252 18.5757C35.9402 18.6891 35.9701 18.7885 35.985 18.9019C36 19.3275 36 19.7531 36 20.1929ZM27.8044 23.1436C27.8044 18.8168 24.0954 15.2987 19.5041 15.2703C14.9725 15.2277 11.1888 18.8168 11.1888 23.1436C11.1888 27.4704 14.9127 31.0027 19.4891 31.0169C24.0655 31.0311 27.8193 27.4704 27.8044 23.1436ZM14.1649 11.5393C14.5239 11.667 14.8678 11.7805 15.1969 11.9224C15.7353 12.1493 15.9596 12.6884 15.7502 13.1991C15.5109 13.7666 14.9127 13.9652 14.1948 13.6956C11.8468 12.8587 9.66332 13.1424 7.65927 14.5752C3.75588 17.3698 4.50366 23.328 8.97536 25.2006C9.08005 25.2431 9.18474 25.2715 9.31934 25.3283C9.30438 25.2148 9.28943 25.1438 9.27447 25.0729C8.91554 23.3422 9.03518 21.6541 9.6334 19.9801C10.3662 17.9231 11.6823 16.2633 13.5667 15.0149C15.6904 13.6105 18.0683 13.0431 20.6407 13.3268C21.1641 13.3835 21.5829 13.3552 21.9418 12.9721C22.0614 12.8445 22.2409 12.731 22.4054 12.6459C23.1981 12.2486 23.9907 11.8514 24.7834 11.4684C22.3606 8.26234 16.9018 8.03537 14.1649 11.5393Z" fill="#DADADA"/>
<path d="M19.0703 21.5547C19.0703 21.7534 19.0703 21.9236 19.0703 22.108C19.4741 22.108 19.8779 22.0655 20.2668 22.1222C21.5978 22.3208 22.6597 23.4415 22.7943 24.7041C22.9139 25.7397 22.6746 26.6618 21.8521 27.3994C21.3884 27.825 20.8052 28.0378 20.177 28.0946C19.1302 28.1797 18.173 27.9811 17.3654 27.3143C17.2009 27.1866 17.0663 27.0306 16.9467 26.8604C16.6176 26.4064 16.7074 25.8248 17.156 25.4985C17.6047 25.1722 18.2328 25.229 18.5918 25.6545C18.9956 26.1085 19.519 26.1794 20.0724 26.0943C20.4163 26.0376 20.6108 25.8248 20.6706 25.4985C20.6855 25.3708 20.7154 25.229 20.7154 25.1013C20.6407 24.2927 20.1322 23.938 19.2648 24.1366C18.9806 24.2076 18.7264 24.321 18.4572 24.4204C17.7393 24.6899 17.0214 24.3352 16.9766 23.5976C16.9167 22.5478 16.9317 21.498 16.9766 20.4482C16.9915 19.9233 17.4252 19.5829 17.9935 19.5687C19.1152 19.5545 20.2518 19.5545 21.3735 19.5687C21.9717 19.5829 22.4054 20.0226 22.4054 20.5617C22.4054 21.1008 21.9717 21.5264 21.3884 21.5406C20.7454 21.5548 20.1023 21.5547 19.4592 21.5547C19.3246 21.5547 19.2199 21.5547 19.0703 21.5547Z" fill="#DADADA"/>
<path d="M15.7652 17.0861C16.3335 17.0861 16.7373 17.3557 16.8868 17.7529C17.0364 18.1501 16.9167 18.5757 16.5429 18.8736C16.154 19.1857 15.7203 19.4694 15.3763 19.824C14.479 20.7461 14.0602 21.8668 14.0154 23.1294C13.9855 23.8387 13.3573 24.2785 12.6694 24.0941C12.1908 23.9664 11.8917 23.5408 11.9066 23.0585C12.0113 20.6327 13.1031 18.7175 15.2118 17.3273C15.4212 17.1996 15.6605 17.1287 15.7652 17.0861Z" fill="#DADADA"/>
<path d="M18.4871 18.1501C17.9188 18.1501 17.4551 17.7671 17.3804 17.2422C17.3205 16.7457 17.6944 16.2491 18.2478 16.164C18.6516 16.1073 19.0554 16.0789 19.4592 16.0789C19.9976 16.0789 20.4163 16.5187 20.4463 17.0294C20.4762 17.5117 20.0873 17.9657 19.5788 18.0366C19.2049 18.1075 18.8311 18.1217 18.4871 18.1501Z" fill="#DADADA"/>
</svg>
