<svg width="26" height="29" viewBox="0 0 26 29" fill="none" xmlns="http://www.w3.org/2000/svg">
<path d="M0 26.2812C0 27.7822 1.24777 29 2.78571 29H23.2143C24.7522 29 26 27.7822 26 26.2812V10.875H0V26.2812ZM3.71429 15.4062C3.71429 14.9078 4.13214 14.5 4.64286 14.5H21.3571C21.8679 14.5 22.2857 14.9078 22.2857 15.4062V19.0312C22.2857 19.5297 21.8679 19.9375 21.3571 19.9375H4.64286C4.13214 19.9375 3.71429 19.5297 3.71429 19.0312V15.4062ZM23.2143 3.625H20.4286V0.90625C20.4286 0.407812 20.0107 0 19.5 0H17.6429C17.1321 0 16.7143 0.407812 16.7143 0.90625V3.625H9.28571V0.90625C9.28571 0.407812 8.86786 0 8.35714 0H6.5C5.98929 0 5.57143 0.407812 5.57143 0.90625V3.625H2.78571C1.24777 3.625 0 4.84277 0 6.34375V9.0625H26V6.34375C26 4.84277 24.7522 3.625 23.2143 3.625Z" fill="#FBFBFB"/>
</svg>
