<svg width="105" height="107" viewBox="0 0 105 107" fill="none" xmlns="http://www.w3.org/2000/svg">
<path fill-rule="evenodd" clip-rule="evenodd" d="M91.1446 42.337H104.385C103.347 34.0054 97.5313 15.7802 82.5771 9.53152L88.0291 2.50178L77.125 -4.52795L71.6729 2.50178C64.9227 0.158538 48.3069 -3.12201 35.8451 2.50178L28.0564 -6.09012L19.4889 2.50178L24.9409 9.53152C16.3734 14.7387 -0.450138 31.2456 0.796049 55.6154C2.04224 79.9851 17.4119 91.2848 24.9409 93.8884L19.4889 104.824L31.9507 108.729L35.8451 100.137C43.8934 102.22 62.015 105.136 70.1152 100.137L74.0096 108.729L84.9137 103.261L82.5771 93.8884C90.6253 87.6397 106.255 69.8311 104.385 48.5856H88.0291V58.7397H92.7024C91.4042 65.2487 85.8483 79.8289 74.0096 86.0776C70.6345 82.4325 64.6632 71.8619 67.7786 58.7397H77.125V78.2667L84.9137 67.3316V35.3072L77.125 29.0586V46.2424H67.7786C67.2594 40.2793 68.4017 26.7759 77.125 20.4667C80.5001 22.2892 88.0291 29.2148 91.1446 42.337ZM67.7786 15.7802C54.0706 12.031 42.8549 14.218 38.9605 15.7802C42.3356 21.5081 49.0858 36.557 49.0858 50.9289C49.0858 65.3008 43.8934 82.4325 41.2971 89.2019C51.8898 96.0754 62.3266 92.0659 66.2209 89.2019C63.365 83.7343 57.6533 68.4251 57.6533 50.9289C57.6533 33.4326 64.4035 20.2063 67.7786 15.7802ZM38.9605 46.2424C37.0913 29.371 30.9122 22.0288 28.0564 20.4667C20.2677 25.1532 10.9213 42.337 14.0368 60.3019C17.1523 78.2667 30.393 86.0776 31.9507 86.0776C35.0662 79.8289 37.9221 65.2487 38.9605 58.7397H28.0564V78.2667L19.4889 65.7694V38.4316L28.0564 29.0586V46.2424H38.9605Z" fill="#00B167"/>
</svg>
