<svg width="40" height="40" viewBox="0 0 40 40" fill="none" xmlns="http://www.w3.org/2000/svg">
<path d="M21.7678 6.4696C25.5134 6.90184 28.839 8.69994 31.2194 11.3452C33.5648 13.9559 35 17.3965 35 21.1829C35 25.2805 33.3197 28.9805 30.6068 31.6603C27.8938 34.3402 24.1482 36 20 36C15.8518 36 12.1062 34.3402 9.39323 31.6603C6.68028 28.9805 5 25.2632 5 21.1829C5 17.4138 6.43524 13.9559 8.78063 11.3452C11.161 8.69994 14.4866 6.90184 18.2497 6.4696L18.3897 7.74902C14.9767 8.14668 11.9312 9.78918 9.76079 12.2097C7.60793 14.5956 6.31272 17.725 6.31272 21.1829C6.31272 24.9175 7.85298 28.2889 10.3209 30.744C12.8063 33.1991 16.2194 34.7033 20 34.7033C23.7806 34.7033 27.1937 33.1818 29.6791 30.744C32.1645 28.2889 33.6873 24.9175 33.6873 21.1829C33.6873 17.7423 32.3921 14.5956 30.2392 12.2097C28.0688 9.78918 25.0408 8.16397 21.6278 7.76631L21.7678 6.4696Z" fill="#DADADA"/>
<path d="M20.4726 9.80647C20.2976 9.80647 20.1575 9.65086 20.1575 9.47797C20.1575 9.30508 20.3151 9.16676 20.4901 9.16676C23.7456 9.30508 26.6686 10.6882 28.769 12.8667C30.8693 15.0279 32.1645 17.9671 32.1645 21.1829C32.1645 24.5025 30.7993 27.5109 28.5939 29.6893C26.3886 31.8678 23.3431 33.2164 19.9825 33.2164C16.6219 33.2164 13.5764 31.8678 11.3711 29.6893C9.16569 27.5109 7.80047 24.5025 7.80047 21.1829C7.80047 17.9498 9.09568 15.0106 11.196 12.8494C13.3139 10.6882 16.2369 9.28779 19.4924 9.16676C19.6674 9.16676 19.825 9.30508 19.825 9.47797C19.825 9.65086 19.6849 9.80647 19.5099 9.80647C16.4469 9.9275 13.6814 11.2415 11.6861 13.2989C9.70828 15.3391 8.48308 18.1227 8.48308 21.1829C8.48308 24.3296 9.7783 27.1651 11.8611 29.2225C13.944 31.28 16.832 32.5594 20 32.5594C23.1855 32.5594 26.056 31.28 28.1389 29.2225C30.2217 27.1651 31.5169 24.3123 31.5169 21.1829C31.5169 18.1227 30.2917 15.3564 28.3139 13.2989C26.3186 11.2415 23.5531 9.9275 20.4726 9.80647Z" fill="#DADADA"/>
<path d="M20 11.0167C22.8355 11.0167 25.4084 12.1578 27.2637 13.9905C29.119 15.8232 30.2742 18.3648 30.2742 21.1656C30.2742 23.9665 29.119 26.5081 27.2637 28.3408C25.4084 30.1735 22.8355 31.3146 20 31.3146V30.6748C22.6604 30.6748 25.0583 29.6029 26.8086 27.8912C28.5589 26.1623 29.6266 23.7936 29.6266 21.1656C29.6266 18.5376 28.5414 16.169 26.8086 14.44C25.0583 12.7111 22.6604 11.6564 20 11.6564V11.0167ZM20 31.3318C17.1645 31.3318 14.5916 30.1907 12.7363 28.3581C10.8635 26.5254 9.72579 23.9838 9.72579 21.1829C9.72579 18.382 10.881 15.8405 12.7363 14.0078C14.5916 12.1751 17.1645 11.034 20 11.034V11.6737C17.3396 11.6737 14.9417 12.7457 13.1914 14.4573C11.4411 16.1863 10.3734 18.5549 10.3734 21.1829C10.3734 23.8109 11.4586 26.1796 13.1914 27.9085C14.9417 29.6375 17.3396 30.6921 20 30.6921V31.3318Z" fill="#DADADA"/>
<path d="M21.5753 19.6269C22.0128 20.0591 22.2229 20.6124 22.2229 21.1829C22.2229 21.7535 22.0128 22.3067 21.5753 22.739C21.1377 23.1712 20.5776 23.3787 20 23.3787V22.082C20.2275 22.082 20.4726 21.9955 20.6476 21.8226C20.8226 21.6497 20.9102 21.4077 20.9102 21.1829C20.9102 20.9582 20.8226 20.7161 20.6476 20.5432C20.4726 20.3703 20.2275 20.2839 20 20.2839V18.9872C20.5776 18.9699 21.1377 19.1946 21.5753 19.6269ZM20 23.3787C19.4224 23.3787 18.8623 23.1712 18.4247 22.739C17.9872 22.3067 17.7771 21.7535 17.7771 21.1829C17.7771 20.6124 17.9872 20.0591 18.4247 19.6269C18.8623 19.1946 19.4224 18.9872 20 18.9872V20.2839C19.7725 20.2839 19.5274 20.3703 19.3524 20.5432C19.1774 20.7161 19.0898 20.9582 19.0898 21.1829C19.0898 21.4077 19.1774 21.6497 19.3524 21.8226C19.5274 21.9955 19.7725 22.082 20 22.082V23.3787Z" fill="#DADADA"/>
<path d="M24.5333 16.6877C24.7958 16.947 24.9183 17.2755 24.9183 17.604C24.9183 17.9325 24.7958 18.2783 24.5333 18.5204C24.2707 18.7797 23.9382 18.9007 23.6056 18.9007V17.9325C23.6931 17.9325 23.7806 17.8979 23.8506 17.8288C23.9207 17.7596 23.9557 17.6732 23.9557 17.5867C23.9557 17.5003 23.9207 17.4138 23.8506 17.3447C23.7806 17.2755 23.6931 17.2409 23.6056 17.2409V16.2727C23.9382 16.3073 24.2882 16.4456 24.5333 16.6877ZM23.6056 18.918C23.273 18.918 22.923 18.797 22.6779 18.5376C22.4154 18.2783 22.2929 17.9498 22.2929 17.6213C22.2929 17.2928 22.4154 16.947 22.6779 16.705C22.9405 16.4456 23.273 16.3246 23.6056 16.3246V17.2755C23.5181 17.2755 23.4306 17.3101 23.3606 17.3793C23.2905 17.4484 23.2555 17.5349 23.2555 17.6213C23.2555 17.7078 23.2905 17.7942 23.3606 17.8634C23.4306 17.9325 23.5181 17.9671 23.6056 17.9671V18.918Z" fill="#DADADA"/>
<path d="M17.3221 23.8109C17.5846 24.0703 17.7071 24.3988 17.7071 24.7273C17.7071 25.0558 17.5846 25.4016 17.3221 25.6436C17.0595 25.903 16.727 26.024 16.3944 26.024V25.0558C16.4819 25.0558 16.5694 25.0212 16.6394 24.952C16.7095 24.8829 16.7445 24.7964 16.7445 24.71C16.7445 24.6235 16.7095 24.5371 16.6394 24.4679C16.5694 24.3988 16.4819 24.3642 16.3944 24.3642V23.396C16.727 23.4306 17.077 23.5516 17.3221 23.8109ZM16.3944 26.0413C16.0618 26.0413 15.7118 25.9202 15.4667 25.6609C15.2042 25.4016 15.0817 25.0731 15.0817 24.7446C15.0817 24.4161 15.2042 24.0703 15.4667 23.8282C15.7293 23.5689 16.0618 23.4479 16.3944 23.4479V24.4161C16.3069 24.4161 16.2194 24.4506 16.1494 24.5198C16.0793 24.589 16.0443 24.6754 16.0443 24.7619C16.0443 24.8483 16.0793 24.9347 16.1494 25.0039C16.2194 25.0731 16.3069 25.1076 16.3944 25.1076V26.0413Z" fill="#DADADA"/>
<path d="M16.3944 16.3073C16.727 16.3073 17.077 16.4283 17.3221 16.6877C17.5846 16.947 17.7071 17.2755 17.7071 17.604C17.7071 17.9325 17.5846 18.2783 17.3221 18.5204C17.0595 18.7797 16.727 18.9007 16.3944 18.9007V17.9325C16.4819 17.9325 16.5694 17.8979 16.6394 17.8288C16.7095 17.7942 16.727 17.7078 16.727 17.6213C16.727 17.5349 16.6919 17.4484 16.6219 17.3793C16.5519 17.3101 16.4644 17.2755 16.3769 17.2755V16.3073H16.3944ZM15.4667 16.6877C15.7293 16.4283 16.0618 16.3073 16.3944 16.3073V17.2755C16.3069 17.2755 16.2194 17.3101 16.1494 17.3793C16.0793 17.4484 16.0443 17.5349 16.0443 17.6213C16.0443 17.7078 16.0793 17.7942 16.1494 17.8634C16.2194 17.9325 16.3069 17.9671 16.3944 17.9671V18.9353C16.0618 18.9353 15.7118 18.8143 15.4667 18.5549C15.2042 18.2956 15.0817 17.9671 15.0817 17.6386C15.0642 17.2928 15.2042 16.947 15.4667 16.6877Z" fill="#DADADA"/>
<path d="M23.6056 23.4306C23.9382 23.4306 24.2882 23.5516 24.5333 23.8109C24.7958 24.0703 24.9183 24.3988 24.9183 24.7273C24.9183 25.0558 24.7958 25.4016 24.5333 25.6436C24.2707 25.903 23.9382 26.024 23.6056 26.024V25.0558C23.6931 25.0558 23.7806 25.0212 23.8506 24.952C23.9207 24.8829 23.9557 24.7964 23.9557 24.71C23.9557 24.6235 23.9207 24.5371 23.8506 24.4679C23.7806 24.3988 23.6931 24.3642 23.6056 24.3642V23.4306ZM22.6604 23.8109C22.923 23.5516 23.2555 23.4306 23.5881 23.4306V24.3988C23.5006 24.3988 23.4131 24.4334 23.3431 24.5025C23.273 24.5717 23.238 24.6581 23.238 24.7446C23.238 24.831 23.273 24.9175 23.3431 24.9866C23.4131 25.0558 23.5006 25.0903 23.5881 25.0903V26.0586C23.2555 26.0586 22.9055 25.9375 22.6604 25.6782C22.3979 25.4188 22.2754 25.0904 22.2754 24.7619C22.2754 24.3988 22.4154 24.0703 22.6604 23.8109Z" fill="#DADADA"/>
<path d="M22.3979 17.8979C22.6604 17.6386 23.063 17.6386 23.3256 17.8979C23.5881 18.1573 23.5881 18.5549 23.3256 18.8143L21.7853 20.3357C21.5228 20.5951 21.1202 20.5951 20.8576 20.3357C20.5951 20.0764 20.5951 19.6788 20.8576 19.4194L22.3979 17.8979ZM18.2147 22.0301C18.4772 21.7708 18.8798 21.7708 19.1424 22.0301C19.4049 22.2895 19.4049 22.6871 19.1424 22.9465L17.6021 24.4679C17.3396 24.7273 16.937 24.7273 16.6744 24.4679C16.4119 24.2086 16.4119 23.8109 16.6744 23.5516L18.2147 22.0301Z" fill="#DADADA"/>
<path d="M16.6744 18.8143C16.4119 18.5549 16.4119 18.1573 16.6744 17.8979C16.937 17.6386 17.3396 17.6386 17.6021 17.8979L19.1424 19.4194C19.4049 19.6788 19.4049 20.0764 19.1424 20.3357C18.8798 20.5951 18.4772 20.5951 18.2147 20.3357L16.6744 18.8143ZM20.8576 22.9465C20.5951 22.6871 20.5951 22.2895 20.8576 22.0301C21.1202 21.7708 21.5228 21.7708 21.7853 22.0301L23.3256 23.5516C23.5881 23.8109 23.5881 24.2086 23.3256 24.4679C23.063 24.7273 22.6604 24.7273 22.3979 24.4679L20.8576 22.9465Z" fill="#DADADA"/>
<path d="M19.6674 33.3028C19.6674 33.1299 19.8075 32.9743 20 32.9743C20.175 32.9743 20.3326 33.1127 20.3326 33.3028V35.0837C20.3326 35.2566 20.1925 35.4122 20 35.4122C19.825 35.4122 19.6674 35.2738 19.6674 35.0837V33.3028Z" fill="#DADADA"/>
<path d="M23.3256 7.66258C23.3781 7.48968 23.5531 7.38595 23.7281 7.43781C23.9032 7.48968 24.0082 7.66258 23.9557 7.83547L23.4831 9.56442C23.4306 9.73731 23.2555 9.84105 23.0805 9.78918C22.9055 9.73731 22.8005 9.56442 22.853 9.39152L23.3256 7.66258Z" fill="#DADADA"/>
<path d="M16.4994 32.8014C16.5519 32.6286 16.727 32.5248 16.902 32.5767C17.077 32.6286 17.182 32.8014 17.1295 32.9743L16.6569 34.7033C16.6044 34.8762 16.4294 34.9799 16.2544 34.9281C16.0793 34.8762 15.9743 34.7033 16.0268 34.5304L16.4994 32.8014Z" fill="#DADADA"/>
<path d="M26.7561 8.97658C26.8436 8.82097 27.0537 8.7691 27.2112 8.85555C27.3687 8.942 27.4212 9.14947 27.3337 9.30507L26.4236 10.8438C26.3361 10.9994 26.126 11.0513 25.9685 10.9649C25.811 10.8784 25.7585 10.6709 25.846 10.5153L26.7561 8.97658Z" fill="#DADADA"/>
<path d="M13.5764 31.5047C13.6639 31.3491 13.874 31.2973 14.0315 31.3837C14.189 31.4702 14.2415 31.6776 14.154 31.8332L13.2439 33.372C13.1564 33.5276 12.9463 33.5795 12.7888 33.493C12.6313 33.4066 12.5788 33.1991 12.6663 33.0435L13.5764 31.5047Z" fill="#DADADA"/>
<path d="M29.7141 11.1205C29.8366 10.9994 30.0467 10.9994 30.1692 11.1205C30.2917 11.2415 30.2917 11.449 30.1692 11.57L28.8915 12.8321C28.769 12.9532 28.5589 12.9532 28.4364 12.8321C28.3139 12.7111 28.3139 12.5036 28.4364 12.3826L29.7141 11.1205Z" fill="#DADADA"/>
<path d="M11.091 29.5165C11.2135 29.3954 11.4236 29.3954 11.5461 29.5165C11.6686 29.6375 11.6686 29.845 11.5461 29.966L10.2684 31.2281C10.1459 31.3491 9.93582 31.3491 9.8133 31.2281C9.69078 31.1071 9.69078 30.8996 9.8133 30.7786L11.091 29.5165Z" fill="#DADADA"/>
<path d="M32.0245 13.9559C32.182 13.8695 32.3746 13.9214 32.4796 14.077C32.5671 14.2326 32.5146 14.4228 32.3571 14.5265L30.7993 15.4255C30.6418 15.512 30.4492 15.4601 30.3442 15.3045C30.2567 15.1489 30.3092 14.9587 30.4667 14.855L32.0245 13.9559Z" fill="#DADADA"/>
<path d="M9.2182 26.9576C9.37573 26.8712 9.56826 26.923 9.67328 27.0786C9.76079 27.2342 9.70828 27.4244 9.55076 27.5282L7.993 28.4272C7.83547 28.5137 7.64294 28.4618 7.53792 28.3062C7.45041 28.1506 7.50292 27.9604 7.66044 27.8567L9.2182 26.9576Z" fill="#DADADA"/>
<path d="M33.5122 17.2755C33.6873 17.2236 33.8623 17.3274 33.9148 17.5003C33.9673 17.6732 33.8623 17.8461 33.6873 17.8979L31.937 18.3648C31.762 18.4166 31.5869 18.3129 31.5344 18.14C31.4819 17.9671 31.5869 17.7942 31.762 17.7423L33.5122 17.2755Z" fill="#DADADA"/>
<path d="M8.06301 24.0011C8.23804 23.9492 8.41307 24.053 8.46558 24.2259C8.51809 24.3988 8.41307 24.5717 8.23804 24.6235L6.48775 25.0903C6.31272 25.1422 6.13769 25.0385 6.08518 24.8656C6.03267 24.6927 6.13769 24.5198 6.31272 24.4679L8.06301 24.0011Z" fill="#DADADA"/>
<path d="M34.0723 20.8544C34.2474 20.8544 34.4049 20.9927 34.4049 21.1829C34.4049 21.3558 34.2649 21.5114 34.0723 21.5114H32.2695C32.0945 21.5114 31.937 21.3731 31.937 21.1829C31.937 21.01 32.077 20.8544 32.2695 20.8544H34.0723Z" fill="#DADADA"/>
<path d="M7.73046 20.8544C7.90548 20.8544 8.06301 20.9927 8.06301 21.1829C8.06301 21.3558 7.92299 21.5114 7.73046 21.5114H5.92765C5.75263 21.5114 5.5951 21.3731 5.5951 21.1829C5.5951 21.01 5.73512 20.8544 5.92765 20.8544H7.73046Z" fill="#DADADA"/>
<path d="M33.6873 24.4679C33.8623 24.5198 33.9673 24.6927 33.9148 24.8656C33.8623 25.0385 33.6873 25.1422 33.5122 25.0903L31.762 24.6235C31.5869 24.5717 31.4819 24.3988 31.5344 24.2259C31.5869 24.053 31.762 23.9492 31.937 24.0011L33.6873 24.4679Z" fill="#DADADA"/>
<path d="M8.23804 17.725C8.41307 17.7769 8.51809 17.9498 8.46558 18.1227C8.41307 18.2956 8.23804 18.3993 8.06301 18.3475L6.31272 17.8806C6.13769 17.8288 6.03267 17.6559 6.08518 17.483C6.13769 17.3101 6.31272 17.2064 6.48775 17.2582L8.23804 17.725Z" fill="#DADADA"/>
<path d="M32.3571 27.8567C32.5146 27.9431 32.5671 28.1506 32.4796 28.3062C32.3921 28.4618 32.182 28.5137 32.0245 28.4272L30.4667 27.5282C30.3092 27.4417 30.2567 27.2342 30.3442 27.0786C30.4317 26.923 30.6418 26.8712 30.7993 26.9576L32.3571 27.8567Z" fill="#DADADA"/>
<path d="M9.53326 14.8377C9.69078 14.9241 9.74329 15.1316 9.65578 15.2872C9.56826 15.4428 9.35823 15.4947 9.2007 15.4083L7.64294 14.5092C7.48541 14.4228 7.43291 14.2153 7.52042 14.0597C7.60793 13.9041 7.81797 13.8522 7.9755 13.9387L9.53326 14.8377Z" fill="#DADADA"/>
<path d="M30.1867 30.7786C30.3092 30.8996 30.3092 31.1071 30.1867 31.2281C30.0642 31.3491 29.8541 31.3491 29.7316 31.2281L28.4539 29.966C28.3314 29.845 28.3314 29.6375 28.4539 29.5165C28.5764 29.3954 28.7865 29.3954 28.909 29.5165L30.1867 30.7786Z" fill="#DADADA"/>
<path d="M11.5636 12.3826C11.6861 12.5036 11.6861 12.7111 11.5636 12.8321C11.4411 12.9532 11.231 12.9532 11.1085 12.8321L9.8133 11.57C9.69078 11.449 9.69078 11.2415 9.8133 11.1205C9.93582 10.9994 10.1459 10.9994 10.2684 11.1205L11.5636 12.3826Z" fill="#DADADA"/>
<path d="M27.3162 33.0608C27.4037 33.2164 27.3512 33.4066 27.1937 33.5103C27.0362 33.5968 26.8436 33.5449 26.7386 33.3893L25.8285 31.8505C25.741 31.6949 25.7935 31.5047 25.951 31.401C26.1085 31.3146 26.301 31.3664 26.4061 31.522L27.3162 33.0608Z" fill="#DADADA"/>
<path d="M14.154 10.5153C14.2415 10.6709 14.189 10.8611 14.0315 10.9649C13.874 11.0513 13.6814 10.9994 13.5764 10.8438L12.6663 9.30507C12.5788 9.14947 12.6313 8.95929 12.7888 8.85555C12.9463 8.7691 13.1389 8.82097 13.2439 8.97658L14.154 10.5153Z" fill="#DADADA"/>
<path d="M23.9557 34.5304C24.0082 34.7033 23.9032 34.8762 23.7281 34.9281C23.5531 34.9799 23.3781 34.8762 23.3256 34.7033L22.853 32.9743C22.8005 32.8014 22.9055 32.6286 23.0805 32.5767C23.2555 32.5248 23.4306 32.6286 23.4831 32.8014L23.9557 34.5304Z" fill="#DADADA"/>
<path d="M17.147 9.39152C17.1995 9.56442 17.0945 9.73731 16.9195 9.78918C16.7445 9.84105 16.5694 9.73731 16.5169 9.56442L16.0443 7.83547C15.9918 7.66258 16.0968 7.48968 16.2719 7.43781C16.4469 7.38595 16.6219 7.48968 16.6744 7.66258L17.147 9.39152Z" fill="#DADADA"/>
<path d="M21.2952 9.89292C21.3127 9.72002 21.4877 9.599 21.6628 9.61629C21.8378 9.63357 21.9603 9.80647 21.9428 9.97936L21.7328 11.4144C21.7153 11.5873 21.5403 11.7083 21.3652 11.691C21.1902 11.6737 21.0677 11.5008 21.0852 11.3279L21.2952 9.89292Z" fill="#DADADA"/>
<path d="M18.2497 30.9342C18.2672 30.7613 18.4422 30.6403 18.6173 30.6576C18.7923 30.6748 18.9148 30.8477 18.8973 31.0206L18.6873 32.4557C18.6698 32.6286 18.4947 32.7496 18.3197 32.7323C18.1447 32.715 18.0222 32.5421 18.0397 32.3692L18.2497 30.9342Z" fill="#DADADA"/>
<path d="M24.2182 10.6191C24.2882 10.4635 24.4807 10.377 24.6558 10.4462C24.8308 10.5153 24.9008 10.7055 24.8308 10.8784L24.2532 12.227C24.1832 12.3826 23.9907 12.469 23.8156 12.3999C23.6581 12.3307 23.5706 12.1405 23.6406 11.9677L24.2182 10.6191Z" fill="#DADADA"/>
<path d="M15.7643 30.1562C15.8343 30.0006 16.0268 29.9141 16.2019 29.9833C16.3594 30.0524 16.4469 30.2426 16.3769 30.4155L15.7993 31.7641C15.7293 31.9197 15.5368 32.0061 15.3617 31.937C15.2042 31.8678 15.1167 31.6776 15.1867 31.5047L15.7643 30.1562Z" fill="#DADADA"/>
<path d="M26.8436 12.0541C26.9487 11.9158 27.1587 11.8812 27.2987 12.0022C27.4387 12.106 27.4737 12.3134 27.3512 12.4518L26.4411 13.5929C26.3361 13.7312 26.126 13.7658 25.986 13.6447C25.846 13.541 25.811 13.3335 25.9335 13.1952L26.8436 12.0541Z" fill="#DADADA"/>
<path d="M13.5589 28.7557C13.6639 28.6174 13.874 28.5828 14.014 28.7038C14.154 28.8076 14.189 29.0151 14.0665 29.1534L13.1564 30.2945C13.0513 30.4328 12.8413 30.4674 12.7013 30.3463C12.5613 30.2426 12.5263 30.0351 12.6488 29.8968L13.5589 28.7557Z" fill="#DADADA"/>
<path d="M28.9965 14.1115C29.1365 14.0078 29.3466 14.0251 29.4516 14.1807C29.5566 14.319 29.5391 14.5265 29.3816 14.6302L28.2089 15.512C28.0688 15.6157 27.8588 15.5984 27.7538 15.4428C27.6488 15.3045 27.6663 15.097 27.8238 14.9933L28.9965 14.1115Z" fill="#DADADA"/>
<path d="M11.7911 26.8539C11.9312 26.7501 12.1412 26.7674 12.2462 26.923C12.3512 27.0613 12.3337 27.2688 12.1762 27.3726L11.0035 28.2543C10.8635 28.3581 10.6534 28.3408 10.5484 28.1852C10.4434 28.0468 10.4609 27.8394 10.6184 27.7356L11.7911 26.8539Z" fill="#DADADA"/>
<path d="M30.5368 16.6531C30.7118 16.5839 30.8868 16.6704 30.9568 16.826C31.0268 16.9989 30.9393 17.1718 30.7818 17.2409L29.4166 17.7769C29.2415 17.8461 29.0665 17.7596 28.9965 17.604C28.9265 17.4311 29.014 17.2582 29.1715 17.1891L30.5368 16.6531Z" fill="#DADADA"/>
<path d="M10.5834 24.5717C10.7585 24.5025 10.9335 24.589 11.0035 24.7446C11.0735 24.9175 10.986 25.0903 10.8285 25.1595L9.46324 25.6955C9.28821 25.7646 9.11319 25.6782 9.04317 25.5226C8.97316 25.3497 9.06068 25.1768 9.2182 25.1076L10.5834 24.5717Z" fill="#DADADA"/>
<path d="M31.3769 19.5059C31.5519 19.4886 31.727 19.6096 31.7445 19.7825C31.762 19.9554 31.6394 20.1283 31.4644 20.1456L29.9942 20.3185C29.8191 20.3357 29.6441 20.2147 29.6266 20.0418C29.6091 19.8689 29.7316 19.696 29.9067 19.6788L31.3769 19.5059Z" fill="#DADADA"/>
<path d="M10.0058 22.0474C10.1809 22.0301 10.3559 22.1511 10.3734 22.324C10.3909 22.4969 10.2684 22.6698 10.0933 22.6871L8.6231 22.86C8.44807 22.8773 8.27305 22.7563 8.25554 22.5834C8.23804 22.4105 8.36056 22.2376 8.53559 22.2203L10.0058 22.0474Z" fill="#DADADA"/>
<path d="M31.4294 22.4624C31.6044 22.4796 31.727 22.6525 31.7095 22.8254C31.6919 22.9983 31.5169 23.1194 31.3419 23.1021L29.8891 22.8946C29.7141 22.8773 29.5916 22.7044 29.6091 22.5315C29.6266 22.3586 29.8016 22.2376 29.9767 22.2549L31.4294 22.4624Z" fill="#DADADA"/>
<path d="M10.1284 19.454C10.3034 19.4713 10.4259 19.6442 10.4084 19.8171C10.3909 19.99 10.2159 20.111 10.0408 20.0937L8.5881 19.8862C8.41307 19.8689 8.29055 19.696 8.30805 19.5231C8.32555 19.3503 8.50058 19.2292 8.67561 19.2465L10.1284 19.454Z" fill="#DADADA"/>
<path d="M30.6943 25.3497C30.8693 25.4188 30.9393 25.609 30.8693 25.7819C30.7993 25.9375 30.6068 26.024 30.4317 25.9548L29.0665 25.3843C28.909 25.3151 28.8215 25.1249 28.8915 24.952C28.9615 24.7964 29.154 24.71 29.3291 24.7791L30.6943 25.3497Z" fill="#DADADA"/>
<path d="M10.916 16.9989C11.0735 17.068 11.161 17.2582 11.091 17.4311C11.021 17.5867 10.8285 17.6732 10.6534 17.604L9.28821 17.0335C9.13069 16.9643 9.04317 16.7741 9.11319 16.6012C9.1832 16.4456 9.37573 16.3592 9.55076 16.4283L10.916 16.9989Z" fill="#DADADA"/>
<path d="M29.2415 27.9431C29.3816 28.0468 29.4166 28.2543 29.294 28.3926C29.189 28.531 28.979 28.5655 28.839 28.4445L27.6838 27.5455C27.5438 27.4417 27.5088 27.2342 27.6313 27.0959C27.7363 26.9576 27.9463 26.923 28.0863 27.0441L29.2415 27.9431Z" fill="#DADADA"/>
<path d="M12.3162 14.8204C12.4562 14.9241 12.4912 15.1316 12.3687 15.2699C12.2637 15.4083 12.0537 15.4428 11.9137 15.3218L10.7585 14.4228C10.6184 14.319 10.5834 14.1115 10.706 13.9732C10.811 13.8349 11.021 13.8003 11.161 13.9214L12.3162 14.8204Z" fill="#DADADA"/>
<path d="M27.1587 30.0697C27.2637 30.208 27.2462 30.4155 27.0887 30.5192C26.9487 30.623 26.7386 30.6057 26.6336 30.4501L25.741 29.2917C25.6359 29.1534 25.6534 28.9459 25.811 28.8422C25.951 28.7384 26.161 28.7557 26.266 28.9113L27.1587 30.0697Z" fill="#DADADA"/>
<path d="M14.2415 13.0742C14.3466 13.2125 14.3291 13.42 14.1715 13.5237C14.0315 13.6274 13.8215 13.6102 13.7165 13.4545L12.8238 12.2962C12.7188 12.1578 12.7363 11.9504 12.8938 11.8466C13.0338 11.7429 13.2439 11.7602 13.3489 11.9158L14.2415 13.0742Z" fill="#DADADA"/>
<path d="M24.5858 31.5912C24.6558 31.7641 24.5683 31.937 24.4107 32.0061C24.2357 32.0753 24.0607 31.9888 23.9907 31.8332L23.4481 30.4847C23.3781 30.3118 23.4656 30.1389 23.6231 30.0697C23.7981 30.0006 23.9732 30.087 24.0432 30.2426L24.5858 31.5912Z" fill="#DADADA"/>
<path d="M16.5694 11.8812C16.6394 12.0541 16.5519 12.227 16.3944 12.2962C16.2194 12.3653 16.0443 12.2789 15.9743 12.1233L15.4317 10.7747C15.3617 10.6018 15.4492 10.4289 15.6068 10.3597C15.7818 10.2906 15.9568 10.377 16.0268 10.5326L16.5694 11.8812Z" fill="#DADADA"/>
<path d="M21.6978 32.4211C21.7153 32.594 21.5928 32.7669 21.4177 32.7842C21.2427 32.8014 21.0677 32.6804 21.0502 32.5075L20.8751 31.0552C20.8576 30.8823 20.9802 30.7094 21.1552 30.6921C21.3302 30.6748 21.5053 30.7959 21.5228 30.9688L21.6978 32.4211Z" fill="#DADADA"/>
<path d="M19.1249 11.3107C19.1424 11.4835 19.0198 11.6564 18.8448 11.6737C18.6698 11.691 18.4947 11.57 18.4772 11.3971L18.3022 9.94479C18.2847 9.77189 18.4072 9.599 18.5823 9.58171C18.7573 9.56442 18.9323 9.68544 18.9498 9.85834L19.1249 11.3107Z" fill="#DADADA"/>
<path d="M20 5H22.5904C22.7655 5 22.923 5.13832 22.923 5.3285C22.923 5.39766 22.9055 5.44953 22.8705 5.50139L20.2975 10.5845C20.245 10.7055 20.1225 10.7574 20 10.7574V9.72002L22.0653 5.63971H20V5ZM19.72 5H20.0175V5.63971H19.72V5ZM20 10.7747C19.9475 10.7747 19.895 10.7574 19.86 10.7401C19.79 10.7055 19.7375 10.6537 19.72 10.6018V9.14947L20.0175 9.72002V10.7747H20ZM17.4096 5H19.7025V5.63971H17.9347L19.72 9.14947V10.5845L17.1295 5.46682C17.042 5.31121 17.112 5.12103 17.2695 5.03458C17.3221 5.01729 17.3571 5 17.4096 5Z" fill="#DADADA"/>
</svg>
