<svg width="19" height="19" viewBox="0 0 19 19" fill="none" xmlns="http://www.w3.org/2000/svg">
<path d="M9.5 15.4375C13.7639 15.4375 17.2188 11.9826 17.2188 7.71875C17.2188 3.45488 13.7639 0 9.5 0C5.23613 0 1.78125 3.45488 1.78125 7.71875C1.78125 11.9826 5.23613 15.4375 9.5 15.4375ZM8.67617 3.61445V2.99102C8.67617 2.64961 8.95078 2.375 9.29219 2.375H9.7041C10.0455 2.375 10.3201 2.64961 10.3201 2.99102V3.62188C10.8953 3.65156 11.452 3.84824 11.9158 4.19336C12.1236 4.34551 12.1459 4.64981 11.9604 4.82793L11.3555 5.40313C11.2145 5.54043 11.0029 5.54414 10.8359 5.44023C10.6355 5.31406 10.4129 5.25098 10.1754 5.25098H8.73184C8.39785 5.25098 8.12695 5.55527 8.12695 5.93008C8.12695 6.23438 8.3125 6.50527 8.57598 6.5832L10.8879 7.27715C11.8416 7.56289 12.5096 8.47949 12.5096 9.50742C12.5096 10.7691 11.5299 11.7896 10.3164 11.823V12.4465C10.3164 12.7879 10.0418 13.0625 9.70039 13.0625H9.28848C8.94707 13.0625 8.67246 12.7879 8.67246 12.4465V11.8156C8.09727 11.7859 7.54063 11.5893 7.07676 11.2441C6.86895 11.092 6.84668 10.7877 7.03223 10.6096L7.63711 10.0344C7.77813 9.89707 7.98965 9.89336 8.15664 9.99727C8.35703 10.1234 8.57969 10.1865 8.81719 10.1865H10.2607C10.5947 10.1865 10.8656 9.88223 10.8656 9.50742C10.8656 9.20312 10.6801 8.93223 10.4166 8.8543L8.10469 8.16035C7.15098 7.87461 6.48301 6.95801 6.48301 5.93008C6.48672 4.66836 7.4627 3.64785 8.67617 3.61445ZM17.8125 13.0625H16.6064C15.8791 14.0273 14.9514 14.8326 13.8975 15.4375H16.265C16.4617 15.4375 16.6213 15.5711 16.6213 15.7344V16.3281C16.6213 16.4914 16.4617 16.625 16.265 16.625H2.73125C2.53457 16.625 2.375 16.4914 2.375 16.3281V15.7344C2.375 15.5711 2.53457 15.4375 2.73125 15.4375H5.09883C4.04492 14.8326 3.1209 14.0273 2.38984 13.0625H1.1875C0.530664 13.0625 0 13.5932 0 14.25V17.8125C0 18.4693 0.530664 19 1.1875 19H17.8125C18.4693 19 19 18.4693 19 17.8125V14.25C19 13.5932 18.4693 13.0625 17.8125 13.0625Z" fill="black"/>
</svg>
