<svg width="22" height="13" viewBox="0 0 22 13" fill="none" xmlns="http://www.w3.org/2000/svg">
<path d="M20.9 0H1.1C0.492594 0 0 0.48513 0 1.08333V11.9167C0 12.5149 0.492594 13 1.1 13H20.9C21.5074 13 22 12.5149 22 11.9167V1.08333C22 0.48513 21.5074 0 20.9 0ZM1.65 11.375V9.20833C2.86516 9.20833 3.85 10.1783 3.85 11.375H1.65ZM1.65 3.79167V1.625H3.85C3.85 2.82174 2.86516 3.79167 1.65 3.79167ZM11 9.75C9.48097 9.75 8.25 8.29461 8.25 6.5C8.25 4.70505 9.48131 3.25 11 3.25C12.5187 3.25 13.75 4.70505 13.75 6.5C13.75 8.29529 12.5183 9.75 11 9.75ZM20.35 11.375H18.15C18.15 10.1783 19.1348 9.20833 20.35 9.20833V11.375ZM20.35 3.79167C19.1348 3.79167 18.15 2.82174 18.15 1.625H20.35V3.79167Z" fill="black"/>
</svg>
