<svg width="40" height="40" viewBox="0 0 40 40" fill="none" xmlns="http://www.w3.org/2000/svg">
<path d="M20.0751 5C20.3756 5.03405 20.6093 5.28944 20.626 5.59591V5.61294C20.7095 7.23042 23.4473 10.7719 26.5356 13.9217C29.6072 17.0545 32.9626 19.7446 34.3482 19.6595C34.6821 19.6425 34.9826 19.9149 34.9993 20.2554C35.016 20.5959 34.7489 20.9024 34.415 20.9194C33.0127 21.0045 29.6239 23.7798 26.5189 26.9467C23.4306 30.0965 20.6928 33.5698 20.6093 35L20.0585 34.9659V33.025C21.1268 31.084 23.2803 28.4449 25.6341 26.0443C27.9879 23.6436 30.5754 21.4302 32.4952 20.3405C30.5754 19.353 27.9879 17.2077 25.6341 14.807C23.2803 12.4064 21.1268 9.73326 20.0585 7.69013V5H20.0751ZM5.65184 19.6765C5.68523 19.6765 5.71861 19.6765 5.752 19.6765C7.40467 19.5914 10.7434 16.9694 13.7316 13.9217C16.7197 10.874 19.2905 7.46879 19.374 5.7832C19.374 5.74915 19.374 5.7151 19.374 5.68104V5.66402C19.3573 5.3235 19.6244 5.01703 19.9583 5C19.9917 5 20.0251 5 20.0585 5V7.70715V7.69013C19.0902 9.73326 16.9701 12.4064 14.6163 14.8241C12.2625 17.2247 9.64162 19.3871 7.63838 20.3746C9.64162 21.4642 12.2625 23.6606 14.633 26.0613C16.9868 28.462 19.0902 31.101 20.0585 33.059L20.0751 33.042V34.983L19.3907 34.9489C19.4575 33.5358 16.8199 30.1135 13.7649 26.9807C10.6933 23.8649 7.27112 21.1067 5.65184 20.9535V19.6765ZM5.65184 20.9535C5.63515 20.9535 5.60176 20.9535 5.58507 20.9535C5.2345 20.9364 4.98409 20.63 5.00079 20.2894C5.01748 19.9489 5.30127 19.6765 5.65184 19.6935V20.9535Z" fill="#DADADA"/>
<path d="M11.2275 20.63C11.0606 20.6129 10.927 20.4767 10.927 20.2894C10.9437 20.1192 11.0773 19.983 11.2609 19.983C11.2943 19.983 11.311 19.983 11.3444 19.983C12.3627 19.9319 14.416 18.3314 16.2356 16.4586C18.0552 14.6027 19.6411 12.5085 19.6912 11.4699C19.6912 11.4359 19.6912 11.4188 19.6912 11.3848L20.3089 11.3507C20.3589 12.3553 22.0283 14.5346 23.9314 16.4586C25.8011 18.3825 27.8711 20.0341 28.7391 19.983C28.9061 19.9659 29.0563 20.1022 29.073 20.2894C29.0897 20.4597 28.9562 20.6129 28.7725 20.63C27.7208 20.681 25.4839 18.9614 23.4973 16.9353C22.0116 15.42 20.6594 13.7344 20.0418 12.4915C19.4742 13.7174 18.1554 15.42 16.6863 16.9183C14.7666 18.8763 12.5463 20.5619 11.3778 20.63C11.3277 20.63 11.2776 20.63 11.2275 20.63Z" fill="#DADADA"/>
</svg>
