<svg width="21" height="16" viewBox="0 0 21 16" fill="none" xmlns="http://www.w3.org/2000/svg">
<path d="M0 14.2857C0 15.2321 0.783854 16 1.75 16H19.25C20.2161 16 21 15.2321 21 14.2857V8H0V14.2857ZM7 11.8571C7 11.6214 7.19687 11.4286 7.4375 11.4286H12.3958C12.6365 11.4286 12.8333 11.6214 12.8333 11.8571V13.2857C12.8333 13.5214 12.6365 13.7143 12.3958 13.7143H7.4375C7.19687 13.7143 7 13.5214 7 13.2857V11.8571ZM2.33333 11.8571C2.33333 11.6214 2.53021 11.4286 2.77083 11.4286H5.39583C5.63646 11.4286 5.83333 11.6214 5.83333 11.8571V13.2857C5.83333 13.5214 5.63646 13.7143 5.39583 13.7143H2.77083C2.53021 13.7143 2.33333 13.5214 2.33333 13.2857V11.8571ZM21 1.71429V3.42857H0V1.71429C0 0.767857 0.783854 0 1.75 0H19.25C20.2161 0 21 0.767857 21 1.71429Z" fill="black"/>
</svg>
