<svg width="40" height="40" viewBox="0 0 40 40" fill="none" xmlns="http://www.w3.org/2000/svg">
<path d="M16.8469 4H27.0965C27.5291 4 27.9285 4.18573 28.228 4.47277C28.5108 4.7598 28.6938 5.16503 28.6938 5.62091V33.3791C28.6938 33.8181 28.5108 34.2233 28.228 34.5272C27.9451 34.8143 27.5458 35 27.0965 35H16.8469V33.7337H27.0965C27.1963 33.7337 27.2795 33.6999 27.3461 33.6324C27.4127 33.5648 27.4459 33.4804 27.4459 33.3791V5.62091C27.4459 5.51961 27.4127 5.43519 27.3461 5.36765C27.2795 5.30011 27.1963 5.26634 27.0965 5.26634H16.8469V4ZM6.59734 4H16.8469V5.26634H6.59734C6.4975 5.26634 6.41431 5.30011 6.34775 5.36765C6.2812 5.43519 6.24792 5.51961 6.24792 5.62091V33.3791C6.24792 33.4804 6.2812 33.5648 6.34775 33.6324C6.41431 33.6999 6.4975 33.7337 6.59734 33.7337H16.8469V35H6.59734C6.16473 35 5.76539 34.8143 5.46589 34.5272C5.18303 34.2233 5 33.8181 5 33.3791V5.62091C5 5.18192 5.18303 4.77669 5.46589 4.47277C5.76539 4.18573 6.16473 4 6.59734 4Z" fill="#DADADA"/>
<path d="M16.8469 8.11983H24.3344C24.6839 8.11983 24.9501 8.40687 24.9501 8.74456V16.3426C24.9501 16.6972 24.6672 16.9673 24.3344 16.9673H16.8469V15.701H23.7022V9.36928H16.8469V8.11983ZM9.3594 8.11983H16.8469V9.38617H9.99168V15.7179H16.8469V16.9842H9.3594C9.00998 16.9842 8.74376 16.6972 8.74376 16.3595V8.76144C8.74376 8.38998 9.02662 8.11983 9.3594 8.11983Z" fill="#DADADA"/>
<path d="M18.7105 8.74456C18.7105 8.38998 18.9934 8.11983 19.3261 8.11983C19.6589 8.11983 19.9418 8.40687 19.9418 8.74456V16.3426C19.9418 16.6972 19.6589 16.9673 19.3261 16.9673C18.9934 16.9673 18.7105 16.6803 18.7105 16.3426V8.74456Z" fill="#DADADA"/>
<path d="M13.7188 8.74456C13.7188 8.38998 14.0017 8.11983 14.3344 8.11983C14.6839 8.11983 14.9501 8.40687 14.9501 8.74456V16.3426C14.9501 16.6972 14.6672 16.9673 14.3344 16.9673C13.985 16.9673 13.7188 16.6803 13.7188 16.3426V8.74456Z" fill="#DADADA"/>
<path d="M6.24793 24.5654C5.89851 24.5654 5.63229 24.2783 5.63229 23.9406C5.63229 23.5861 5.91515 23.3159 6.24793 23.3159H27.7454C28.0949 23.3159 28.3611 23.6029 28.3611 23.9406C28.3611 24.2952 28.0782 24.5654 27.7454 24.5654H6.24793Z" fill="#DADADA"/>
<path d="M16.8469 26.4564H24.0183C24.3677 26.4564 24.634 26.7435 24.634 27.0812V30.2386C24.634 30.5931 24.3511 30.8633 24.0183 30.8633H16.8469V29.5969H23.386V27.7059H16.8469V26.4564ZM9.67554 26.4564H16.8469V27.7228H10.2912V29.6138H16.8303V30.8802H9.67554C9.32613 30.8802 9.0599 30.5931 9.0599 30.2554V27.098C9.0599 26.7435 9.32613 26.4564 9.67554 26.4564Z" fill="#DADADA"/>
<path d="M16.8469 18.5545C17.2795 18.5545 17.6622 18.7233 17.9451 19.0103C18.228 19.2974 18.3944 19.6857 18.3944 20.1247C18.3944 20.5637 18.228 20.9521 17.9451 21.2391C17.6622 21.5261 17.2795 21.695 16.8469 21.695V21.0703C17.1132 21.0703 17.3461 20.969 17.5125 20.8001C17.6789 20.6313 17.7787 20.3949 17.7787 20.1247C17.7787 19.8546 17.6789 19.6182 17.5125 19.4493C17.3461 19.2805 17.1132 19.1792 16.8469 19.1792V18.5545ZM16.8469 21.7119C16.4143 21.7119 16.0316 21.543 15.7488 21.256C15.4659 20.969 15.2995 20.5806 15.2995 20.1416C15.2995 19.7026 15.4659 19.3143 15.7488 19.0272C16.0316 18.7402 16.4143 18.5714 16.8469 18.5714V19.1961C16.5807 19.1961 16.3478 19.2974 16.1814 19.4662C16.015 19.6351 15.9151 19.8715 15.9151 20.1416C15.9151 20.4118 16.015 20.6481 16.1814 20.817C16.3478 20.9858 16.5807 21.0871 16.8469 21.0871V21.7119Z" fill="#DADADA"/>
<path d="M10.9401 18.5545C11.3727 18.5545 11.7554 18.7233 12.0383 19.0103C12.3211 19.2974 12.4875 19.6857 12.4875 20.1247C12.4875 20.5637 12.3211 20.9521 12.0383 21.2391C11.7554 21.5261 11.3727 21.695 10.9401 21.695V21.0703C11.2063 21.0703 11.4393 20.969 11.6057 20.8001C11.7721 20.6313 11.8719 20.3949 11.8719 20.1247C11.8719 19.8546 11.7721 19.6182 11.6057 19.4493C11.4393 19.2805 11.2063 19.1792 10.9401 19.1792V18.5545ZM10.9401 21.7119C10.5075 21.7119 10.1248 21.543 9.84193 21.256C9.55907 20.969 9.39268 20.5806 9.39268 20.1416C9.39268 19.7026 9.55907 19.3143 9.84193 19.0272C10.1248 18.7402 10.5075 18.5714 10.9401 18.5714V19.1961C10.6739 19.1961 10.4409 19.2974 10.2745 19.4662C10.1082 19.6351 10.0083 19.8715 10.0083 20.1416C10.0083 20.4118 10.1082 20.6481 10.2745 20.817C10.4409 20.9858 10.6739 21.0871 10.9401 21.0871V21.7119Z" fill="#DADADA"/>
<path d="M22.7538 18.5545C23.1864 18.5545 23.5691 18.7233 23.8519 19.0103C24.1348 19.2974 24.3012 19.6857 24.3012 20.1247C24.3012 20.5637 24.1348 20.9521 23.8519 21.2391C23.5691 21.5261 23.1864 21.695 22.7538 21.695V21.0703C23.02 21.0703 23.2529 20.969 23.4193 20.8001C23.5857 20.6313 23.6855 20.3949 23.6855 20.1247C23.6855 19.8546 23.5857 19.6182 23.4193 19.4493C23.2529 19.2805 23.02 19.1792 22.7538 19.1792V18.5545ZM22.7538 21.7119C22.3211 21.7119 21.9384 21.543 21.6556 21.256C21.3727 20.969 21.2063 20.5806 21.2063 20.1416C21.2063 19.7026 21.3727 19.3143 21.6556 19.0272C21.9384 18.7402 22.3211 18.5714 22.7538 18.5714V19.1961C22.4875 19.1961 22.2546 19.2974 22.0882 19.4662C21.9218 19.6351 21.822 19.8715 21.822 20.1416C21.822 20.4118 21.9218 20.6481 22.0882 20.817C22.2546 20.9858 22.4875 21.0871 22.7538 21.0871V21.7119Z" fill="#DADADA"/>
<path d="M17.7621 10.5005V11.1084L16.8968 14.5866H16.3145L17.1631 11.1084H15.9318V10.5005H17.7621Z" fill="#DADADA"/>
<path d="M12.6872 10.5005V11.1084L11.8386 14.5866H11.2396L12.0882 11.1084H10.8569V10.5005H12.6872Z" fill="#DADADA"/>
<path d="M22.6206 10.5005V11.1084L21.772 14.5866H21.173L22.0216 11.1084H20.7903V10.5005H22.6206Z" fill="#DADADA"/>
<path d="M29.6922 16.9673H29.193V15.701H30.3245C30.6739 15.701 30.9401 15.988 30.9401 16.3257V25.342C30.9401 25.6966 30.6572 25.9668 30.3245 25.9668H29.193V24.7004H29.6922V16.9673ZM29.193 16.9673H28.6938V24.7173H29.193V25.9837H28.0616C27.7122 25.9837 27.4459 25.6966 27.4459 25.3589V16.3426C27.4459 15.988 27.7288 15.7179 28.0616 15.7179H29.193V16.9673Z" fill="#DADADA"/>
<path d="M33.1697 20.2598H32.3544V18.9935H33.1697C33.6689 18.9935 34.1348 19.1961 34.4676 19.5338C34.8003 19.8715 35 20.3273 35 20.8508C35 21.3573 34.8003 21.8301 34.4676 22.1678C34.1348 22.5054 33.6855 22.7081 33.1697 22.7081H32.3544V21.4417H33.1697C33.3361 21.4417 33.4692 21.3742 33.5857 21.2729C33.6855 21.1716 33.7521 21.0196 33.7521 20.8508C33.7521 20.6819 33.6855 20.5468 33.5857 20.4286C33.4692 20.3273 33.3195 20.2598 33.1697 20.2598ZM32.3378 20.2598H30.9401V21.4417H32.3378V22.7081H30.3078C29.9584 22.7081 29.6922 22.421 29.6922 22.0833V19.6182C29.6922 19.2636 29.975 18.9935 30.3078 18.9935H32.3378V20.2598Z" fill="#DADADA"/>
<path d="M31.8053 8.74456C31.8053 8.38998 32.0882 8.11983 32.421 8.11983C32.7704 8.11983 33.0366 8.40687 33.0366 8.74456V19.4156C33.0366 19.7702 32.7538 20.0403 32.421 20.0403C32.0716 20.0403 31.8053 19.7533 31.8053 19.4156V8.74456Z" fill="#DADADA"/>
<path d="M31.406 8.99782C31.0566 8.99782 30.7904 8.71079 30.7904 8.3731C30.7904 8.01852 31.0732 7.74837 31.406 7.74837H33.4359C33.7854 7.74837 34.0516 8.0354 34.0516 8.3731C34.0516 8.72767 33.7687 8.99782 33.4359 8.99782H31.406Z" fill="#DADADA"/>
</svg>
