<svg width="24" height="24" viewBox="0 0 24 24" fill="none" xmlns="http://www.w3.org/2000/svg">
<path d="M5.30891 5.73939C5.6893 4.69131 6.25333 3.79389 7.02723 3.02748C10.6213 -0.529444 16.7534 0.780657 18.5701 5.49702C18.6488 5.70009 18.7472 5.73939 18.944 5.73939C19.6326 5.73939 20.3278 5.69354 21.0033 5.77869C22.197 5.9359 22.9971 6.91193 22.9971 8.13687C23.0036 10.5475 22.9971 12.958 22.9971 15.3686C22.9971 17.0849 22.9971 18.8011 22.9971 20.5173C22.9971 21.9912 21.9936 22.9934 20.518 23C14.8384 23 9.15873 23 3.4791 23C2.01 23.0065 1 22.0043 1 20.5304C1 16.4298 1 12.3226 1 8.22203C1 6.74817 2.00344 5.74594 3.4791 5.74594C4.08904 5.73939 4.69241 5.73939 5.30891 5.73939ZM21.4296 12.8074C21.4296 12.3161 21.4296 11.8576 21.4296 11.4056C21.4296 10.744 21.141 10.4558 20.4721 10.4558C15.2712 10.4558 10.0638 10.4558 4.86293 10.4558C4.10871 10.4558 3.34793 10.4296 2.57403 10.423C2.57403 10.4492 2.57403 10.5409 2.57403 10.6261C2.57403 13.9144 2.57403 17.1962 2.57403 20.4846C2.57403 21.1658 2.85605 21.4475 3.54468 21.4475C9.18496 21.4475 14.8187 21.4475 20.459 21.4475C20.4852 21.4475 20.5049 21.4475 20.5311 21.4475C21.1214 21.4475 21.4296 21.1396 21.4296 20.5632C21.4296 20.1374 21.4296 19.7116 21.4296 19.2858C21.4296 19.2269 21.4165 19.1614 21.4099 19.0893C20.5836 19.0893 19.7703 19.1024 18.9636 19.0893C17.3437 19.0566 15.973 17.6875 15.9336 16.0695C15.8877 14.2616 17.2847 12.8205 19.0948 12.8139C19.8621 12.8008 20.6295 12.8074 21.4296 12.8074ZM12.8118 4.30483C12.8905 4.34413 12.9823 4.37688 13.0676 4.42274C13.8874 4.87472 14.3268 5.56908 14.353 6.5058C14.3661 6.84642 14.1563 7.13465 13.8546 7.25256C13.343 7.44907 12.8249 7.10189 12.7856 6.52545C12.7462 5.99486 12.3133 5.64768 11.8346 5.75249C11.4476 5.8442 11.1853 6.19137 11.2115 6.57785C11.2443 6.97743 11.5591 7.28531 11.9789 7.29841C12.9954 7.33771 13.73 7.80935 14.1694 8.73297C14.2022 8.79847 14.3268 8.86398 14.4055 8.86398C15.363 8.87053 16.3206 8.87053 17.2781 8.87053C17.3306 8.87053 17.383 8.85743 17.4355 8.85088C17.7569 6.68266 16.7206 4.50789 14.8187 3.37466C12.9167 2.23487 10.5098 2.35278 8.71931 3.67598C6.83703 5.07779 6.273 7.33771 6.58125 8.87053C8.24054 8.87053 9.90639 8.87053 11.5722 8.87053C11.546 8.83778 11.5198 8.83123 11.487 8.82468C10.4507 8.55611 9.74243 7.75039 9.65061 6.74162C9.55879 5.72629 10.0966 4.80922 11.0738 4.36378C11.2115 4.29828 11.2115 4.21312 11.2181 4.09521C11.2509 3.72838 11.5329 3.44016 11.8936 3.38776C12.2478 3.33535 12.6085 3.54497 12.7331 3.89215C12.7724 4.01661 12.779 4.14762 12.8118 4.30483ZM21.4165 14.373C21.3312 14.373 21.2657 14.373 21.2066 14.373C20.4458 14.373 19.6851 14.3468 18.9243 14.3861C18.0979 14.4254 17.4749 15.1656 17.5011 15.9975C17.5273 16.8097 18.1897 17.4844 19.0095 17.5106C19.403 17.5237 19.7966 17.5106 20.1835 17.5172C20.5901 17.5172 20.9968 17.5172 21.4099 17.5172C21.4165 16.4626 21.4165 15.4341 21.4165 14.373ZM19.0489 8.92293C19.8359 8.92293 20.6229 8.92293 21.4231 8.92293C21.4231 8.66091 21.4362 8.33994 21.4165 8.02551C21.3968 7.67179 21.1214 7.34426 20.7738 7.32461C20.1966 7.29186 19.6195 7.31806 19.0489 7.31806C19.0489 7.8421 19.0489 8.33994 19.0489 8.92293ZM4.9154 7.31151C4.36449 7.31151 3.83981 7.30496 3.3217 7.31151C2.92163 7.31806 2.60682 7.63248 2.57403 8.01896C2.54124 8.41199 2.81014 8.82468 3.2102 8.85088C3.77423 8.89018 4.34482 8.86398 4.92196 8.86398C4.9154 8.34649 4.9154 7.8421 4.9154 7.31151Z" fill="#3D0B0B"/>
</svg>
