<svg width="21" height="24" viewBox="0 0 21 24" fill="none" xmlns="http://www.w3.org/2000/svg">
<path d="M18.0588 2H21V16H18.0588V2Z" fill="#DADADA"/>
<path d="M14.5294 6H17.4706V17H14.5294V6Z" fill="#DADADA"/>
<path d="M11 3H13.9412V14H11V3Z" fill="#DADADA"/>
<path d="M15.7059 4H16.2941V18H15.7059V4Z" fill="#DADADA"/>
<path d="M19.2353 0H19.8235V18H19.2353V0Z" fill="#DADADA"/>
<path d="M12.1765 1H12.7647V16H12.1765V1Z" fill="#DADADA"/>
<path d="M7.05882 8H10V22H7.05882V8Z" fill="#DADADA"/>
<path d="M3.52941 12H6.47059V23H3.52941V12Z" fill="#DADADA"/>
<path d="M0 9H2.94118V20H0V9Z" fill="#DADADA"/>
<path d="M4.70588 10H5.29412V24H4.70588V10Z" fill="#DADADA"/>
<path d="M8.23529 6H8.82353V24H8.23529V6Z" fill="#DADADA"/>
<path d="M1.17647 7H1.76471V22H1.17647V7Z" fill="#DADADA"/>
</svg>
