<svg width="26" height="27" viewBox="0 0 26 27" fill="none" xmlns="http://www.w3.org/2000/svg">
<path d="M14.5321 1.27998C17.7783 1.65644 20.6604 3.22253 22.7235 5.52649C24.7561 7.80033 26 10.797 26 14.0948C26 17.6637 24.5438 20.8862 22.1925 23.2203C19.8413 25.5544 16.5951 27 13 27C9.4049 27 6.15869 25.5544 3.80747 23.2203C1.45624 20.8862 0 17.6486 0 14.0948C0 10.812 1.24387 7.80033 3.27655 5.52649C5.33956 3.22253 8.2217 1.65644 11.4831 1.27998L11.6044 2.39431C8.64644 2.74066 6.007 4.17122 4.12602 6.27942C2.26021 8.3575 1.13769 11.0831 1.13769 14.0948C1.13769 17.3475 2.47258 20.2839 4.61144 22.4222C6.76546 24.5605 9.72345 25.8706 13 25.8706C16.2765 25.8706 19.2345 24.5455 21.3886 22.4222C23.5426 20.2839 24.8623 17.3475 24.8623 14.0948C24.8623 11.0982 23.7398 8.3575 21.874 6.27942C19.993 4.17122 17.3687 2.75572 14.4107 2.40937L14.5321 1.27998Z" fill="#DADADA"/>
<path d="M13.4096 4.18628C13.2579 4.18628 13.1365 4.05075 13.1365 3.90017C13.1365 3.74958 13.273 3.62911 13.4247 3.62911C16.2462 3.74958 18.7795 4.95427 20.5998 6.85164C22.4201 8.73396 23.5426 11.2939 23.5426 14.0948C23.5426 16.9861 22.3594 19.6062 20.4481 21.5036C18.5368 23.401 15.8973 24.5756 12.9848 24.5756C10.0723 24.5756 7.43291 23.401 5.52159 21.5036C3.61027 19.6062 2.42707 16.9861 2.42707 14.0948C2.42707 11.2789 3.54959 8.71891 5.3699 6.83659C7.20537 4.95427 9.73862 3.73452 12.5601 3.62911C12.7118 3.62911 12.8483 3.74958 12.8483 3.90017C12.8483 4.05075 12.727 4.18628 12.5753 4.18628C9.92065 4.29169 7.52392 5.43614 5.79463 7.22811C4.08051 9.00502 3.01867 11.4294 3.01867 14.0948C3.01867 16.8355 4.14119 19.3051 5.94632 21.097C7.75146 22.889 10.2544 24.0033 13 24.0033C15.7608 24.0033 18.2485 22.889 20.0537 21.097C21.8588 19.3051 22.9813 16.8204 22.9813 14.0948C22.9813 11.4294 21.9195 9.02008 20.2054 7.22811C18.4761 5.43614 16.0793 4.29169 13.4096 4.18628Z" fill="#DADADA"/>
<path d="M13 5.24038C15.4574 5.24038 17.6873 6.23424 19.2952 7.83045C20.9032 9.42666 21.9043 11.6403 21.9043 14.0798C21.9043 16.5192 20.9032 18.7328 19.2952 20.3291C17.6873 21.9253 15.4574 22.9191 13 22.9191V22.362C15.3057 22.362 17.3839 21.4283 18.9008 19.9375C20.4177 18.4317 21.3431 16.3687 21.3431 14.0798C21.3431 11.7909 20.4026 9.72783 18.9008 8.22197C17.3839 6.71612 15.3057 5.79755 13 5.79755V5.24038ZM13 22.9342C10.5426 22.9342 8.31272 21.9403 6.70478 20.3441C5.08168 18.7479 4.09568 16.5343 4.09568 14.0948C4.09568 11.6553 5.09685 9.44172 6.70478 7.84551C8.31272 6.2493 10.5426 5.25544 13 5.25544V5.8126C10.6943 5.8126 8.6161 6.74624 7.09918 8.23703C5.58226 9.74289 4.65694 11.8059 4.65694 14.0948C4.65694 16.3837 5.59743 18.4467 7.09918 19.9526C8.6161 21.4584 10.6943 22.377 13 22.377V22.9342Z" fill="#DADADA"/>
<path d="M14.3652 12.7395C14.7445 13.116 14.9265 13.5979 14.9265 14.0948C14.9265 14.5917 14.7445 15.0736 14.3652 15.4501C13.986 15.8265 13.5006 16.0072 13 16.0072V14.8779C13.1972 14.8779 13.4096 14.8026 13.5613 14.652C13.713 14.5014 13.7888 14.2906 13.7888 14.0948C13.7888 13.8991 13.713 13.6882 13.5613 13.5376C13.4096 13.3871 13.1972 13.3118 13 13.3118V12.1824C13.5006 12.1673 13.986 12.3631 14.3652 12.7395ZM13 16.0072C12.4994 16.0072 12.014 15.8265 11.6348 15.4501C11.2555 15.0736 11.0735 14.5917 11.0735 14.0948C11.0735 13.5979 11.2555 13.116 11.6348 12.7395C12.014 12.3631 12.4994 12.1824 13 12.1824V13.3118C12.8028 13.3118 12.5904 13.3871 12.4387 13.5376C12.287 13.6882 12.2112 13.8991 12.2112 14.0948C12.2112 14.2906 12.287 14.5014 12.4387 14.652C12.5904 14.8026 12.8028 14.8779 13 14.8779V16.0072Z" fill="#DADADA"/>
<path d="M16.9288 10.1796C17.1564 10.4055 17.2625 10.6916 17.2625 10.9777C17.2625 11.2638 17.1564 11.565 16.9288 11.7758C16.7013 12.0017 16.4131 12.1071 16.1249 12.1071V11.2638C16.2007 11.2638 16.2765 11.2337 16.3372 11.1735C16.3979 11.1132 16.4282 11.0379 16.4282 10.9626C16.4282 10.8873 16.3979 10.812 16.3372 10.7518C16.2765 10.6916 16.2007 10.6615 16.1249 10.6615V9.81818C16.4131 9.8483 16.7165 9.96877 16.9288 10.1796ZM16.1249 12.1221C15.8366 12.1221 15.5333 12.0167 15.3209 11.7909C15.0933 11.565 14.9872 11.2789 14.9872 10.9927C14.9872 10.7066 15.0933 10.4055 15.3209 10.1946C15.5484 9.96877 15.8366 9.86336 16.1249 9.86336V10.6916C16.049 10.6916 15.9732 10.7217 15.9125 10.7819C15.8518 10.8422 15.8215 10.9175 15.8215 10.9927C15.8215 11.068 15.8518 11.1433 15.9125 11.2036C15.9732 11.2638 16.049 11.2939 16.1249 11.2939V12.1221Z" fill="#DADADA"/>
<path d="M10.6791 16.3837C10.9067 16.6096 11.0128 16.8957 11.0128 17.1818C11.0128 17.4679 10.9067 17.7691 10.6791 17.9799C10.4516 18.2058 10.1634 18.3112 9.87515 18.3112V17.4679C9.95099 17.4679 10.0268 17.4378 10.0875 17.3776C10.1482 17.3173 10.1785 17.2421 10.1785 17.1668C10.1785 17.0915 10.1482 17.0162 10.0875 16.9559C10.0268 16.8957 9.95099 16.8656 9.87515 16.8656V16.0223C10.1634 16.0524 10.4667 16.1578 10.6791 16.3837ZM9.87515 18.3263C9.58693 18.3263 9.28355 18.2209 9.07118 17.995C8.84364 17.7691 8.73746 17.483 8.73746 17.1969C8.73746 16.9108 8.84364 16.6096 9.07118 16.3988C9.29872 16.1729 9.58693 16.0675 9.87515 16.0675V16.9108C9.7993 16.9108 9.72345 16.9409 9.66278 17.0011C9.6021 17.0613 9.57176 17.1366 9.57176 17.2119C9.57176 17.2872 9.6021 17.3625 9.66278 17.4228C9.72345 17.483 9.7993 17.5131 9.87515 17.5131V18.3263Z" fill="#DADADA"/>
<path d="M9.87515 9.8483C10.1634 9.8483 10.4667 9.95371 10.6791 10.1796C10.9067 10.4055 11.0128 10.6916 11.0128 10.9777C11.0128 11.2638 10.9067 11.565 10.6791 11.7758C10.4516 12.0017 10.1634 12.1071 9.87515 12.1071V11.2638C9.95099 11.2638 10.0268 11.2337 10.0875 11.1735C10.1482 11.1433 10.1634 11.068 10.1634 10.9927C10.1634 10.9175 10.133 10.8422 10.0723 10.7819C10.0117 10.7217 9.93582 10.6916 9.85998 10.6916V9.8483H9.87515ZM9.07118 10.1796C9.29872 9.95371 9.58693 9.8483 9.87515 9.8483V10.6916C9.7993 10.6916 9.72345 10.7217 9.66278 10.7819C9.6021 10.8422 9.57176 10.9175 9.57176 10.9927C9.57176 11.068 9.6021 11.1433 9.66278 11.2036C9.72345 11.2638 9.7993 11.2939 9.87515 11.2939V12.1372C9.58693 12.1372 9.28355 12.0318 9.07118 11.8059C8.84364 11.58 8.73746 11.2939 8.73746 11.0078C8.72229 10.7066 8.84364 10.4055 9.07118 10.1796Z" fill="#DADADA"/>
<path d="M16.1249 16.0524C16.4131 16.0524 16.7165 16.1578 16.9288 16.3837C17.1564 16.6096 17.2625 16.8957 17.2625 17.1818C17.2625 17.4679 17.1564 17.7691 16.9288 17.9799C16.7013 18.2058 16.4131 18.3112 16.1249 18.3112V17.4679C16.2007 17.4679 16.2765 17.4378 16.3372 17.3776C16.3979 17.3173 16.4282 17.2421 16.4282 17.1668C16.4282 17.0915 16.3979 17.0162 16.3372 16.9559C16.2765 16.8957 16.2007 16.8656 16.1249 16.8656V16.0524ZM15.3057 16.3837C15.5333 16.1578 15.8215 16.0524 16.1097 16.0524V16.8957C16.0338 16.8957 15.958 16.9258 15.8973 16.9861C15.8366 17.0463 15.8063 17.1216 15.8063 17.1969C15.8063 17.2722 15.8366 17.3475 15.8973 17.4077C15.958 17.4679 16.0338 17.498 16.1097 17.498V18.3413C15.8215 18.3413 15.5181 18.2359 15.3057 18.01C15.0782 17.7842 14.972 17.498 14.972 17.2119C14.972 16.8957 15.0934 16.6096 15.3057 16.3837Z" fill="#DADADA"/>
<path d="M15.0782 11.2337C15.3057 11.0078 15.6546 11.0078 15.8821 11.2337C16.1097 11.4596 16.1097 11.8059 15.8821 12.0318L14.5473 13.3569C14.3197 13.5828 13.9708 13.5828 13.7433 13.3569C13.5158 13.1311 13.5158 12.7847 13.7433 12.5588L15.0782 11.2337ZM11.4527 14.8327C11.6803 14.6068 12.0292 14.6068 12.2567 14.8327C12.4842 15.0586 12.4842 15.4049 12.2567 15.6308L10.9218 16.9559C10.6943 17.1818 10.3454 17.1818 10.1179 16.9559C9.89032 16.7301 9.89032 16.3837 10.1179 16.1578L11.4527 14.8327Z" fill="#DADADA"/>
<path d="M10.1179 12.0318C9.89032 11.8059 9.89032 11.4596 10.1179 11.2337C10.3454 11.0078 10.6943 11.0078 10.9218 11.2337L12.2567 12.5588C12.4842 12.7847 12.4842 13.1311 12.2567 13.3569C12.0292 13.5828 11.6803 13.5828 11.4527 13.3569L10.1179 12.0318ZM13.7433 15.6308C13.5158 15.4049 13.5158 15.0586 13.7433 14.8327C13.9708 14.6068 14.3197 14.6068 14.5473 14.8327L15.8821 16.1578C16.1097 16.3837 16.1097 16.7301 15.8821 16.9559C15.6546 17.1818 15.3057 17.1818 15.0782 16.9559L13.7433 15.6308Z" fill="#DADADA"/>
<path d="M12.7118 24.6509C12.7118 24.5003 12.8331 24.3648 13 24.3648C13.1517 24.3648 13.2882 24.4852 13.2882 24.6509V26.2019C13.2882 26.3525 13.1669 26.488 13 26.488C12.8483 26.488 12.7118 26.3675 12.7118 26.2019V24.6509Z" fill="#DADADA"/>
<path d="M15.8821 2.31902C15.9277 2.16843 16.0793 2.07808 16.231 2.12326C16.3827 2.16843 16.4737 2.31902 16.4282 2.4696L16.0187 3.97546C15.9732 4.12605 15.8215 4.2164 15.6698 4.17122C15.5181 4.12605 15.4271 3.97546 15.4726 3.82487L15.8821 2.31902Z" fill="#DADADA"/>
<path d="M9.96616 24.2142C10.0117 24.0636 10.1634 23.9732 10.3151 24.0184C10.4667 24.0636 10.5578 24.2142 10.5123 24.3648L10.1027 25.8706C10.0572 26.0212 9.90549 26.1115 9.75379 26.0664C9.6021 26.0212 9.51109 25.8706 9.55659 25.72L9.96616 24.2142Z" fill="#DADADA"/>
<path d="M18.8553 3.46347C18.9312 3.32794 19.1132 3.28277 19.2497 3.35806C19.3862 3.43335 19.4317 3.61405 19.3559 3.74958L18.5671 5.08979C18.4912 5.22532 18.3092 5.2705 18.1727 5.1952C18.0362 5.11991 17.9907 4.93921 18.0665 4.80368L18.8553 3.46347Z" fill="#DADADA"/>
<path d="M7.43291 23.0848C7.50875 22.9492 7.69078 22.9041 7.8273 22.9794C7.96383 23.0547 8.00933 23.2354 7.93349 23.3709L7.14469 24.7111C7.06884 24.8466 6.88681 24.8918 6.75029 24.8165C6.61377 24.7412 6.56826 24.5605 6.64411 24.425L7.43291 23.0848Z" fill="#DADADA"/>
<path d="M21.4189 5.33073C21.5251 5.22532 21.7071 5.22532 21.8133 5.33073C21.9195 5.43614 21.9195 5.61684 21.8133 5.72225L20.706 6.82153C20.5998 6.92694 20.4177 6.92694 20.3116 6.82153C20.2054 6.71612 20.2054 6.53542 20.3116 6.43001L21.4189 5.33073Z" fill="#DADADA"/>
<path d="M5.27888 21.353C5.38506 21.2476 5.5671 21.2476 5.67328 21.353C5.77946 21.4585 5.77946 21.6392 5.67328 21.7446L4.56593 22.8438C4.45974 22.9492 4.27771 22.9492 4.17153 22.8438C4.06534 22.7384 4.06534 22.5577 4.17153 22.4523L5.27888 21.353Z" fill="#DADADA"/>
<path d="M23.4212 7.80033C23.5578 7.72504 23.7246 7.77022 23.8156 7.90574C23.8915 8.04127 23.846 8.20691 23.7095 8.29727L22.3594 9.08031C22.2229 9.1556 22.056 9.11043 21.965 8.9749C21.8891 8.83937 21.9347 8.67373 22.0712 8.58338L23.4212 7.80033Z" fill="#DADADA"/>
<path d="M3.65578 19.1244C3.7923 19.0491 3.95916 19.0943 4.05018 19.2298C4.12602 19.3653 4.08051 19.531 3.94399 19.6213L2.59393 20.4044C2.45741 20.4796 2.29055 20.4345 2.19953 20.2989C2.12369 20.1634 2.16919 19.9978 2.30572 19.9074L3.65578 19.1244Z" fill="#DADADA"/>
<path d="M24.7106 10.6916C24.8623 10.6464 25.014 10.7368 25.0595 10.8873C25.105 11.0379 25.014 11.1885 24.8623 11.2337L23.3454 11.6403C23.1937 11.6854 23.042 11.5951 22.9965 11.4445C22.951 11.2939 23.042 11.1433 23.1937 11.0982L24.7106 10.6916Z" fill="#DADADA"/>
<path d="M2.65461 16.5494C2.8063 16.5042 2.95799 16.5945 3.0035 16.7451C3.04901 16.8957 2.95799 17.0463 2.8063 17.0915L1.28938 17.498C1.13769 17.5432 0.985998 17.4529 0.94049 17.3023C0.894983 17.1517 0.985998 17.0011 1.13769 16.9559L2.65461 16.5494Z" fill="#DADADA"/>
<path d="M25.196 13.8087C25.3477 13.8087 25.4842 13.9292 25.4842 14.0948C25.4842 14.2454 25.3629 14.3809 25.196 14.3809H23.6336C23.4819 14.3809 23.3454 14.2605 23.3454 14.0948C23.3454 13.9442 23.4667 13.8087 23.6336 13.8087H25.196Z" fill="#DADADA"/>
<path d="M2.36639 13.8087C2.51809 13.8087 2.65461 13.9292 2.65461 14.0948C2.65461 14.2454 2.53326 14.3809 2.36639 14.3809H0.803967C0.652275 14.3809 0.515753 14.2605 0.515753 14.0948C0.515753 13.9442 0.637106 13.8087 0.803967 13.8087H2.36639Z" fill="#DADADA"/>
<path d="M24.8623 16.9559C25.014 17.0011 25.105 17.1517 25.0595 17.3023C25.014 17.4529 24.8623 17.5432 24.7106 17.498L23.1937 17.0915C23.042 17.0463 22.951 16.8957 22.9965 16.7451C23.042 16.5945 23.1937 16.5042 23.3454 16.5494L24.8623 16.9559Z" fill="#DADADA"/>
<path d="M2.8063 11.0831C2.95799 11.1283 3.04901 11.2789 3.0035 11.4294C2.95799 11.58 2.8063 11.6704 2.65461 11.6252L1.13769 11.2186C0.985998 11.1735 0.894983 11.0229 0.94049 10.8723C0.985998 10.7217 1.13769 10.6313 1.28938 10.6765L2.8063 11.0831Z" fill="#DADADA"/>
<path d="M23.7095 19.9074C23.846 19.9827 23.8915 20.1634 23.8156 20.2989C23.7398 20.4345 23.5578 20.4796 23.4212 20.4044L22.0712 19.6213C21.9347 19.546 21.8891 19.3653 21.965 19.2298C22.0408 19.0943 22.2229 19.0491 22.3594 19.1244L23.7095 19.9074Z" fill="#DADADA"/>
<path d="M3.92882 8.56832C4.06534 8.64361 4.11085 8.82432 4.03501 8.95984C3.95916 9.09537 3.77713 9.14055 3.64061 9.06525L2.29055 8.28221C2.15403 8.20692 2.10852 8.02621 2.18436 7.89069C2.26021 7.75516 2.44224 7.70998 2.57876 7.78528L3.92882 8.56832Z" fill="#DADADA"/>
<path d="M21.8285 22.4523C21.9347 22.5577 21.9347 22.7384 21.8285 22.8438C21.7223 22.9492 21.5403 22.9492 21.4341 22.8438L20.3267 21.7446C20.2205 21.6392 20.2205 21.4585 20.3267 21.353C20.4329 21.2476 20.6149 21.2476 20.7211 21.353L21.8285 22.4523Z" fill="#DADADA"/>
<path d="M5.68845 6.43001C5.79463 6.53542 5.79463 6.71612 5.68845 6.82153C5.58226 6.92694 5.40023 6.92694 5.29405 6.82153L4.17153 5.72225C4.06534 5.61684 4.06534 5.43614 4.17153 5.33073C4.27771 5.22532 4.45974 5.22532 4.56593 5.33073L5.68845 6.43001Z" fill="#DADADA"/>
<path d="M19.3407 24.44C19.4166 24.5756 19.3711 24.7412 19.2345 24.8316C19.098 24.9069 18.9312 24.8617 18.8401 24.7262L18.0513 23.3859C17.9755 23.2504 18.021 23.0848 18.1575 22.9944C18.294 22.9191 18.4609 22.9643 18.5519 23.0998L19.3407 24.44Z" fill="#DADADA"/>
<path d="M7.93349 4.80368C8.00933 4.93921 7.96383 5.10485 7.8273 5.1952C7.69078 5.2705 7.52392 5.22532 7.43291 5.08979L6.64411 3.74958C6.56826 3.61405 6.61377 3.44841 6.75029 3.35806C6.88681 3.28277 7.05368 3.32794 7.14469 3.46347L7.93349 4.80368Z" fill="#DADADA"/>
<path d="M16.4282 25.72C16.4737 25.8706 16.3827 26.0212 16.231 26.0664C16.0793 26.1115 15.9277 26.0212 15.8821 25.8706L15.4726 24.3648C15.4271 24.2142 15.5181 24.0636 15.6698 24.0184C15.8215 23.9732 15.9732 24.0636 16.0187 24.2142L16.4282 25.72Z" fill="#DADADA"/>
<path d="M10.5274 3.82487C10.5729 3.97546 10.4819 4.12605 10.3302 4.17122C10.1785 4.2164 10.0268 4.12605 9.98133 3.97546L9.57176 2.4696C9.52625 2.31902 9.61727 2.16843 9.76896 2.12326C9.92065 2.07808 10.0723 2.16843 10.1179 2.31902L10.5274 3.82487Z" fill="#DADADA"/>
<path d="M14.1225 4.26157C14.1377 4.11099 14.2894 4.00558 14.4411 4.02064C14.5928 4.03569 14.699 4.18628 14.6838 4.33687L14.5018 5.58673C14.4866 5.73731 14.3349 5.84272 14.1832 5.82766C14.0315 5.8126 13.9253 5.66202 13.9405 5.51143L14.1225 4.26157Z" fill="#DADADA"/>
<path d="M11.4831 22.5878C11.4983 22.4373 11.6499 22.3318 11.8016 22.3469C11.9533 22.362 12.0595 22.5125 12.0443 22.6631L11.8623 23.913C11.8471 24.0636 11.6954 24.169 11.5438 24.1539C11.3921 24.1389 11.2859 23.9883 11.3011 23.8377L11.4831 22.5878Z" fill="#DADADA"/>
<path d="M16.6558 4.89403C16.7165 4.75851 16.8833 4.68321 17.035 4.74345C17.1867 4.80368 17.2474 4.96933 17.1867 5.11991L16.6861 6.29448C16.6254 6.43001 16.4586 6.5053 16.3069 6.44506C16.1704 6.38483 16.0945 6.21919 16.1552 6.0686L16.6558 4.89403Z" fill="#DADADA"/>
<path d="M9.32906 21.9102C9.38973 21.7747 9.55659 21.6994 9.70829 21.7596C9.84481 21.8199 9.92065 21.9855 9.85998 22.1361L9.35939 23.3107C9.29872 23.4462 9.13186 23.5215 8.98016 23.4612C8.84364 23.401 8.7678 23.2354 8.82847 23.0848L9.32906 21.9102Z" fill="#DADADA"/>
<path d="M18.9312 6.14389C19.0222 6.02342 19.2042 5.99331 19.3256 6.09872C19.4469 6.18907 19.4772 6.36977 19.3711 6.49024L18.5823 7.4841C18.4912 7.60457 18.3092 7.63469 18.1879 7.52928C18.0665 7.43893 18.0362 7.25823 18.1424 7.13776L18.9312 6.14389Z" fill="#DADADA"/>
<path d="M7.41774 20.6905C7.50875 20.57 7.69078 20.5399 7.81214 20.6453C7.93349 20.7356 7.96383 20.9163 7.85764 21.0368L7.06884 22.0307C6.97783 22.1511 6.7958 22.1813 6.67445 22.0759C6.55309 21.9855 6.52275 21.8048 6.62894 21.6843L7.41774 20.6905Z" fill="#DADADA"/>
<path d="M20.797 7.93586C20.9183 7.84551 21.1004 7.86057 21.1914 7.9961C21.2824 8.11656 21.2672 8.29727 21.1307 8.38762L20.1144 9.1556C19.993 9.24596 19.811 9.2309 19.72 9.09537C19.6289 8.9749 19.6441 8.7942 19.7806 8.70385L20.797 7.93586Z" fill="#DADADA"/>
<path d="M5.88565 19.034C6.007 18.9437 6.18903 18.9587 6.28005 19.0943C6.37106 19.2147 6.35589 19.3954 6.21937 19.4858L5.20303 20.2538C5.08168 20.3441 4.89965 20.3291 4.80864 20.1935C4.71762 20.0731 4.73279 19.8924 4.86931 19.802L5.88565 19.034Z" fill="#DADADA"/>
<path d="M22.1319 10.1495C22.2835 10.0892 22.4352 10.1645 22.4959 10.3001C22.5566 10.4506 22.4807 10.6012 22.3442 10.6615L21.161 11.1283C21.0093 11.1885 20.8576 11.1132 20.797 10.9777C20.7363 10.8271 20.8121 10.6765 20.9487 10.6163L22.1319 10.1495Z" fill="#DADADA"/>
<path d="M4.83897 17.0463C4.99066 16.9861 5.14236 17.0613 5.20303 17.1969C5.26371 17.3475 5.18786 17.498 5.05134 17.5583L3.86814 18.0251C3.71645 18.0853 3.56476 18.01 3.50408 17.8745C3.44341 17.7239 3.51925 17.5733 3.65578 17.5131L4.83897 17.0463Z" fill="#DADADA"/>
<path d="M22.86 12.6341C23.0117 12.6191 23.1634 12.7245 23.1785 12.8751C23.1937 13.0257 23.0875 13.1762 22.9358 13.1913L21.6616 13.3419C21.5099 13.3569 21.3582 13.2515 21.3431 13.1009C21.3279 12.9504 21.4341 12.7998 21.5858 12.7847L22.86 12.6341Z" fill="#DADADA"/>
<path d="M4.33839 14.8477C4.49008 14.8327 4.64177 14.9381 4.65694 15.0887C4.67211 15.2393 4.56593 15.3898 4.41424 15.4049L3.14002 15.5555C2.98833 15.5706 2.83664 15.4651 2.82147 15.3146C2.8063 15.164 2.91249 15.0134 3.06418 14.9983L4.33839 14.8477Z" fill="#DADADA"/>
<path d="M22.9055 15.2091C23.0572 15.2242 23.1634 15.3748 23.1482 15.5254C23.133 15.676 22.9813 15.7814 22.8296 15.7663L21.5706 15.5856C21.4189 15.5706 21.3127 15.42 21.3279 15.2694C21.3431 15.1188 21.4947 15.0134 21.6464 15.0284L22.9055 15.2091Z" fill="#DADADA"/>
<path d="M4.44457 12.589C4.59627 12.604 4.70245 12.7546 4.68728 12.9052C4.67211 13.0558 4.52042 13.1612 4.36873 13.1461L3.10969 12.9654C2.95799 12.9504 2.85181 12.7998 2.86698 12.6492C2.88215 12.4986 3.03384 12.3932 3.18553 12.4083L4.44457 12.589Z" fill="#DADADA"/>
<path d="M22.2684 17.7239C22.4201 17.7842 22.4807 17.9498 22.4201 18.1004C22.3594 18.2359 22.1925 18.3112 22.0408 18.251L20.8576 17.754C20.7211 17.6938 20.6453 17.5282 20.706 17.3776C20.7666 17.2421 20.9335 17.1668 21.0852 17.227L22.2684 17.7239Z" fill="#DADADA"/>
<path d="M5.12719 10.4506C5.26371 10.5109 5.33956 10.6765 5.27888 10.8271C5.2182 10.9626 5.05134 11.0379 4.89965 10.9777L3.71645 10.4808C3.57993 10.4205 3.50408 10.2549 3.56476 10.1043C3.62544 9.96877 3.7923 9.89347 3.94399 9.95371L5.12719 10.4506Z" fill="#DADADA"/>
<path d="M21.0093 19.9827C21.1307 20.0731 21.161 20.2538 21.0548 20.3742C20.9638 20.4947 20.7818 20.5248 20.6604 20.4194L19.6593 19.6364C19.5379 19.546 19.5076 19.3653 19.6138 19.2448C19.7048 19.1244 19.8868 19.0943 20.0082 19.1997L21.0093 19.9827Z" fill="#DADADA"/>
<path d="M6.34072 8.55326C6.46208 8.64361 6.49242 8.82432 6.38623 8.94479C6.29522 9.06525 6.11319 9.09537 5.99183 8.98996L4.99067 8.20692C4.86931 8.11656 4.83897 7.93586 4.94516 7.81539C5.03617 7.69492 5.2182 7.66481 5.33956 7.77022L6.34072 8.55326Z" fill="#DADADA"/>
<path d="M19.2042 21.8349C19.2952 21.9554 19.28 22.1361 19.1435 22.2264C19.0222 22.3168 18.8401 22.3017 18.7491 22.1662L17.9755 21.1573C17.8845 21.0368 17.8997 20.8561 18.0362 20.7658C18.1575 20.6754 18.3396 20.6905 18.4306 20.826L19.2042 21.8349Z" fill="#DADADA"/>
<path d="M8.00934 7.03235C8.10035 7.15282 8.08518 7.33352 7.94866 7.42387C7.82731 7.51422 7.64527 7.49916 7.55426 7.36364L6.78063 6.35471C6.68962 6.23424 6.70478 6.05354 6.84131 5.96319C6.96266 5.87284 7.14469 5.8879 7.23571 6.02342L8.00934 7.03235Z" fill="#DADADA"/>
<path d="M16.9743 23.1601C17.035 23.3107 16.9592 23.4612 16.8226 23.5215C16.6709 23.5817 16.5193 23.5064 16.4586 23.3709L15.9883 22.1963C15.9277 22.0457 16.0035 21.8951 16.14 21.8349C16.2917 21.7747 16.4434 21.85 16.5041 21.9855L16.9743 23.1601Z" fill="#DADADA"/>
<path d="M10.0268 5.99331C10.0875 6.14389 10.0117 6.29448 9.87515 6.35471C9.72345 6.41495 9.57176 6.33965 9.51109 6.20413L9.04084 5.02956C8.98016 4.87897 9.05601 4.72839 9.19253 4.66815C9.34422 4.60792 9.49592 4.68321 9.55659 4.81874L10.0268 5.99331Z" fill="#DADADA"/>
<path d="M14.4714 23.8829C14.4866 24.0335 14.3804 24.184 14.2287 24.1991C14.077 24.2142 13.9253 24.1088 13.9102 23.9582L13.7585 22.6933C13.7433 22.5427 13.8495 22.3921 14.0012 22.377C14.1529 22.362 14.3046 22.4674 14.3197 22.618L14.4714 23.8829Z" fill="#DADADA"/>
<path d="M12.2415 5.49637C12.2567 5.64696 12.1505 5.79755 11.9988 5.8126C11.8471 5.82766 11.6954 5.72225 11.6803 5.57167L11.5286 4.30675C11.5134 4.15616 11.6196 4.00558 11.7713 3.99052C11.923 3.97546 12.0747 4.08087 12.0898 4.23146L12.2415 5.49637Z" fill="#DADADA"/>
<path d="M13 0H15.245C15.3967 0 15.5333 0.120468 15.5333 0.286113C15.5333 0.346347 15.5181 0.391523 15.4877 0.436698L13.2579 4.86391C13.2124 4.96933 13.1062 5.0145 13 5.0145V4.11099L14.79 0.557167H13V0ZM12.7573 0H13.0152V0.557167H12.7573V0ZM13 5.02956C12.9545 5.02956 12.909 5.0145 12.8786 4.99944C12.818 4.96933 12.7725 4.92415 12.7573 4.87897V3.61405L13.0152 4.11099V5.02956H13ZM10.755 0H12.7421V0.557167H11.21L12.7573 3.61405V4.86391L10.5123 0.406581C10.4364 0.271054 10.4971 0.10541 10.6336 0.0301171C10.6791 0.0150586 10.7095 0 10.755 0Z" fill="#DADADA"/>
</svg>
