<svg width="25" height="22" viewBox="0 0 25 22" fill="none" xmlns="http://www.w3.org/2000/svg">
<path d="M12.5 0C12.702 0 12.9176 0.0559085 13.1061 0.181703C13.2813 0.29352 13.4429 0.461245 13.5776 0.684879L24.7171 19.0508C24.8922 19.3443 25 19.7637 25 20.197C25 20.4765 24.9596 20.77 24.8518 21.0356C24.7441 21.3291 24.5555 21.5947 24.2861 21.7624C24.0706 21.9022 23.8281 21.972 23.5318 21.972H12.5V20.9238H23.5318C23.6261 20.9238 23.6934 20.9098 23.7473 20.8679C23.8147 20.8259 23.8685 20.7421 23.9089 20.6302C23.9628 20.5044 23.9763 20.3367 23.9763 20.169C23.9763 19.9314 23.9224 19.7078 23.8551 19.582L12.7155 1.24396C12.6616 1.1601 12.6212 1.10419 12.5673 1.07624C12.5404 1.06226 12.5135 1.04828 12.5 1.04828V0ZM0.282866 19.0508L11.4224 0.684879C11.5571 0.461245 11.7188 0.307497 11.8939 0.181703C12.0824 0.0559085 12.298 0 12.5 0V1.04828C12.4731 1.04828 12.4596 1.06226 12.4327 1.07624C12.3788 1.10419 12.3249 1.1601 12.2845 1.24396L1.13147 19.6099C1.05065 19.7357 1.01024 19.9593 1.01024 20.197C1.01024 20.3647 1.03718 20.5184 1.07759 20.6582C1.118 20.756 1.17188 20.8399 1.23922 20.8958C1.2931 20.9238 1.36045 20.9517 1.45474 20.9517H12.4865V22H1.46821C1.17188 22 0.929418 21.9161 0.713901 21.7903C0.444504 21.6226 0.269397 21.3571 0.148168 21.0635C0.0404095 20.798 0 20.5044 0 20.2249C0 19.7776 0.107759 19.3443 0.282866 19.0508Z" fill="#DADADA"/>
<path d="M18.6288 15.263C19.3292 15.263 19.9623 15.5565 20.4068 16.0318C20.8648 16.507 21.1476 17.1639 21.1476 17.8768C21.1476 18.6036 20.8648 19.2605 20.4068 19.7217C19.9488 20.197 19.3157 20.4905 18.6288 20.4905V19.4422C19.0463 19.4422 19.4235 19.2605 19.6929 18.9809C19.9623 18.7014 20.1374 18.31 20.1374 17.8768C20.1374 17.4435 19.9623 17.0521 19.6929 16.7726C19.4235 16.493 19.0463 16.3113 18.6288 16.3113V15.263ZM18.6288 20.5044C17.9283 20.5044 17.2952 20.2109 16.8507 19.7357C16.3928 19.2605 16.1099 18.6036 16.1099 17.8907C16.1099 17.1639 16.3928 16.507 16.8507 16.0457C17.3087 15.5705 17.9418 15.277 18.6288 15.277V16.3253C18.2112 16.3253 17.834 16.507 17.5646 16.7865C17.2952 17.0661 17.1201 17.4574 17.1201 17.8907C17.1201 18.324 17.2952 18.7154 17.5646 18.9949C17.834 19.2745 18.2112 19.4562 18.6288 19.4562V20.5044Z" fill="#DADADA"/>
<path d="M12.5 15.263C13.2004 15.263 13.8335 15.5565 14.278 16.0318C14.736 16.507 15.0188 17.1639 15.0188 17.8768C15.0188 18.6036 14.736 19.2605 14.278 19.7217C13.82 20.197 13.187 20.4905 12.5 20.4905V19.4422C12.9176 19.4422 13.2947 19.2605 13.5641 18.9809C13.8335 18.7014 14.0086 18.31 14.0086 17.8768C14.0086 17.4435 13.8335 17.0521 13.5641 16.7726C13.2947 16.493 12.9176 16.3113 12.5 16.3113V15.263ZM12.5 15.263V16.3113C12.0824 16.3113 11.7053 16.493 11.4359 16.7726C11.1665 17.0521 10.9914 17.4435 10.9914 17.8768C10.9914 18.31 11.1665 18.7014 11.4359 18.9809C11.7053 19.2605 12.0824 19.4422 12.5 19.4422V20.4905C11.7996 20.4905 11.1665 20.197 10.722 19.7217C10.264 19.2465 9.98113 18.5896 9.98113 17.8768C9.98113 17.1499 10.264 16.493 10.722 16.0318C11.1665 15.5565 11.7996 15.263 12.5 15.263Z" fill="#DADADA"/>
<path d="M6.35776 15.263C7.05819 15.263 7.69127 15.5565 8.13577 16.0318C8.59375 16.507 8.87661 17.1639 8.87661 17.8768C8.87661 18.6036 8.59375 19.2605 8.13577 19.7217C7.6778 20.197 7.04472 20.4905 6.35776 20.4905V19.4422C6.77532 19.4422 7.15248 19.2605 7.42187 18.9809C7.69127 18.7014 7.86638 18.31 7.86638 17.8768C7.86638 17.4435 7.69127 17.0521 7.42187 16.7726C7.15248 16.493 6.77532 16.3113 6.35776 16.3113V15.263ZM6.35776 15.263V16.3113C5.94019 16.3113 5.56304 16.493 5.29364 16.7726C5.02424 17.0521 4.84914 17.4435 4.84914 17.8768C4.84914 18.31 5.02424 18.7014 5.29364 18.9809C5.56304 19.2605 5.94019 19.4422 6.35776 19.4422V20.4905C5.65733 20.4905 5.02424 20.197 4.57974 19.7217C4.12177 19.2465 3.8389 18.5896 3.8389 17.8768C3.8389 17.1499 4.12177 16.493 4.57974 16.0318C5.03771 15.5565 5.65733 15.263 6.35776 15.263Z" fill="#DADADA"/>
<path d="M15.5577 9.72808C16.2581 9.72808 16.8912 10.0216 17.3357 10.4968C17.7936 10.972 18.0765 11.629 18.0765 12.3418C18.0765 13.0686 17.7936 13.7255 17.3357 14.1868C16.8777 14.662 16.2446 14.9555 15.5577 14.9555V13.9072C15.9752 13.9072 16.3524 13.7255 16.6218 13.446C16.8912 13.1665 17.0663 12.7751 17.0663 12.3418C17.0663 11.9085 16.8912 11.5171 16.6218 11.2376C16.3524 10.9581 15.9752 10.7764 15.5577 10.7764V9.72808ZM15.5577 14.9695C14.8572 14.9695 14.2241 14.676 13.7796 14.2008C13.3217 13.7255 13.0388 13.0686 13.0388 12.3558C13.0388 11.629 13.3217 10.972 13.7796 10.5108C14.2376 10.0356 14.8707 9.74205 15.5577 9.74205V10.7903C15.1401 10.7903 14.7629 10.972 14.4935 11.2516C14.2241 11.5311 14.049 11.9225 14.049 12.3558C14.049 12.7891 14.2241 13.1804 14.4935 13.46C14.7629 13.7395 15.1401 13.9212 15.5577 13.9212V14.9695Z" fill="#DADADA"/>
<path d="M9.42888 9.72808C10.1293 9.72808 10.7624 10.0216 11.2069 10.4968C11.6649 10.972 11.9477 11.629 11.9477 12.3418C11.9477 13.0686 11.6649 13.7255 11.2069 14.1868C10.7489 14.662 10.1158 14.9555 9.42888 14.9555V13.9072C9.84645 13.9072 10.2236 13.7255 10.493 13.446C10.7624 13.1665 10.9375 12.7751 10.9375 12.3418C10.9375 11.9085 10.7624 11.5171 10.493 11.2376C10.2236 10.9581 9.84645 10.7764 9.42888 10.7764V9.72808ZM9.42888 14.9695C8.72845 14.9695 8.09537 14.676 7.65087 14.2008C7.19289 13.7255 6.91003 13.0686 6.91003 12.3558C6.91003 11.629 7.19289 10.972 7.65087 10.5108C8.10884 10.0356 8.74192 9.74205 9.42888 9.74205V10.7903C9.01132 10.7903 8.63416 10.972 8.36477 11.2516C8.09537 11.5311 7.92026 11.9225 7.92026 12.3558C7.92026 12.7891 8.09537 13.1804 8.36477 13.46C8.63416 13.7395 9.01132 13.9212 9.42888 13.9212V14.9695Z" fill="#DADADA"/>
<path d="M12.5 4.19314C13.2004 4.19314 13.8335 4.48666 14.278 4.96188C14.736 5.4371 15.0188 6.09403 15.0188 6.80686C15.0188 7.53367 14.736 8.1906 14.278 8.65184C13.82 9.12707 13.187 9.42059 12.5 9.42059V8.3723C12.9176 8.3723 13.2947 8.1906 13.5641 7.91105C13.8335 7.63151 14.0086 7.24015 14.0086 6.80686C14.0086 6.37357 13.8335 5.98221 13.5641 5.70267C13.2947 5.42313 12.9176 5.24142 12.5 5.24142V4.19314ZM12.5 4.19314V5.24142C12.0824 5.24142 11.7053 5.42313 11.4359 5.70267C11.1665 5.98221 10.9914 6.37357 10.9914 6.80686C10.9914 7.24015 11.1665 7.63151 11.4359 7.91105C11.7053 8.1906 12.0824 8.3723 12.5 8.3723V9.42059C11.7996 9.42059 11.1665 9.12707 10.722 8.65184C10.264 8.17662 9.98113 7.5197 9.98113 6.80686C9.98113 6.08005 10.264 5.42313 10.722 4.96188C11.1665 4.48666 11.7996 4.19314 12.5 4.19314Z" fill="#DADADA"/>
<path d="M12.5404 7.61754V6.45743C12.4327 6.56925 12.298 6.63914 12.1633 6.69504V6.4155C12.2441 6.38755 12.3249 6.34562 12.4192 6.26175C12.5135 6.19187 12.5674 6.10801 12.6078 6.01017H12.8502V7.61754H12.5404Z" fill="#DADADA"/>
<path d="M9.94073 12.859V13.1385H8.90355C8.91702 13.0267 8.94396 12.9288 9.01131 12.831C9.06519 12.7332 9.17295 12.6074 9.34805 12.4396C9.48275 12.3138 9.56357 12.216 9.59051 12.1741C9.63092 12.1042 9.65786 12.0483 9.65786 11.9924C9.65786 11.9225 9.64439 11.8666 9.60398 11.8386C9.56357 11.7967 9.52316 11.7827 9.45581 11.7827C9.38846 11.7827 9.34805 11.7967 9.30764 11.8386C9.26723 11.8806 9.25376 11.9365 9.24029 12.0343L8.94396 12.0203C8.95743 11.8526 9.01131 11.7268 9.1056 11.6569C9.19988 11.587 9.32111 11.5451 9.45581 11.5451C9.60398 11.5451 9.72521 11.587 9.8195 11.6709C9.90032 11.7548 9.9542 11.8666 9.9542 11.9924C9.9542 12.0623 9.94072 12.1321 9.91378 12.202C9.88684 12.2719 9.84644 12.3418 9.79256 12.4117C9.75215 12.4536 9.6848 12.5235 9.60398 12.6213C9.50969 12.7052 9.45581 12.7751 9.42887 12.803C9.40193 12.831 9.38846 12.859 9.36152 12.8869H9.94073V12.859Z" fill="#DADADA"/>
<path d="M15.0458 12.7052L15.3286 12.6633C15.3421 12.7332 15.3691 12.8031 15.4095 12.831C15.4499 12.8729 15.5038 12.8869 15.5576 12.8869C15.625 12.8869 15.6654 12.859 15.7058 12.817C15.7462 12.7751 15.7732 12.7052 15.7732 12.6214C15.7732 12.5375 15.7597 12.4816 15.7193 12.4397C15.6789 12.3977 15.625 12.3698 15.5711 12.3698C15.5307 12.3698 15.4903 12.3837 15.4364 12.3977L15.4633 12.1461C15.5442 12.1461 15.6115 12.1322 15.6519 12.0902C15.6923 12.0483 15.7193 12.0064 15.7193 11.9365C15.7193 11.8806 15.7058 11.8386 15.6789 11.8107C15.6519 11.7827 15.6115 11.7688 15.5576 11.7688C15.5038 11.7688 15.4633 11.7827 15.4229 11.8247C15.3825 11.8666 15.3691 11.9085 15.3556 11.9784L15.0862 11.9365C15.0997 11.8386 15.1401 11.7548 15.167 11.6989C15.2074 11.643 15.2613 11.601 15.3286 11.5591C15.396 11.5311 15.4768 11.5032 15.5576 11.5032C15.7058 11.5032 15.827 11.5451 15.9079 11.643C15.9752 11.7268 16.0156 11.8107 16.0156 11.9085C16.0156 12.0483 15.9348 12.1601 15.7866 12.244C15.8809 12.258 15.9483 12.3139 16.0021 12.3837C16.056 12.4536 16.083 12.5375 16.083 12.6353C16.083 12.7751 16.0291 12.9009 15.9348 12.9987C15.8405 13.0966 15.7058 13.1525 15.5576 13.1525C15.4229 13.1525 15.3017 13.1106 15.2074 13.0267C15.1131 12.9568 15.0593 12.845 15.0458 12.7052Z" fill="#DADADA"/>
<path d="M6.43857 18.3659H6.26346V18.1004H6.43857V17.5553L6.26346 17.8348V17.4155L6.47898 17.094H6.73491V18.1144H6.92348V18.3799H6.73491V18.7014H6.43857V18.3659ZM6.26346 18.3659H5.80549V18.1004L6.26346 17.4015V17.8208L6.08836 18.1004H6.26346V18.3659Z" fill="#DADADA"/>
<path d="M11.9747 18.2402L12.271 18.2122C12.2845 18.2821 12.298 18.338 12.3518 18.3799C12.3922 18.4219 12.4461 18.4358 12.5 18.4358C12.5673 18.4358 12.6212 18.4079 12.6616 18.352C12.702 18.2961 12.729 18.2262 12.729 18.1144C12.729 18.0165 12.702 17.9466 12.6616 17.8907C12.6212 17.8348 12.5673 17.8208 12.5 17.8208C12.4192 17.8208 12.3384 17.8628 12.271 17.9327L12.0286 17.8907L12.1767 17.0521H12.958V17.3456H12.3922L12.3518 17.6252C12.4192 17.5972 12.4865 17.5693 12.5539 17.5693C12.6886 17.5693 12.7963 17.6252 12.8906 17.723C12.9849 17.8208 13.0253 17.9466 13.0253 18.1144C13.0253 18.2402 12.9849 18.3659 12.9176 18.4638C12.8098 18.6036 12.6751 18.6734 12.5 18.6734C12.3518 18.6734 12.2441 18.6315 12.1498 18.5476C12.042 18.4917 11.9881 18.3799 11.9747 18.2402Z" fill="#DADADA"/>
<path d="M19.1137 17.4574L18.8308 17.4854C18.8173 17.4295 18.8039 17.3736 18.7769 17.3456C18.75 17.3177 18.7096 17.3037 18.6557 17.3037H18.6422V17.0521C18.6557 17.0521 18.6557 17.0521 18.6692 17.0521C18.7904 17.0521 18.8847 17.0801 18.9655 17.1499C19.0463 17.2338 19.1002 17.3316 19.1137 17.4574ZM18.6557 17.6391C18.6692 17.6391 18.6826 17.6391 18.6961 17.6391C18.8173 17.6391 18.9251 17.695 19.0194 17.7929C19.1137 17.8907 19.1541 18.0165 19.1541 18.1703C19.1541 18.338 19.1137 18.4638 19.0194 18.5616C18.9251 18.6595 18.8039 18.7154 18.6692 18.7154V18.4498H18.6826C18.7365 18.4498 18.7769 18.4219 18.8173 18.3799C18.8577 18.338 18.8712 18.2681 18.8712 18.1563C18.8712 18.0585 18.8577 17.9746 18.8173 17.9327C18.7769 17.8907 18.7231 17.8628 18.6692 17.8628V17.6391H18.6557ZM18.6557 17.3177C18.6018 17.3177 18.5479 17.3456 18.5075 17.4015C18.4671 17.4574 18.4402 17.5832 18.4267 17.7649C18.4941 17.6811 18.5614 17.6391 18.6557 17.6252V17.8488C18.6018 17.8488 18.5479 17.8767 18.5075 17.9187C18.4671 17.9606 18.4537 18.0305 18.4537 18.1283C18.4537 18.2262 18.4806 18.31 18.521 18.3659C18.5614 18.4219 18.6018 18.4498 18.6557 18.4498V18.7014C18.4941 18.7014 18.3728 18.6315 18.2651 18.5057C18.1708 18.3799 18.1169 18.1703 18.1169 17.8907C18.1169 17.5972 18.1708 17.3876 18.2785 17.2478C18.3728 17.122 18.5075 17.0661 18.6557 17.0521V17.3177Z" fill="#DADADA"/>
</svg>
