<svg width="16" height="24" viewBox="0 0 16 24" fill="none" xmlns="http://www.w3.org/2000/svg">
<path d="M5.63763 5.39455H10.165C10.4734 5.39455 10.7448 5.52269 10.9545 5.72771C11.1519 5.93273 11.2753 6.22744 11.2753 6.54778V22.8468C11.2753 23.1671 11.1519 23.449 10.9545 23.6668C10.7571 23.8719 10.4734 24 10.165 24H5.63763V23.039H10.165C10.2143 23.039 10.2637 23.0133 10.3007 22.9877C10.3377 22.9493 10.35 22.9108 10.35 22.8468V6.54778C10.35 6.49653 10.3254 6.44527 10.3007 6.40683C10.2637 6.36839 10.2267 6.35558 10.165 6.35558H5.63763V5.39455ZM1.11025 5.39455H5.63763V6.35558H1.11025C1.06091 6.35558 1.01157 6.38121 0.974557 6.40683C0.937548 6.44527 0.925212 6.48372 0.925212 6.54778V22.8468C0.925212 22.898 0.949884 22.9493 0.974557 22.9877C1.01157 23.0262 1.04857 23.039 1.11025 23.039H5.63763V24H1.11025C0.80185 24 0.530455 23.8719 0.32074 23.6668C0.123362 23.449 0 23.1671 0 22.8468V6.54778C0 6.22744 0.123362 5.94554 0.32074 5.72771C0.530455 5.52269 0.80185 5.39455 1.11025 5.39455Z" fill="#DADADA"/>
<path d="M5.64996 12.0833C5.72398 11.9936 5.81033 11.9039 5.89668 11.8398C6.19275 11.5964 6.52583 11.481 6.96993 11.481C7.46338 11.481 7.90748 11.6861 8.22822 12.0192C8.54896 12.3524 8.74634 12.8137 8.74634 13.3262C8.74634 14.9023 7.35235 16.3374 5.9707 17.7854C5.88435 17.8751 5.76099 17.9263 5.64996 17.9263V16.7731C6.78489 15.5814 7.83346 14.4026 7.83346 13.3262C7.83346 13.0828 7.73477 12.8521 7.58674 12.6983C7.42637 12.5318 7.21665 12.4421 6.98227 12.4421C6.76022 12.4421 6.59985 12.4933 6.48882 12.5958C6.34079 12.724 6.21742 12.929 6.08173 13.2109C6.04472 13.3006 5.9707 13.3775 5.87201 13.4287C5.81033 13.4672 5.73632 13.48 5.6623 13.48L5.64996 12.0833ZM5.63763 17.9263C5.51426 17.9263 5.40324 17.8751 5.31688 17.7854C3.9229 16.3374 2.54125 14.9023 2.54125 13.3262C2.54125 12.8137 2.73863 12.3524 3.05937 12.0192C3.38011 11.6861 3.82421 11.481 4.31766 11.481C4.92213 11.481 5.31689 11.6861 5.63763 12.0833V13.4543C5.46492 13.4543 5.30455 13.3518 5.23053 13.1853C4.98381 12.6727 4.74942 12.4164 4.31766 12.4164C4.08327 12.4164 3.86122 12.519 3.71318 12.6727C3.55281 12.8393 3.46646 13.0571 3.46646 13.3006C3.46646 14.3769 4.51503 15.5558 5.64996 16.7475V17.9263H5.63763Z" fill="#DADADA"/>
<path d="M4.37934 9.78964L3.45413 7.26535H3.05937V7.91885L3.36777 8.86706H3.05937V9.43086H3.54048L3.66384 9.78964H4.37934ZM3.05937 7.26535H2.66461L1.75173 9.78964H2.46723L2.59059 9.43086H3.0717V8.86706H2.7633L3.0717 7.91885V7.26535H3.05937Z" fill="#DADADA"/>
<path d="M8.27756 22.1676H8.67232L9.5852 19.6434H8.88204L8.75867 20.0021H8.27756V20.5659H8.58597L8.27756 21.5141V22.1676ZM6.96993 19.6434L7.88281 22.1676H8.27756V21.5141L7.96916 20.5659H8.27756V20.0021H7.79645L7.67309 19.6434H6.96993Z" fill="#DADADA"/>
<path d="M7.21665 3.60064H11.744C12.0524 3.60064 12.3238 3.72878 12.5335 3.9338C12.7309 4.13881 12.8543 4.43353 12.8543 4.75387V21.0529C12.8543 21.3732 12.7309 21.6551 12.5335 21.8729C12.3362 22.0779 12.0524 22.2061 11.744 22.2061H10.8188C10.5598 22.2061 10.3624 21.9883 10.3624 21.732V6.54778C10.3624 6.49653 10.3377 6.44527 10.313 6.40683C10.276 6.36839 10.239 6.35558 10.1773 6.35558H7.21665V5.39455H10.1773C10.4857 5.39455 10.7571 5.52269 10.9668 5.72771C11.1642 5.93273 11.2876 6.22744 11.2876 6.54778V21.2451H11.7564C11.8057 21.2451 11.8551 21.2194 11.8921 21.1938C11.9291 21.1554 11.9414 21.1169 11.9414 21.0529V4.75387C11.9414 4.70262 11.9167 4.65136 11.8921 4.61292C11.8551 4.57448 11.818 4.56167 11.7564 4.56167H7.21665V3.60064ZM2.68928 3.60064H7.21665V4.56167H2.68928C2.63994 4.56167 2.59059 4.58729 2.55359 4.61292C2.51658 4.65136 2.50424 4.6898 2.50424 4.75387V5.39455H7.21665V6.35558H2.03547C1.77641 6.35558 1.57903 6.13775 1.57903 5.88147V4.75387C1.57903 4.43353 1.70239 4.15163 1.89977 3.9338C2.09715 3.72878 2.38088 3.60064 2.68928 3.60064Z" fill="#DADADA"/>
<path d="M8.79568 1.79391H13.3231C13.6315 1.79391 13.9029 1.92205 14.1126 2.12707C14.3099 2.33209 14.4333 2.6268 14.4333 2.94714V19.2461C14.4333 19.5665 14.3099 19.8484 14.1126 20.0662C13.9152 20.2712 13.6315 20.3994 13.3231 20.3994H12.3978C12.1388 20.3994 11.9414 20.1815 11.9414 19.9253V4.75387C11.9414 4.70262 11.9167 4.65136 11.8921 4.61292C11.8551 4.57448 11.818 4.56167 11.7564 4.56167H8.79568V3.60064H11.7564C12.0648 3.60064 12.3362 3.72878 12.5459 3.9338C12.7433 4.13881 12.8666 4.43353 12.8666 4.75387V19.4511H13.3354C13.3847 19.4511 13.4341 19.4255 13.4711 19.3999C13.5081 19.3615 13.5204 19.323 13.5204 19.2589V2.94714C13.5204 2.89589 13.4958 2.84463 13.4711 2.80619C13.4341 2.76775 13.3971 2.75494 13.3354 2.75494H8.79568V1.79391ZM4.25598 1.79391H8.78335V2.75494H4.25598C4.20663 2.75494 4.15729 2.78057 4.12028 2.80619C4.09561 2.84463 4.07093 2.89589 4.07093 2.94714V3.58783H8.78335V4.54885H3.60216C3.3431 4.54885 3.14572 4.33102 3.14572 4.07475V2.94714C3.14572 2.6268 3.26908 2.3449 3.46646 2.12707C3.67618 1.92205 3.94757 1.79391 4.25598 1.79391Z" fill="#DADADA"/>
<path d="M10.3624 0H14.8897C15.1981 0 15.4695 0.128137 15.6793 0.333155C15.8766 0.538174 16 0.832888 16 1.15323V17.4522C16 17.7726 15.8766 18.0545 15.6793 18.2723C15.4819 18.4773 15.1981 18.6054 14.8897 18.6054H13.9645C13.7055 18.6054 13.5081 18.3876 13.5081 18.1313V2.94714C13.5081 2.89589 13.4834 2.84463 13.4588 2.80619C13.4217 2.76775 13.3847 2.75494 13.3231 2.75494H10.3624V1.79391H13.3231C13.6315 1.79391 13.9029 1.92205 14.1126 2.12707C14.3099 2.33209 14.4333 2.6268 14.4333 2.94714V17.6444H14.9021C14.9514 17.6444 15.0008 17.6188 15.0378 17.5932C15.0748 17.5547 15.0871 17.5163 15.0871 17.4522V1.15323C15.0871 1.10198 15.0625 1.05072 15.0378 1.01228C15.0008 0.973839 14.9638 0.961025 14.9021 0.961025H10.3624V0ZM5.835 0H10.3624V0.961025H5.835C5.78566 0.961025 5.73631 0.986652 5.69931 1.01228C5.67463 1.05072 5.64996 1.10198 5.64996 1.15323V1.79391H10.3624V2.75494H5.18119C4.92213 2.75494 4.72475 2.53711 4.72475 2.28083V1.15323C4.72475 0.832888 4.84811 0.550988 5.04549 0.333155C5.2552 0.128137 5.5266 0 5.835 0Z" fill="#DADADA"/>
</svg>
