<svg width="23" height="23" viewBox="0 0 23 23" fill="none" xmlns="http://www.w3.org/2000/svg">
<path d="M22.9265 8.59219C22.8358 8.30075 22.6536 8.04632 22.4067 7.86672C22.1599 7.68712 21.8616 7.59193 21.5563 7.59531H15.3309C15.214 7.59585 15.1001 7.55882 15.0059 7.48968C14.9117 7.42054 14.8422 7.32295 14.8077 7.21132L12.8784 1.01612C12.7869 0.721702 12.6036 0.464264 12.3552 0.281441C12.1069 0.0986191 11.8065 0 11.4981 0C11.1897 0 10.8893 0.0986191 10.641 0.281441C10.3926 0.464264 10.2093 0.721702 10.1178 1.01612L8.18851 7.21132C8.15402 7.32295 8.08454 7.42054 7.99032 7.48968C7.89611 7.55882 7.78215 7.59585 7.66527 7.59531H1.43988C1.13537 7.59528 0.838693 7.69177 0.592493 7.8709C0.346293 8.05002 0.163249 8.30257 0.0696702 8.59223C-0.0239082 8.88189 -0.0232016 9.19376 0.0716887 9.48299C0.166579 9.77223 0.350766 10.0239 0.597775 10.202L5.4332 13.69C5.52339 13.7554 5.59158 13.8467 5.62876 13.9518C5.66593 14.0568 5.67033 14.1706 5.64139 14.2782L3.74739 21.173C3.66761 21.4641 3.68105 21.7729 3.78581 22.0561C3.89057 22.3392 4.0814 22.5824 4.33151 22.7516C4.58162 22.9208 4.87846 23.0075 5.18035 22.9994C5.48224 22.9914 5.77403 22.8891 6.01477 22.7068L11.1669 18.8006C11.2624 18.7287 11.3786 18.6899 11.4981 18.6899C11.6176 18.6899 11.7338 18.7287 11.8293 18.8006L16.9814 22.7068C17.2222 22.8891 17.5141 22.9915 17.8161 22.9995C18.1181 23.0075 18.415 22.9207 18.6651 22.7514C18.9152 22.582 19.106 22.3386 19.2106 22.0553C19.3152 21.772 19.3283 21.4631 19.2483 21.1719L17.3554 14.2793C17.3261 14.1716 17.3303 14.0575 17.3674 13.9523C17.4045 13.847 17.4727 13.7555 17.563 13.6899L22.3984 10.2019C22.648 10.0262 22.8342 9.77457 22.9294 9.48456C23.0245 9.19454 23.0235 8.88158 22.9265 8.59219ZM21.7575 9.31418L16.922 12.8022C16.6511 12.9988 16.4464 13.2731 16.3351 13.5887C16.2238 13.9042 16.2111 14.2462 16.2988 14.5692L18.1916 21.4618C18.2111 21.5322 18.2081 21.607 18.1829 21.6756C18.1577 21.7441 18.1116 21.8031 18.0512 21.8442C17.9907 21.8853 17.9189 21.9064 17.8458 21.9045C17.7728 21.9027 17.7021 21.878 17.6438 21.834L12.4916 17.9278C12.2054 17.7119 11.8566 17.5951 11.4981 17.5951C11.1396 17.5951 10.7908 17.7119 10.5046 17.9278L5.35242 21.834C5.29415 21.8779 5.22358 21.9026 5.15061 21.9045C5.07763 21.9063 5.0059 21.8853 4.94545 21.8444C4.885 21.8035 4.83887 21.7447 4.81351 21.6763C4.78815 21.6079 4.78483 21.5332 4.80403 21.4628L6.69797 14.5681C6.7853 14.2452 6.7724 13.9035 6.66099 13.5881C6.54958 13.2727 6.34492 12.9986 6.07414 12.8022L1.23872 9.3142C1.17967 9.27162 1.13564 9.21143 1.11294 9.14227C1.09025 9.07311 1.09006 8.99854 1.11241 8.92927C1.13475 8.86 1.17848 8.79959 1.23732 8.75671C1.29615 8.71383 1.36707 8.69069 1.43988 8.69061H7.66533C8.01616 8.69184 8.35811 8.58033 8.64073 8.37253C8.92335 8.16472 9.13168 7.87163 9.235 7.53648L11.1642 1.34129C11.1863 1.27005 11.2307 1.20774 11.2907 1.16349C11.3508 1.11924 11.4235 1.09537 11.4981 1.09537C11.5727 1.09537 11.6454 1.11924 11.7054 1.16349C11.7655 1.20774 11.8098 1.27005 11.8319 1.34129L13.7612 7.53648C13.8645 7.87164 14.0729 8.16473 14.3555 8.37253C14.6381 8.58033 14.9801 8.69183 15.3309 8.69059H21.5563C21.6291 8.69067 21.7 8.71381 21.7589 8.75669C21.8177 8.79957 21.8614 8.85998 21.8838 8.92925C21.9061 8.99852 21.9059 9.07309 21.8833 9.14225C21.8606 9.21141 21.8165 9.2716 21.7575 9.31418Z" fill="#DADADA"/>
</svg>
