<svg width="26" height="26" viewBox="0 0 26 26" fill="none" xmlns="http://www.w3.org/2000/svg">
<path d="M13.0651 0C13.3255 0.0295119 13.5281 0.250851 13.5426 0.516459V0.531215C13.6149 1.93303 15.9876 5.00227 18.6642 7.73212C21.3263 10.4472 24.2343 12.7787 25.4351 12.7049C25.7245 12.6901 25.9849 12.9262 25.9994 13.2213C26.0138 13.5165 25.7823 13.7821 25.493 13.7968C24.2777 13.8706 21.3407 16.2758 18.6497 19.0204C15.9732 21.7503 13.6004 24.7605 13.5281 26L13.0507 25.9705V24.2883C13.9766 22.6061 15.8429 20.319 17.8829 18.2384C19.9229 16.1578 22.1654 14.2395 23.8292 13.2951C22.1654 12.4393 19.9229 10.58 17.8829 8.49943C15.8429 6.41884 13.9766 4.10216 13.0507 2.33144V0H13.0651ZM0.564928 12.7196C0.593863 12.7196 0.622799 12.7196 0.651735 12.7196C2.08405 12.6459 4.97761 10.3734 7.56735 7.73212C10.1571 5.09081 12.3851 2.13961 12.4575 0.678774C12.4575 0.649262 12.4575 0.61975 12.4575 0.590238V0.575482C12.443 0.280363 12.6745 0.014756 12.9638 0C12.9928 0 13.0217 0 13.0507 0V2.3462V2.33144C12.2115 4.10216 10.3741 6.41884 8.33415 8.51419C6.29418 10.5948 4.02274 12.4688 2.2866 13.3246C4.02274 14.269 6.29419 16.1725 8.34862 18.2531C10.3886 20.3337 12.2115 22.6209 13.0507 24.3178L13.0651 24.3031V25.9852L12.4719 25.9557C12.5298 24.731 10.2439 21.765 7.59629 19.0499C4.93421 16.3496 1.96831 13.9591 0.564928 13.8263V12.7196ZM0.564928 13.8263C0.55046 13.8263 0.521524 13.8263 0.507056 13.8263C0.203232 13.8116 -0.0137852 13.546 0.00068266 13.2509C0.0151505 12.9557 0.261103 12.7196 0.564928 12.7344V13.8263Z" fill="#DADADA"/>
<path d="M5.39717 13.546C5.2525 13.5312 5.13675 13.4132 5.13675 13.2509C5.15122 13.1033 5.26696 12.9852 5.42611 12.9852C5.45505 12.9852 5.46951 12.9852 5.49845 12.9852C6.38099 12.941 8.16053 11.5539 9.73752 9.93076C11.3145 8.32236 12.689 6.50738 12.7324 5.60726C12.7324 5.57775 12.7324 5.563 12.7324 5.53348L13.2677 5.50397C13.3111 6.37457 14.7579 8.26334 16.4072 9.93076C18.0276 11.5982 19.8216 13.0295 20.5739 12.9852C20.7186 12.9705 20.8488 13.0885 20.8633 13.2509C20.8777 13.3984 20.762 13.5312 20.6029 13.546C19.6914 13.5902 17.7527 12.0999 16.031 10.3439C14.7434 9.03065 13.5715 7.56981 13.0362 6.49262C12.5443 7.55505 11.4013 9.03065 10.1282 10.3292C8.46435 12.0261 6.54013 13.4869 5.52739 13.546C5.48398 13.546 5.44058 13.546 5.39717 13.546Z" fill="#DADADA"/>
</svg>
