<svg width="26" height="27" viewBox="0 0 26 27" fill="none" xmlns="http://www.w3.org/2000/svg">
<path d="M10.2673 0H19.1503C19.5252 0 19.8713 0.161765 20.1309 0.411765C20.376 0.661765 20.5347 1.01471 20.5347 1.41176V25.5882C20.5347 25.9706 20.376 26.3235 20.1309 26.5882C19.8858 26.8382 19.5397 27 19.1503 27H10.2673V25.8971H19.1503C19.2368 25.8971 19.3089 25.8676 19.3666 25.8088C19.4243 25.75 19.4531 25.6765 19.4531 25.5882V1.41176C19.4531 1.32353 19.4243 1.25 19.3666 1.19118C19.3089 1.13235 19.2368 1.10294 19.1503 1.10294H10.2673V0ZM1.38436 0H10.2673V1.10294H1.38436C1.29784 1.10294 1.22574 1.13235 1.16805 1.19118C1.11037 1.25 1.08153 1.32353 1.08153 1.41176V25.5882C1.08153 25.6765 1.11037 25.75 1.16805 25.8088C1.22574 25.8676 1.29784 25.8971 1.38436 25.8971H10.2673V27H1.38436C1.00943 27 0.663339 26.8382 0.403772 26.5882C0.158625 26.3235 0 25.9706 0 25.5882V1.41176C0 1.02941 0.158625 0.676471 0.403772 0.411765C0.663339 0.161765 1.00943 0 1.38436 0Z" fill="#DADADA"/>
<path d="M10.2673 3.58824H16.7565C17.0593 3.58824 17.2901 3.83824 17.2901 4.13236V10.75C17.2901 11.0588 17.0449 11.2941 16.7565 11.2941H10.2673V10.1912H16.2085V4.67647H10.2673V3.58824ZM3.77815 3.58824H10.2673V4.69118H4.32612V10.2059H10.2673V11.3088H3.77815C3.47532 11.3088 3.24459 11.0588 3.24459 10.7647V4.14706C3.24459 3.82353 3.48974 3.58824 3.77815 3.58824Z" fill="#DADADA"/>
<path d="M11.8824 4.13236C11.8824 3.82353 12.1276 3.58824 12.416 3.58824C12.7044 3.58824 12.9495 3.83824 12.9495 4.13236V10.75C12.9495 11.0588 12.7044 11.2941 12.416 11.2941C12.1276 11.2941 11.8824 11.0441 11.8824 10.75V4.13236Z" fill="#DADADA"/>
<path d="M7.5563 4.13236C7.5563 3.82353 7.80145 3.58824 8.08986 3.58824C8.39268 3.58824 8.62341 3.83824 8.62341 4.13236V10.75C8.62341 11.0588 8.37826 11.2941 8.08986 11.2941C7.78703 11.2941 7.5563 11.0441 7.5563 10.75V4.13236Z" fill="#DADADA"/>
<path d="M1.08154 17.9118C0.778708 17.9118 0.547981 17.6618 0.547981 17.3676C0.547981 17.0588 0.793128 16.8235 1.08154 16.8235H19.7127C20.0155 16.8235 20.2463 17.0735 20.2463 17.3676C20.2463 17.6765 20.0011 17.9118 19.7127 17.9118H1.08154Z" fill="#DADADA"/>
<path d="M10.2673 19.5588H16.4825C16.7854 19.5588 17.0161 19.8088 17.0161 20.1029V22.8529C17.0161 23.1618 16.7709 23.3971 16.4825 23.3971H10.2673V22.2941H15.9346V20.6471H10.2673V19.5588ZM4.05214 19.5588H10.2673V20.6618H4.58569V22.3088H10.2529V23.4118H4.05214C3.74931 23.4118 3.51858 23.1618 3.51858 22.8676V20.1176C3.51858 19.8088 3.74931 19.5588 4.05214 19.5588Z" fill="#DADADA"/>
<path d="M10.2673 12.6765C10.6423 12.6765 10.9739 12.8235 11.2191 13.0735C11.4642 13.3235 11.6084 13.6618 11.6084 14.0441C11.6084 14.4265 11.4642 14.7647 11.2191 15.0147C10.9739 15.2647 10.6423 15.4118 10.2673 15.4118V14.8676C10.4981 14.8676 10.7 14.7794 10.8442 14.6324C10.9884 14.4853 11.0749 14.2794 11.0749 14.0441C11.0749 13.8088 10.9884 13.6029 10.8442 13.4559C10.7 13.3088 10.4981 13.2206 10.2673 13.2206V12.6765ZM10.2673 15.4265C9.89241 15.4265 9.56074 15.2794 9.31559 15.0294C9.07044 14.7794 8.92624 14.4412 8.92624 14.0588C8.92624 13.6765 9.07044 13.3382 9.31559 13.0882C9.56074 12.8382 9.89241 12.6912 10.2673 12.6912V13.2353C10.0366 13.2353 9.83472 13.3235 9.69052 13.4706C9.54632 13.6176 9.45979 13.8235 9.45979 14.0588C9.45979 14.2941 9.54632 14.5 9.69052 14.6471C9.83472 14.7941 10.0366 14.8824 10.2673 14.8824V15.4265Z" fill="#DADADA"/>
<path d="M5.14809 12.6765C5.52302 12.6765 5.85469 12.8235 6.09984 13.0735C6.34499 13.3235 6.48919 13.6618 6.48919 14.0441C6.48919 14.4265 6.34499 14.7647 6.09984 15.0147C5.85469 15.2647 5.52302 15.4118 5.14809 15.4118V14.8676C5.37882 14.8676 5.5807 14.7794 5.72491 14.6324C5.86911 14.4853 5.95563 14.2794 5.95563 14.0441C5.95563 13.8088 5.86911 13.6029 5.72491 13.4559C5.5807 13.3088 5.37882 13.2206 5.14809 13.2206V12.6765ZM5.14809 15.4265C4.77316 15.4265 4.44149 15.2794 4.19634 15.0294C3.9512 14.7794 3.80699 14.4412 3.80699 14.0588C3.80699 13.6765 3.9512 13.3382 4.19634 13.0882C4.44149 12.8382 4.77316 12.6912 5.14809 12.6912V13.2353C4.91736 13.2353 4.71548 13.3235 4.57127 13.4706C4.42707 13.6176 4.34055 13.8235 4.34055 14.0588C4.34055 14.2941 4.42707 14.5 4.57127 14.6471C4.71548 14.7941 4.91736 14.8824 5.14809 14.8824V15.4265Z" fill="#DADADA"/>
<path d="M15.3866 12.6765C15.7615 12.6765 16.0932 12.8235 16.3383 13.0735C16.5835 13.3235 16.7277 13.6618 16.7277 14.0441C16.7277 14.4265 16.5835 14.7647 16.3383 15.0147C16.0932 15.2647 15.7615 15.4118 15.3866 15.4118V14.8676C15.6173 14.8676 15.8192 14.7794 15.9634 14.6324C16.1076 14.4853 16.1941 14.2794 16.1941 14.0441C16.1941 13.8088 16.1076 13.6029 15.9634 13.4559C15.8192 13.3088 15.6173 13.2206 15.3866 13.2206V12.6765ZM15.3866 15.4265C15.0117 15.4265 14.68 15.2794 14.4348 15.0294C14.1897 14.7794 14.0455 14.4412 14.0455 14.0588C14.0455 13.6765 14.1897 13.3382 14.4348 13.0882C14.68 12.8382 15.0117 12.6912 15.3866 12.6912V13.2353C15.1559 13.2353 14.954 13.3235 14.8098 13.4706C14.6656 13.6176 14.579 13.8235 14.579 14.0588C14.579 14.2941 14.6656 14.5 14.8098 14.6471C14.954 14.7941 15.1559 14.8824 15.3866 14.8824V15.4265Z" fill="#DADADA"/>
<path d="M11.0604 5.66176V6.19118L10.3106 9.22059H9.80587L10.5413 6.19118H9.4742V5.66176H11.0604Z" fill="#DADADA"/>
<path d="M6.66223 5.66176V6.19118L5.92679 9.22059H5.40765L6.14309 6.19118H5.07598V5.66176H6.66223Z" fill="#DADADA"/>
<path d="M15.2712 5.66176V6.19118L14.5358 9.22059H14.0166L14.7521 6.19118H13.685V5.66176H15.2712Z" fill="#DADADA"/>
<path d="M21.3999 11.2941H20.9673V10.1912H21.9479C22.2507 10.1912 22.4814 10.4412 22.4814 10.7353V18.5882C22.4814 18.8971 22.2363 19.1324 21.9479 19.1324H20.9673V18.0294H21.3999V11.2941ZM20.9673 11.2941H20.5347V18.0441H20.9673V19.1471H19.9867C19.6839 19.1471 19.4531 18.8971 19.4531 18.6029V10.75C19.4531 10.4412 19.6983 10.2059 19.9867 10.2059H20.9673V11.2941Z" fill="#DADADA"/>
<path d="M24.4138 14.1618H23.7072V13.0588H24.4138C24.8464 13.0588 25.2501 13.2353 25.5385 13.5294C25.827 13.8235 26 14.2206 26 14.6765C26 15.1176 25.827 15.5294 25.5385 15.8235C25.2501 16.1176 24.8608 16.2941 24.4138 16.2941H23.7072V15.1912H24.4138C24.558 15.1912 24.6733 15.1324 24.7743 15.0441C24.8608 14.9559 24.9185 14.8235 24.9185 14.6765C24.9185 14.5294 24.8608 14.4118 24.7743 14.3088C24.6733 14.2206 24.5435 14.1618 24.4138 14.1618ZM23.6927 14.1618H22.4814V15.1912H23.6927V16.2941H21.9334C21.6306 16.2941 21.3999 16.0441 21.3999 15.75V13.6029C21.3999 13.2941 21.645 13.0588 21.9334 13.0588H23.6927V14.1618Z" fill="#DADADA"/>
<path d="M23.2313 4.13236C23.2313 3.82353 23.4764 3.58824 23.7649 3.58824C24.0677 3.58824 24.2984 3.83824 24.2984 4.13236V13.4265C24.2984 13.7353 24.0533 13.9706 23.7649 13.9706C23.462 13.9706 23.2313 13.7206 23.2313 13.4265V4.13236Z" fill="#DADADA"/>
<path d="M22.8852 4.35294C22.5824 4.35294 22.3516 4.10294 22.3516 3.80883C22.3516 3.5 22.5968 3.26471 22.8852 3.26471H24.6445C24.9473 3.26471 25.178 3.51471 25.178 3.80883C25.178 4.11765 24.9329 4.35294 24.6445 4.35294H22.8852Z" fill="#DADADA"/>
</svg>
