<svg width="26" height="26" viewBox="0 0 26 26" fill="none" xmlns="http://www.w3.org/2000/svg">
<path d="M13.2719 0C16.7831 0 19.9686 1.43073 22.2764 3.72556C24.5842 6.03456 26 9.20766 26 12.7349C26 16.248 24.57 19.4352 22.2764 21.7442C19.9828 24.0532 16.7972 25.4698 13.2719 25.4698V24.4074C16.4999 24.4074 19.4165 23.1041 21.526 20.9935C23.6356 18.8828 24.9381 15.9647 24.9381 12.7349C24.9381 9.50513 23.6356 6.58702 21.526 4.47634C19.4023 2.36566 16.4858 1.06242 13.2719 1.06242V0ZM13.2719 23.0616C16.1176 23.0616 18.6944 21.9001 20.5633 20.0444C22.4322 18.1745 23.579 15.5964 23.579 12.7491C23.579 9.90177 22.418 7.32363 20.5633 5.45377C18.6944 3.56974 16.1176 2.42232 13.2719 2.42232V3.48474C15.8345 3.48474 18.1423 4.51883 19.8129 6.19038C21.4836 7.86192 22.5171 10.1851 22.5171 12.7349C22.5171 15.2989 21.4836 17.6079 19.8129 19.2794C18.1423 20.951 15.8203 21.9851 13.2719 21.9851V23.0616ZM13.2719 20.6393C15.4522 20.6393 17.4343 19.761 18.8643 18.3303C20.2943 16.8996 21.1721 14.9306 21.1721 12.7349C21.1721 10.5534 20.2943 8.5702 18.8643 7.13947C17.4343 5.70875 15.4664 4.83048 13.2719 4.83048V5.8929C15.1549 5.8929 16.868 6.65784 18.1139 7.89025C19.3457 9.12266 20.1102 10.8367 20.1102 12.7349C20.1102 14.6189 19.3457 16.333 18.1139 17.5795C16.8822 18.8119 15.1691 19.5769 13.2719 19.5769V20.6393ZM13.2719 18.2312C14.7868 18.2312 16.1601 17.622 17.1512 16.6163C18.1423 15.6247 18.7652 14.2506 18.7652 12.7349C18.7652 11.2192 18.1564 9.84511 17.1512 8.85352C16.1601 7.86192 14.7868 7.2528 13.2719 7.2528V8.31522C14.4895 8.31522 15.5938 8.81102 16.4008 9.61846C17.2078 10.4259 17.7034 11.5308 17.7034 12.7491C17.7034 13.9673 17.2078 15.0722 16.4008 15.8797C15.5938 16.6871 14.4895 17.1829 13.2719 17.1829V18.2312ZM13.2719 15.8088C14.1214 15.8088 14.8859 15.4689 15.4381 14.9022C15.9902 14.3498 16.3442 13.5707 16.3442 12.7349C16.3442 11.885 16.0044 11.12 15.4381 10.5676C14.8859 10.0151 14.1072 9.66096 13.2719 9.66096V10.7234C13.824 10.7234 14.3337 10.95 14.6877 11.3183C15.0558 11.6866 15.2823 12.1824 15.2823 12.7349C15.2823 13.2874 15.0558 13.7973 14.6877 14.1515C14.3196 14.5198 13.824 14.7464 13.2719 14.7464V15.8088ZM13.2719 0V1.06242C10.0438 1.06242 7.12725 2.36566 5.01769 4.47634C2.90814 6.58702 1.59143 9.5193 1.59143 12.7349C1.59143 14.9447 2.20023 17.0129 3.27625 18.7836L2.45508 19.4777C1.23748 17.5229 0.529575 15.2139 0.529575 12.7349C0.529575 9.22182 1.95954 6.03456 4.25316 3.72556C6.56093 1.43073 9.7465 0 13.2719 0ZM13.2719 25.4698C10.7942 25.4698 8.50059 24.7615 6.54677 23.5433L7.24051 22.7217C8.99612 23.7841 11.0632 24.4074 13.286 24.4074V25.4698H13.2719ZM13.2719 2.42232C10.4261 2.42232 7.84931 3.5839 5.98044 5.4396C4.09742 7.30946 2.95061 9.88761 2.95061 12.7349C2.95061 14.6614 3.47446 16.4605 4.39474 18.0045L5.54154 17.8345C4.57879 16.3755 4.01247 14.6189 4.01247 12.7349C4.01247 10.1851 5.04601 7.86192 6.71667 6.19038C8.38732 4.51883 10.7093 3.48474 13.2577 3.48474V2.42232H13.2719ZM13.2719 4.83048C11.0915 4.83048 9.10938 5.70875 7.67942 7.13947C6.24945 8.5702 5.37165 10.5392 5.37165 12.7349C5.37165 14.5339 5.96629 16.1913 6.98567 17.5229L7.75021 16.7579C6.92904 15.6247 6.4335 14.2365 6.4335 12.7207C6.4335 10.8367 7.19804 9.12266 8.4298 7.87609C9.66155 6.62951 11.3747 5.87873 13.2719 5.87873V4.83048ZM13.2719 7.2528C11.757 7.2528 10.3836 7.86192 9.39255 8.85352C8.40148 9.84511 7.77852 11.2192 7.77852 12.7349C7.77852 13.8681 8.11832 14.9164 8.71296 15.7947L9.4775 15.0297C9.06691 14.3639 8.84038 13.5848 8.84038 12.7349C8.84038 11.5167 9.33591 10.4117 10.1429 9.60429C10.9499 8.79685 12.0543 8.30106 13.2719 8.30106V7.2528ZM13.2719 9.66096C12.4224 9.66096 11.6578 10.0009 11.1057 10.5676C10.5535 11.12 10.1996 11.8991 10.1996 12.7349C10.1996 13.2024 10.2987 13.6273 10.4827 14.024L11.1765 13.3299C11.2189 13.2874 11.2614 13.2449 11.318 13.2165C11.2756 13.0607 11.2614 12.9049 11.2614 12.7349C11.2614 12.1824 11.4879 11.6725 11.8561 11.3183C12.2242 10.95 12.7197 10.7234 13.2719 10.7234V9.66096ZM13.2719 14.7464C13.102 14.7464 12.9462 14.7323 12.7905 14.6898C12.7622 14.7323 12.7197 14.7889 12.6772 14.8314L11.9835 15.5255C12.3799 15.7097 12.8188 15.8088 13.2719 15.8088V14.7464ZM13.2719 17.1687C12.4365 17.1687 11.6578 16.9421 10.9783 16.5313L10.2137 17.2962C11.0915 17.877 12.1392 18.2312 13.2719 18.2312V17.1687ZM13.2719 19.5769C11.7711 19.5769 10.3695 19.0953 9.23681 18.2595L8.47227 19.0244C9.80313 20.0444 11.4596 20.6393 13.2577 20.6393V19.5769H13.2719ZM13.2719 21.9992C11.3888 21.9992 9.63323 21.4326 8.17495 20.4693L8.00505 21.6167C9.54829 22.5375 11.3464 23.0616 13.2719 23.0616V21.9992Z" fill="#DADADA"/>
<path d="M5.14512 22.7358L6.46183 21.1634L6.61757 20.1435L5.14512 21.6167V20.1152L5.86719 19.3927L5.14512 19.5061V18.4295L7.12726 18.132L11.5587 13.6982C11.7003 13.5565 11.8985 13.514 12.0826 13.5565L13.0595 12.5791C13.1586 12.4799 13.3285 12.4799 13.4276 12.5791C13.5267 12.6782 13.5267 12.8482 13.4276 12.9474L12.4507 13.9248C12.4932 14.0948 12.4507 14.2931 12.3091 14.4348L7.87764 18.8686L7.49537 21.4468C7.48121 21.5459 7.43874 21.6309 7.3821 21.7159L5.15928 24.3649V22.7358H5.14512ZM3.87089 24.2657L5.14512 22.75V24.3932L3.97 25.7814C3.88505 25.8948 3.77179 25.9656 3.63021 25.9939C3.34705 26.0364 3.06388 25.8523 3.02141 25.5548L2.7524 23.9966L2.63914 24.1099C2.42677 24.3224 2.10113 24.3224 1.88876 24.1099C1.67639 23.8974 1.67639 23.5716 1.88876 23.3591L2.00203 23.2458L0.444635 22.9766C0.161473 22.9342 -0.0367409 22.6508 0.00573345 22.3675C0.0340496 22.2259 0.10484 22.0984 0.218105 22.0276L4.26732 18.6278C4.35227 18.557 4.43722 18.5286 4.53633 18.5145L5.13097 18.4295V19.5061L4.83365 19.5486L1.74718 22.1409L2.90814 22.3392L5.14512 20.1152V21.6167L3.67268 23.09L3.87089 24.2657Z" fill="#DADADA"/>
</svg>
